{"glyphs":{"0":{"ha":867,"x_min":56,"x_max":813,"o":"m 56 486 q 103 750 56 638 q 235 925 150 863 q 433 988 321 988 q 633 925 547 988 q 765 750 718 863 q 813 486 813 638 q 765 223 813 336 q 633 47 718 110 q 433 -15 547 -15 q 235 47 321 -15 q 103 223 150 110 q 56 486 56 336 m 217 486 q 243 302 217 382 q 318 177 269 222 q 433 132 367 132 q 549 177 500 132 q 624 302 597 222 q 651 486 651 382 q 624 671 651 592 q 549 795 597 750 q 433 840 500 840 q 318 795 367 840 q 243 671 269 750 q 217 486 217 592 z "},"1":{"ha":657,"x_min":104,"x_max":492,"o":"m 104 744 l 104 900 l 492 988 l 492 0 l 329 0 l 329 807 l 104 744 z "},"2":{"ha":838,"x_min":28,"x_max":769,"o":"m 28 0 l 476 474 q 558 580 529 529 q 588 689 588 631 q 569 763 588 728 q 513 819 550 797 q 422 842 476 842 q 291 784 339 842 q 243 628 243 726 l 81 628 q 120 813 81 732 q 237 942 160 894 q 425 989 314 989 q 572 962 510 989 q 676 891 635 935 q 737 797 717 847 q 757 697 757 746 q 720 551 757 621 q 624 424 683 481 l 349 153 l 769 153 l 769 0 l 28 0 z "},"3":{"ha":800,"x_min":76,"x_max":746,"o":"m 413 -17 q 234 24 310 -17 q 117 131 158 64 q 76 278 76 199 l 242 278 q 292 167 242 208 q 415 125 342 125 q 535 165 489 125 q 581 278 581 206 q 522 398 581 356 q 364 440 463 440 l 364 564 q 503 609 453 564 q 553 717 553 654 q 519 812 553 775 q 421 849 486 849 q 315 810 358 849 q 272 714 272 772 l 118 714 q 156 856 118 794 q 263 952 194 917 q 419 988 331 988 q 581 951 514 988 q 683 856 647 915 q 718 725 718 797 q 673 596 718 651 q 551 510 628 540 q 692 421 639 482 q 746 260 746 360 q 704 115 746 176 q 588 18 663 53 q 413 -17 513 -17 z "},"4":{"ha":874,"x_min":25,"x_max":825,"o":"m 25 186 l 574 972 l 672 972 l 672 328 l 825 328 l 825 186 l 672 186 l 672 0 l 504 0 l 504 186 l 25 186 m 265 315 l 514 315 l 514 679 l 265 315 z "},"5":{"ha":828,"x_min":49,"x_max":772,"o":"m 772 317 q 722 131 772 206 q 589 21 671 57 q 413 -15 507 -15 q 192 35 278 -15 q 49 157 106 86 l 144 275 q 254 178 188 218 q 390 138 321 138 q 543 188 489 138 q 597 326 597 238 q 569 428 597 386 q 494 492 540 469 q 390 514 447 514 q 266 499 326 514 q 132 438 206 483 l 264 972 l 764 972 l 764 828 l 388 828 l 326 606 q 481 640 397 640 q 627 600 561 640 q 733 488 693 560 q 772 317 772 415 z "},"6":{"ha":851,"x_min":69,"x_max":783,"o":"m 460 971 l 668 971 l 389 625 q 436 640 411 636 q 490 643 461 643 q 633 603 567 643 q 742 492 700 563 q 783 328 783 421 q 736 143 783 221 q 608 24 689 65 q 426 -17 526 -17 q 245 24 326 -17 q 117 143 164 65 q 69 328 69 221 q 92 453 69 396 q 151 557 115 510 l 460 971 m 229 328 q 285 183 229 239 q 426 126 342 126 q 567 183 511 126 q 622 328 622 239 q 567 475 622 418 q 426 532 511 532 q 326 506 371 532 q 255 433 281 479 q 229 328 229 388 z "},"7":{"ha":772,"x_min":42,"x_max":767,"o":"m 42 818 l 42 972 l 767 972 l 300 0 l 125 0 l 524 818 l 42 818 z "},"8":{"ha":803,"x_min":75,"x_max":729,"o":"m 75 264 q 126 424 75 361 q 251 517 178 486 q 149 601 189 546 q 110 738 110 657 q 149 869 110 813 q 253 957 188 925 q 401 989 319 989 q 550 957 483 989 q 656 869 617 925 q 694 738 694 813 q 655 601 694 657 q 551 517 615 546 q 678 424 626 486 q 729 264 729 361 q 685 119 729 183 q 566 19 640 56 q 401 -17 492 -17 q 237 19 311 -17 q 119 119 163 56 q 75 264 75 183 m 265 721 q 306 622 265 661 q 401 583 346 583 q 498 622 458 583 q 538 721 538 661 q 499 821 538 782 q 401 860 461 860 q 303 821 342 860 q 265 721 265 782 m 236 286 q 287 164 236 207 q 401 121 338 121 q 483 140 444 121 q 544 197 521 160 q 568 286 568 233 q 544 369 568 332 q 483 428 521 407 q 401 450 444 450 q 321 428 358 450 q 260 369 283 407 q 236 286 236 332 z "},"9":{"ha":851,"x_min":69,"x_max":783,"o":"m 392 1 l 183 1 l 461 346 q 416 333 440 336 q 363 329 392 329 q 219 369 286 329 q 111 481 153 410 q 69 644 69 551 q 117 830 69 753 q 245 948 164 907 q 426 989 326 989 q 608 948 526 989 q 736 830 689 907 q 783 644 783 753 q 760 519 783 576 q 700 415 736 463 l 392 1 m 622 644 q 567 790 622 735 q 426 846 511 846 q 285 790 342 846 q 229 644 229 735 q 255 539 229 585 q 326 467 281 493 q 426 440 371 440 q 567 498 511 440 q 622 644 622 556 z "},"A":{"ha":958,"x_min":4,"x_max":954,"o":"m 769 0 l 658 250 l 300 250 l 189 0 l 4 0 l 479 1026 l 954 0 l 769 0 m 479 697 l 347 389 l 611 389 l 479 697 z "},"À":{"ha":958,"x_min":4,"x_max":954,"o":"m 281 1318 l 408 1381 l 617 1158 l 531 1110 l 281 1318 m 769 0 l 658 250 l 300 250 l 189 0 l 4 0 l 479 1026 l 954 0 l 769 0 m 479 697 l 347 389 l 611 389 l 479 697 z "},"Á":{"ha":958,"x_min":4,"x_max":954,"o":"m 675 1318 l 425 1110 l 340 1158 l 549 1381 l 675 1318 m 769 0 l 658 250 l 300 250 l 189 0 l 4 0 l 479 1026 l 954 0 l 769 0 m 479 697 l 347 389 l 611 389 l 479 697 z "},"Â":{"ha":958,"x_min":4,"x_max":954,"o":"m 479 1194 l 336 1068 l 236 1140 l 479 1335 l 722 1140 l 622 1068 l 479 1194 m 769 0 l 658 250 l 300 250 l 189 0 l 4 0 l 479 1026 l 954 0 l 769 0 m 479 697 l 347 389 l 611 389 l 479 697 z "},"Ã":{"ha":958,"x_min":4,"x_max":954,"o":"m 232 1156 q 287 1242 243 1207 q 386 1276 331 1276 q 442 1266 419 1276 q 481 1242 464 1256 q 517 1219 499 1229 q 565 1208 536 1208 q 608 1226 588 1208 q 649 1278 628 1244 l 726 1201 q 665 1128 710 1163 q 563 1093 619 1093 q 497 1110 525 1093 q 444 1144 469 1128 q 385 1161 418 1161 q 342 1148 357 1161 q 322 1118 328 1135 q 317 1090 317 1101 l 232 1156 m 769 0 l 658 250 l 300 250 l 189 0 l 4 0 l 479 1026 l 954 0 l 769 0 m 479 697 l 347 389 l 611 389 l 479 697 z "},"Ä":{"ha":958,"x_min":4,"x_max":954,"o":"m 219 1172 q 247 1238 219 1211 q 314 1264 275 1264 q 382 1238 354 1264 q 410 1172 410 1211 q 382 1108 410 1133 q 314 1082 354 1082 q 247 1108 275 1082 q 219 1172 219 1133 m 546 1169 q 574 1235 546 1208 q 640 1261 601 1261 q 708 1235 681 1261 q 735 1169 735 1208 q 708 1104 735 1131 q 640 1078 681 1078 q 574 1104 601 1078 q 546 1169 546 1131 m 769 0 l 658 250 l 300 250 l 189 0 l 4 0 l 479 1026 l 954 0 l 769 0 m 479 697 l 347 389 l 611 389 l 479 697 z "},"Å":{"ha":958,"x_min":4,"x_max":954,"o":"m 325 1110 q 372 1217 325 1176 q 479 1257 418 1257 q 587 1217 540 1257 q 633 1110 633 1176 q 597 1013 633 1051 q 507 965 560 974 l 954 0 l 769 0 l 658 250 l 300 250 l 189 0 l 4 0 l 451 965 q 362 1013 399 974 q 325 1110 325 1051 m 411 1110 q 432 1058 411 1076 q 479 1039 453 1039 q 526 1058 506 1039 q 547 1110 547 1076 q 526 1162 547 1143 q 479 1181 506 1181 q 432 1162 453 1181 q 411 1110 411 1143 m 479 697 l 347 389 l 611 389 l 479 697 z "},"Ā":{"ha":958,"x_min":4,"x_max":954,"o":"m 231 1110 l 231 1244 l 728 1244 l 728 1110 l 231 1110 m 769 0 l 658 250 l 300 250 l 189 0 l 4 0 l 479 1026 l 954 0 l 769 0 m 479 697 l 347 389 l 611 389 l 479 697 z "},"Ă":{"ha":958,"x_min":4,"x_max":954,"o":"m 256 1307 l 371 1307 q 395 1244 371 1276 q 479 1211 419 1211 q 564 1244 540 1211 q 588 1307 588 1276 l 703 1307 q 677 1210 703 1256 q 602 1138 651 1165 q 479 1110 553 1110 q 357 1138 407 1110 q 281 1210 307 1165 q 256 1307 256 1256 m 769 0 l 658 250 l 300 250 l 189 0 l 4 0 l 479 1026 l 954 0 l 769 0 m 479 697 l 347 389 l 611 389 l 479 697 z "},"Ą":{"ha":958,"x_min":4,"x_max":979,"o":"m 933 -169 l 979 -250 q 933 -288 964 -271 q 851 -306 901 -306 q 728 -268 772 -306 q 683 -167 683 -231 q 719 -75 683 -117 q 808 0 756 -33 l 769 0 l 658 250 l 300 250 l 189 0 l 4 0 l 479 1026 l 954 0 l 926 0 q 839 -62 872 -25 q 806 -136 806 -100 q 820 -183 806 -169 q 864 -197 835 -197 q 904 -190 889 -197 q 933 -169 919 -183 m 479 697 l 347 389 l 611 389 l 479 697 z "},"B":{"ha":833,"x_min":108,"x_max":768,"o":"m 768 281 q 723 122 768 185 q 599 30 678 60 q 418 0 521 0 l 108 0 l 108 972 l 401 972 q 626 912 540 972 q 713 728 713 851 q 672 603 713 654 q 561 526 632 553 q 710 442 651 503 q 768 281 768 382 m 390 838 l 272 838 l 272 582 l 390 582 q 501 616 458 582 q 544 710 544 650 q 501 804 544 771 q 390 838 458 838 m 272 135 l 408 135 q 546 176 492 135 q 600 297 600 217 q 546 415 600 376 q 408 454 492 454 l 272 454 l 272 135 z "},"C":{"ha":960,"x_min":53,"x_max":867,"o":"m 231 486 q 276 306 231 383 q 398 185 322 228 q 563 143 474 143 q 741 183 665 143 q 867 282 817 222 l 867 86 q 735 10 807 36 q 557 -17 664 -17 q 358 20 450 -17 q 198 124 267 57 q 91 283 129 190 q 53 486 53 375 q 91 690 53 597 q 198 849 129 782 q 358 952 267 915 q 557 989 450 989 q 735 963 664 989 q 867 886 807 936 l 867 690 q 741 790 817 750 q 563 829 665 829 q 398 787 474 829 q 276 667 322 744 q 231 486 231 590 z "},"Ç":{"ha":960,"x_min":53,"x_max":867,"o":"m 231 486 q 276 306 231 383 q 398 185 322 228 q 563 143 474 143 q 741 183 665 143 q 867 282 817 222 l 867 86 q 740 11 808 38 q 571 -17 671 -15 l 526 -87 q 540 -85 533 -86 q 554 -85 547 -85 q 628 -114 592 -85 q 665 -201 665 -143 q 642 -277 665 -246 q 581 -324 618 -308 q 504 -340 544 -340 q 422 -328 457 -340 q 349 -286 386 -317 l 403 -215 q 493 -249 444 -249 q 564 -196 564 -249 q 544 -159 564 -169 q 489 -149 524 -149 q 451 -153 479 -149 q 394 -172 422 -157 l 474 -11 q 256 74 351 7 q 107 247 161 142 q 53 486 53 353 q 91 690 53 597 q 198 849 129 782 q 358 952 267 915 q 557 989 450 989 q 735 963 664 989 q 867 886 807 936 l 867 690 q 741 790 817 750 q 563 829 665 829 q 398 787 474 829 q 276 667 322 744 q 231 486 231 590 z "},"Ć":{"ha":960,"x_min":53,"x_max":867,"o":"m 738 1281 l 488 1072 l 403 1122 l 611 1344 l 738 1281 m 231 486 q 276 306 231 383 q 398 185 322 228 q 563 143 474 143 q 741 183 665 143 q 867 282 817 222 l 867 86 q 735 10 807 36 q 557 -17 664 -17 q 358 20 450 -17 q 198 124 267 57 q 91 283 129 190 q 53 486 53 375 q 91 690 53 597 q 198 849 129 782 q 358 952 267 915 q 557 989 450 989 q 735 963 664 989 q 867 886 807 936 l 867 690 q 741 790 817 750 q 563 829 665 829 q 398 787 474 829 q 276 667 322 744 q 231 486 231 590 z "},"Ĉ":{"ha":960,"x_min":53,"x_max":867,"o":"m 557 1200 l 415 1072 l 314 1146 l 557 1340 l 800 1146 l 700 1072 l 557 1200 m 231 486 q 276 306 231 383 q 398 185 322 228 q 563 143 474 143 q 741 183 665 143 q 867 282 817 222 l 867 86 q 735 10 807 36 q 557 -17 664 -17 q 358 20 450 -17 q 198 124 267 57 q 91 283 129 190 q 53 486 53 375 q 91 690 53 597 q 198 849 129 782 q 358 952 267 915 q 557 989 450 989 q 735 963 664 989 q 867 886 807 936 l 867 690 q 741 790 817 750 q 563 829 665 829 q 398 787 474 829 q 276 667 322 744 q 231 486 231 590 z "},"Ċ":{"ha":960,"x_min":53,"x_max":867,"o":"m 449 1164 q 476 1229 449 1203 q 543 1256 504 1256 q 610 1229 583 1256 q 638 1164 638 1203 q 610 1099 638 1125 q 543 1072 583 1072 q 476 1099 504 1072 q 449 1164 449 1125 m 231 486 q 276 306 231 383 q 398 185 322 228 q 563 143 474 143 q 741 183 665 143 q 867 282 817 222 l 867 86 q 735 10 807 36 q 557 -17 664 -17 q 358 20 450 -17 q 198 124 267 57 q 91 283 129 190 q 53 486 53 375 q 91 690 53 597 q 198 849 129 782 q 358 952 267 915 q 557 989 450 989 q 735 963 664 989 q 867 886 807 936 l 867 690 q 741 790 817 750 q 563 829 665 829 q 398 787 474 829 q 276 667 322 744 q 231 486 231 590 z "},"Č":{"ha":960,"x_min":53,"x_max":867,"o":"m 557 1214 l 700 1340 l 800 1267 l 557 1072 l 314 1267 l 415 1340 l 557 1214 m 231 486 q 276 306 231 383 q 398 185 322 228 q 563 143 474 143 q 741 183 665 143 q 867 282 817 222 l 867 86 q 735 10 807 36 q 557 -17 664 -17 q 358 20 450 -17 q 198 124 267 57 q 91 283 129 190 q 53 486 53 375 q 91 690 53 597 q 198 849 129 782 q 358 952 267 915 q 557 989 450 989 q 735 963 664 989 q 867 886 807 936 l 867 690 q 741 790 817 750 q 563 829 665 829 q 398 787 474 829 q 276 667 322 744 q 231 486 231 590 z "},"D":{"ha":974,"x_min":108,"x_max":922,"o":"m 422 0 l 108 0 l 108 972 l 422 972 q 683 912 571 972 q 859 742 796 851 q 922 486 922 633 q 859 231 922 340 q 683 60 796 121 q 422 0 571 0 m 418 818 l 276 818 l 276 154 l 418 154 q 590 192 514 154 q 710 303 667 229 q 754 486 754 376 q 710 669 754 596 q 590 781 667 743 q 418 818 514 818 z "},"Ď":{"ha":974,"x_min":108,"x_max":922,"o":"m 483 1214 l 626 1340 l 726 1267 l 483 1072 l 240 1267 l 342 1340 l 483 1214 m 422 0 l 108 0 l 108 972 l 422 972 q 683 912 571 972 q 859 742 796 851 q 922 486 922 633 q 859 231 922 340 q 683 60 796 121 q 422 0 571 0 m 418 818 l 276 818 l 276 154 l 418 154 q 590 192 514 154 q 710 303 667 229 q 754 486 754 376 q 710 669 754 596 q 590 781 667 743 q 418 818 514 818 z "},"E":{"ha":793,"x_min":108,"x_max":700,"o":"m 108 972 l 700 972 l 700 828 l 269 828 l 269 592 l 672 592 l 672 450 l 269 450 l 269 144 l 700 144 l 700 0 l 108 0 l 108 972 z "},"È":{"ha":793,"x_min":108,"x_max":700,"o":"m 206 1285 l 332 1347 l 540 1125 l 456 1076 l 206 1285 m 108 972 l 700 972 l 700 828 l 269 828 l 269 592 l 672 592 l 672 450 l 269 450 l 269 144 l 700 144 l 700 0 l 108 0 l 108 972 z "},"É":{"ha":793,"x_min":108,"x_max":700,"o":"m 600 1285 l 350 1076 l 265 1125 l 474 1347 l 600 1285 m 108 972 l 700 972 l 700 828 l 269 828 l 269 592 l 672 592 l 672 450 l 269 450 l 269 144 l 700 144 l 700 0 l 108 0 l 108 972 z "},"Ê":{"ha":793,"x_min":108,"x_max":700,"o":"m 414 1200 l 272 1072 l 171 1146 l 414 1340 l 657 1146 l 557 1072 l 414 1200 m 108 972 l 700 972 l 700 828 l 269 828 l 269 592 l 672 592 l 672 450 l 269 450 l 269 144 l 700 144 l 700 0 l 108 0 l 108 972 z "},"Ë":{"ha":793,"x_min":108,"x_max":700,"o":"m 471 1185 q 499 1250 471 1224 q 565 1276 526 1276 q 633 1250 606 1276 q 660 1185 660 1224 q 633 1120 660 1146 q 565 1094 606 1094 q 499 1120 526 1094 q 471 1185 471 1146 m 168 1185 q 197 1250 168 1224 q 264 1276 225 1276 q 331 1250 304 1276 q 358 1185 358 1224 q 331 1120 358 1146 q 264 1094 304 1094 q 197 1120 225 1094 q 168 1185 168 1146 m 108 972 l 700 972 l 700 828 l 269 828 l 269 592 l 672 592 l 672 450 l 269 450 l 269 144 l 700 144 l 700 0 l 108 0 l 108 972 z "},"Ē":{"ha":793,"x_min":108,"x_max":700,"o":"m 154 1072 l 154 1208 l 653 1208 l 653 1072 l 154 1072 m 108 972 l 700 972 l 700 828 l 269 828 l 269 592 l 672 592 l 672 450 l 269 450 l 269 144 l 700 144 l 700 0 l 108 0 l 108 972 z "},"Ĕ":{"ha":793,"x_min":108,"x_max":700,"o":"m 181 1271 l 294 1271 q 319 1208 294 1240 q 403 1175 343 1175 q 488 1208 464 1175 q 513 1271 513 1240 l 626 1271 q 601 1174 626 1219 q 526 1101 575 1129 q 403 1072 476 1072 q 281 1101 331 1072 q 206 1174 231 1129 q 181 1271 181 1219 m 108 972 l 700 972 l 700 828 l 269 828 l 269 592 l 672 592 l 672 450 l 269 450 l 269 144 l 700 144 l 700 0 l 108 0 l 108 972 z "},"Ė":{"ha":793,"x_min":108,"x_max":700,"o":"m 308 1164 q 336 1229 308 1203 q 403 1256 364 1256 q 471 1229 443 1256 q 499 1164 499 1203 q 471 1099 499 1125 q 403 1072 443 1072 q 336 1099 364 1072 q 308 1164 308 1125 m 108 972 l 700 972 l 700 828 l 269 828 l 269 592 l 672 592 l 672 450 l 269 450 l 269 144 l 700 144 l 700 0 l 108 0 l 108 972 z "},"Ę":{"ha":793,"x_min":108,"x_max":700,"o":"m 526 -169 l 572 -250 q 525 -288 557 -271 q 443 -306 493 -306 q 319 -268 364 -306 q 275 -167 275 -231 q 312 -75 275 -117 q 401 0 349 -33 l 108 0 l 108 972 l 700 972 l 700 828 l 269 828 l 269 592 l 672 592 l 672 450 l 269 450 l 269 144 l 700 144 l 700 0 l 519 0 q 431 -62 465 -25 q 397 -136 397 -100 q 413 -183 397 -169 q 457 -197 428 -197 q 497 -190 482 -197 q 526 -169 513 -183 z "},"Ě":{"ha":793,"x_min":108,"x_max":700,"o":"m 403 1214 l 546 1340 l 647 1267 l 403 1072 l 161 1267 l 261 1340 l 403 1214 m 108 972 l 700 972 l 700 828 l 269 828 l 269 592 l 672 592 l 672 450 l 269 450 l 269 144 l 700 144 l 700 0 l 108 0 l 108 972 z "},"F":{"ha":724,"x_min":108,"x_max":644,"o":"m 108 972 l 644 972 l 644 825 l 269 825 l 269 582 l 631 582 l 631 439 l 269 439 l 269 0 l 108 0 l 108 972 z "},"G":{"ha":1097,"x_min":53,"x_max":1042,"o":"m 571 369 l 571 508 l 1039 508 q 1011 306 1042 401 q 919 138 981 211 q 768 22 858 64 q 561 -21 678 -21 q 358 16 451 -21 q 197 121 265 53 q 90 282 128 189 q 53 486 53 375 q 91 690 53 597 q 198 849 129 782 q 360 952 267 915 q 564 989 454 989 q 813 932 707 989 q 982 774 918 875 l 849 683 q 737 795 808 753 q 564 838 665 838 q 392 794 469 838 q 270 672 315 750 q 225 486 225 593 q 269 301 225 381 q 391 176 314 221 q 564 132 468 132 q 714 164 651 132 q 815 250 776 196 q 869 369 854 304 l 571 369 z "},"Ĝ":{"ha":1097,"x_min":53,"x_max":1042,"o":"m 564 1200 l 422 1072 l 321 1146 l 564 1340 l 807 1146 l 707 1072 l 564 1200 m 571 369 l 571 508 l 1039 508 q 1011 306 1042 401 q 919 138 981 211 q 768 22 858 64 q 561 -21 678 -21 q 358 16 451 -21 q 197 121 265 53 q 90 282 128 189 q 53 486 53 375 q 91 690 53 597 q 198 849 129 782 q 360 952 267 915 q 564 989 454 989 q 813 932 707 989 q 982 774 918 875 l 849 683 q 737 795 808 753 q 564 838 665 838 q 392 794 469 838 q 270 672 315 750 q 225 486 225 593 q 269 301 225 381 q 391 176 314 221 q 564 132 468 132 q 714 164 651 132 q 815 250 776 196 q 869 369 854 304 l 571 369 z "},"Ğ":{"ha":1097,"x_min":53,"x_max":1042,"o":"m 342 1271 l 456 1271 q 480 1208 456 1240 q 564 1175 504 1175 q 649 1208 625 1175 q 672 1271 672 1240 l 788 1271 q 762 1174 788 1219 q 687 1101 736 1129 q 564 1072 638 1072 q 442 1101 492 1072 q 367 1174 392 1129 q 342 1271 342 1219 m 571 369 l 571 508 l 1039 508 q 1011 306 1042 401 q 919 138 981 211 q 768 22 858 64 q 561 -21 678 -21 q 358 16 451 -21 q 197 121 265 53 q 90 282 128 189 q 53 486 53 375 q 91 690 53 597 q 198 849 129 782 q 360 952 267 915 q 564 989 454 989 q 813 932 707 989 q 982 774 918 875 l 849 683 q 737 795 808 753 q 564 838 665 838 q 392 794 469 838 q 270 672 315 750 q 225 486 225 593 q 269 301 225 381 q 391 176 314 221 q 564 132 468 132 q 714 164 651 132 q 815 250 776 196 q 869 369 854 304 l 571 369 z "},"Ġ":{"ha":1097,"x_min":53,"x_max":1042,"o":"m 469 1164 q 497 1229 469 1203 q 564 1256 525 1256 q 631 1229 604 1256 q 658 1164 658 1203 q 631 1099 658 1125 q 564 1072 604 1072 q 497 1099 525 1072 q 469 1164 469 1125 m 571 369 l 571 508 l 1039 508 q 1011 306 1042 401 q 919 138 981 211 q 768 22 858 64 q 561 -21 678 -21 q 358 16 451 -21 q 197 121 265 53 q 90 282 128 189 q 53 486 53 375 q 91 690 53 597 q 198 849 129 782 q 360 952 267 915 q 564 989 454 989 q 813 932 707 989 q 982 774 918 875 l 849 683 q 737 795 808 753 q 564 838 665 838 q 392 794 469 838 q 270 672 315 750 q 225 486 225 593 q 269 301 225 381 q 391 176 314 221 q 564 132 468 132 q 714 164 651 132 q 815 250 776 196 q 869 369 854 304 l 571 369 z "},"Ģ":{"ha":1097,"x_min":53,"x_max":1042,"o":"m 571 369 l 571 508 l 1039 508 q 1011 306 1042 401 q 919 138 981 211 q 768 22 858 64 q 561 -21 678 -21 q 358 16 451 -21 q 197 121 265 53 q 90 282 128 189 q 53 486 53 375 q 91 690 53 597 q 198 849 129 782 q 360 952 267 915 q 564 989 454 989 q 813 932 707 989 q 982 774 918 875 l 849 683 q 737 795 808 753 q 564 838 665 838 q 392 794 469 838 q 270 672 315 750 q 225 486 225 593 q 269 301 225 381 q 391 176 314 221 q 564 132 468 132 q 714 164 651 132 q 815 250 776 196 q 869 369 854 304 l 571 369 m 529 -104 l 681 -147 l 518 -494 l 407 -464 l 529 -104 z "},"H":{"ha":1032,"x_min":108,"x_max":925,"o":"m 108 972 l 272 972 l 272 597 l 761 597 l 761 972 l 925 972 l 925 0 l 761 0 l 761 446 l 272 446 l 272 0 l 108 0 l 108 972 z "},"Ĥ":{"ha":1032,"x_min":108,"x_max":925,"o":"m 517 1200 l 375 1072 l 274 1146 l 517 1340 l 760 1146 l 660 1072 l 517 1200 m 108 972 l 272 972 l 272 597 l 761 597 l 761 972 l 925 972 l 925 0 l 761 0 l 761 446 l 272 446 l 272 0 l 108 0 l 108 972 z "},"I":{"ha":382,"x_min":108,"x_max":274,"o":"m 108 972 l 274 972 l 274 0 l 108 0 l 108 972 z "},"Ì":{"ha":382,"x_min":-11,"x_max":325,"o":"m -11 1285 l 117 1347 l 325 1125 l 239 1076 l -11 1285 m 108 972 l 274 972 l 274 0 l 108 0 l 108 972 z "},"Í":{"ha":382,"x_min":50,"x_max":383,"o":"m 383 1285 l 133 1076 l 50 1125 l 258 1347 l 383 1285 m 108 972 l 274 972 l 274 0 l 108 0 l 108 972 z "},"Î":{"ha":382,"x_min":-53,"x_max":433,"o":"m 190 1200 l 49 1072 l -53 1146 l 190 1340 l 433 1146 l 333 1072 l 190 1200 m 108 972 l 274 972 l 274 0 l 108 0 l 108 972 z "},"Ï":{"ha":382,"x_min":-54,"x_max":438,"o":"m 247 1164 q 275 1229 247 1203 q 342 1256 303 1256 q 410 1229 382 1256 q 438 1164 438 1203 q 410 1099 438 1125 q 342 1072 382 1072 q 275 1099 303 1072 q 247 1164 247 1125 m -54 1164 q -27 1229 -54 1203 q 39 1256 0 1256 q 108 1229 79 1256 q 136 1164 136 1203 q 108 1099 136 1125 q 39 1072 79 1072 q -27 1099 0 1072 q -54 1164 -54 1125 m 108 972 l 274 972 l 274 0 l 108 0 l 108 972 z "},"Ĩ":{"ha":382,"x_min":-56,"x_max":439,"o":"m -56 1140 q -1 1226 -44 1192 q 97 1261 42 1261 q 153 1251 131 1261 q 192 1227 175 1240 q 229 1203 210 1214 q 278 1193 249 1193 q 320 1211 300 1193 q 361 1263 340 1229 l 439 1185 q 377 1112 422 1146 q 275 1078 332 1078 q 210 1095 238 1078 q 156 1129 182 1113 q 97 1146 131 1146 q 55 1133 69 1146 q 35 1103 40 1119 q 29 1075 29 1086 l -56 1140 m 108 972 l 274 972 l 274 0 l 108 0 l 108 972 z "},"Ī":{"ha":382,"x_min":-58,"x_max":440,"o":"m -58 1072 l -58 1208 l 440 1208 l 440 1072 l -58 1072 m 108 972 l 274 972 l 274 0 l 108 0 l 108 972 z "},"Ĭ":{"ha":382,"x_min":-32,"x_max":414,"o":"m -32 1271 l 83 1271 q 108 1208 83 1240 q 192 1175 132 1175 q 276 1208 253 1175 q 300 1271 300 1240 l 414 1271 q 389 1174 414 1219 q 315 1101 364 1129 q 192 1072 265 1072 q 69 1101 119 1072 q -6 1174 19 1129 q -32 1271 -32 1219 m 108 972 l 274 972 l 274 0 l 108 0 l 108 972 z "},"Į":{"ha":382,"x_min":17,"x_max":313,"o":"m 267 -169 l 313 -249 q 265 -287 297 -269 q 183 -304 233 -304 q 60 -267 104 -304 q 17 -165 17 -229 q 52 -74 17 -115 q 140 0 88 -33 l 108 0 l 108 972 l 274 972 l 274 0 l 257 0 q 171 -62 204 -25 q 138 -135 138 -99 q 197 -197 138 -197 q 238 -190 222 -197 q 267 -169 253 -183 z "},"İ":{"ha":382,"x_min":96,"x_max":285,"o":"m 96 1164 q 124 1229 96 1203 q 190 1256 151 1256 q 258 1229 231 1256 q 285 1164 285 1203 q 258 1099 285 1125 q 190 1072 231 1072 q 124 1099 151 1072 q 96 1164 96 1125 m 108 972 l 274 972 l 274 0 l 108 0 l 108 972 z "},"J":{"ha":383,"x_min":-183,"x_max":276,"o":"m -96 -122 q 15 -169 -60 -169 q 78 -143 47 -169 q 108 -50 108 -117 l 108 972 l 276 972 l 276 -81 q 204 -260 276 -204 q 21 -317 132 -317 q -101 -291 -44 -317 q -183 -243 -157 -265 l -96 -122 z "},"Ĵ":{"ha":383,"x_min":-183,"x_max":435,"o":"m 192 1200 l 50 1072 l -51 1146 l 192 1340 l 435 1146 l 333 1072 l 192 1200 m -96 -122 q 15 -169 -60 -169 q 78 -143 47 -169 q 108 -50 108 -117 l 108 972 l 276 972 l 276 -81 q 204 -260 276 -204 q 21 -317 132 -317 q -101 -291 -44 -317 q -183 -243 -157 -265 l -96 -122 z "},"K":{"ha":860,"x_min":108,"x_max":856,"o":"m 108 972 l 276 972 l 276 568 l 638 972 l 835 972 l 425 517 l 856 0 l 654 0 l 276 453 l 276 0 l 108 0 l 108 972 z "},"Ķ":{"ha":860,"x_min":108,"x_max":856,"o":"m 108 972 l 276 972 l 276 568 l 638 972 l 835 972 l 425 517 l 856 0 l 654 0 l 276 453 l 276 0 l 108 0 l 108 972 m 453 -83 l 606 -126 l 443 -474 l 331 -443 l 453 -83 z "},"L":{"ha":668,"x_min":108,"x_max":658,"o":"m 108 972 l 272 972 l 272 147 l 658 147 l 658 0 l 108 0 l 108 972 z "},"Ĺ":{"ha":668,"x_min":108,"x_max":658,"o":"m 581 1281 l 331 1072 l 246 1122 l 454 1344 l 581 1281 m 108 972 l 272 972 l 272 147 l 658 147 l 658 0 l 108 0 l 108 972 z "},"Ļ":{"ha":668,"x_min":108,"x_max":658,"o":"m 108 972 l 272 972 l 272 147 l 658 147 l 658 0 l 108 0 l 108 972 m 368 -83 l 519 -126 l 358 -474 l 246 -443 l 368 -83 z "},"Ľ":{"ha":668,"x_min":108,"x_max":658,"o":"m 503 989 l 653 947 l 492 600 l 381 629 l 503 989 m 108 972 l 272 972 l 272 147 l 658 147 l 658 0 l 108 0 l 108 972 z "},"M":{"ha":1169,"x_min":53,"x_max":1118,"o":"m 289 592 l 222 0 l 53 0 l 186 1021 l 585 361 l 985 1021 l 1118 0 l 949 0 l 882 592 l 585 90 l 289 592 z "},"N":{"ha":1086,"x_min":108,"x_max":979,"o":"m 818 972 l 979 972 l 979 -49 l 269 653 l 269 0 l 108 0 l 108 1021 l 818 319 l 818 972 z "},"Ñ":{"ha":1086,"x_min":108,"x_max":979,"o":"m 274 1122 q 328 1209 285 1174 q 428 1244 372 1244 q 483 1234 461 1244 q 523 1210 506 1224 q 559 1187 540 1197 q 607 1176 578 1176 q 649 1194 629 1176 q 690 1246 669 1213 l 768 1168 q 706 1094 751 1129 q 604 1060 661 1060 q 539 1077 567 1060 q 485 1111 511 1094 q 426 1128 460 1128 q 384 1115 399 1128 q 364 1085 369 1101 q 358 1057 358 1068 l 274 1122 m 818 972 l 979 972 l 979 -49 l 269 653 l 269 0 l 108 0 l 108 1021 l 818 319 l 818 972 z "},"Ń":{"ha":1086,"x_min":108,"x_max":979,"o":"m 771 1260 l 521 1051 l 436 1101 l 644 1324 l 771 1260 m 818 972 l 979 972 l 979 -49 l 269 653 l 269 0 l 108 0 l 108 1021 l 818 319 l 818 972 z "},"Ņ":{"ha":1086,"x_min":108,"x_max":979,"o":"m 818 972 l 979 972 l 979 -49 l 269 653 l 269 0 l 108 0 l 108 1021 l 818 319 l 818 972 m 535 -60 l 685 -101 l 524 -449 l 413 -419 l 535 -60 z "},"Ň":{"ha":1086,"x_min":108,"x_max":979,"o":"m 542 1235 l 683 1361 l 785 1288 l 542 1093 l 299 1288 l 400 1361 l 542 1235 m 818 972 l 979 972 l 979 -49 l 269 653 l 269 0 l 108 0 l 108 1021 l 818 319 l 818 972 z "},"O":{"ha":1114,"x_min":53,"x_max":1063,"o":"m 53 486 q 90 687 53 594 q 197 847 128 779 q 357 951 265 914 q 557 989 449 989 q 758 951 665 989 q 919 847 850 914 q 1025 687 988 779 q 1063 486 1063 594 q 1025 285 1063 378 q 919 124 988 193 q 759 17 851 56 q 557 -21 667 -21 q 356 17 447 -21 q 196 124 264 56 q 90 285 128 193 q 53 486 53 378 m 226 486 q 269 308 226 386 q 386 185 311 229 q 557 140 461 140 q 728 185 654 140 q 845 308 803 229 q 888 486 888 386 q 846 665 888 586 q 730 788 804 743 q 557 832 656 832 q 386 788 461 832 q 269 665 311 743 q 226 486 226 586 z "},"Ò":{"ha":1114,"x_min":53,"x_max":1063,"o":"m 375 1285 l 501 1347 l 710 1125 l 625 1076 l 375 1285 m 53 486 q 90 687 53 594 q 197 847 128 779 q 357 951 265 914 q 557 989 449 989 q 758 951 665 989 q 919 847 850 914 q 1025 687 988 779 q 1063 486 1063 594 q 1025 285 1063 378 q 919 124 988 193 q 759 17 851 56 q 557 -21 667 -21 q 356 17 447 -21 q 196 124 264 56 q 90 285 128 193 q 53 486 53 378 m 226 486 q 269 308 226 386 q 386 185 311 229 q 557 140 461 140 q 728 185 654 140 q 845 308 803 229 q 888 486 888 386 q 846 665 888 586 q 730 788 804 743 q 557 832 656 832 q 386 788 461 832 q 269 665 311 743 q 226 486 226 586 z "},"Ó":{"ha":1114,"x_min":53,"x_max":1063,"o":"m 749 1285 l 499 1076 l 414 1125 l 622 1347 l 749 1285 m 53 486 q 90 687 53 594 q 197 847 128 779 q 357 951 265 914 q 557 989 449 989 q 758 951 665 989 q 919 847 850 914 q 1025 687 988 779 q 1063 486 1063 594 q 1025 285 1063 378 q 919 124 988 193 q 759 17 851 56 q 557 -21 667 -21 q 356 17 447 -21 q 196 124 264 56 q 90 285 128 193 q 53 486 53 378 m 226 486 q 269 308 226 386 q 386 185 311 229 q 557 140 461 140 q 728 185 654 140 q 845 308 803 229 q 888 486 888 386 q 846 665 888 586 q 730 788 804 743 q 557 832 656 832 q 386 788 461 832 q 269 665 311 743 q 226 486 226 586 z "},"Ô":{"ha":1114,"x_min":53,"x_max":1063,"o":"m 563 1200 l 421 1072 l 319 1146 l 563 1340 l 806 1146 l 706 1072 l 563 1200 m 53 486 q 90 687 53 594 q 197 847 128 779 q 357 951 265 914 q 557 989 449 989 q 758 951 665 989 q 919 847 850 914 q 1025 687 988 779 q 1063 486 1063 594 q 1025 285 1063 378 q 919 124 988 193 q 759 17 851 56 q 557 -21 667 -21 q 356 17 447 -21 q 196 124 264 56 q 90 285 128 193 q 53 486 53 378 m 226 486 q 269 308 226 386 q 386 185 311 229 q 557 140 461 140 q 728 185 654 140 q 845 308 803 229 q 888 486 888 386 q 846 665 888 586 q 730 788 804 743 q 557 832 656 832 q 386 788 461 832 q 269 665 311 743 q 226 486 226 586 z "},"Õ":{"ha":1114,"x_min":53,"x_max":1063,"o":"m 329 1122 q 384 1209 340 1174 q 483 1244 428 1244 q 539 1234 517 1244 q 578 1210 561 1224 q 615 1187 596 1197 q 663 1176 633 1176 q 705 1194 685 1176 q 746 1246 725 1213 l 824 1168 q 762 1094 807 1129 q 660 1060 717 1060 q 594 1077 622 1060 q 541 1111 567 1094 q 482 1128 515 1128 q 440 1115 454 1128 q 419 1085 425 1101 q 414 1057 414 1068 l 329 1122 m 53 486 q 90 687 53 594 q 197 847 128 779 q 357 951 265 914 q 557 989 449 989 q 758 951 665 989 q 919 847 850 914 q 1025 687 988 779 q 1063 486 1063 594 q 1025 285 1063 378 q 919 124 988 193 q 759 17 851 56 q 557 -21 667 -21 q 356 17 447 -21 q 196 124 264 56 q 90 285 128 193 q 53 486 53 378 m 226 486 q 269 308 226 386 q 386 185 311 229 q 557 140 461 140 q 728 185 654 140 q 845 308 803 229 q 888 486 888 386 q 846 665 888 586 q 730 788 804 743 q 557 832 656 832 q 386 788 461 832 q 269 665 311 743 q 226 486 226 586 z "},"Ö":{"ha":1114,"x_min":53,"x_max":1063,"o":"m 614 1164 q 642 1229 614 1203 q 708 1256 669 1256 q 776 1229 749 1256 q 803 1164 803 1203 q 776 1099 803 1125 q 708 1072 749 1072 q 642 1099 669 1072 q 614 1164 614 1125 m 311 1164 q 340 1229 311 1203 q 407 1256 368 1256 q 474 1229 447 1256 q 501 1164 501 1203 q 474 1099 501 1125 q 407 1072 447 1072 q 340 1099 368 1072 q 311 1164 311 1125 m 53 486 q 90 687 53 594 q 197 847 128 779 q 357 951 265 914 q 557 989 449 989 q 758 951 665 989 q 919 847 850 914 q 1025 687 988 779 q 1063 486 1063 594 q 1025 285 1063 378 q 919 124 988 193 q 759 17 851 56 q 557 -21 667 -21 q 356 17 447 -21 q 196 124 264 56 q 90 285 128 193 q 53 486 53 378 m 226 486 q 269 308 226 386 q 386 185 311 229 q 557 140 461 140 q 728 185 654 140 q 845 308 803 229 q 888 486 888 386 q 846 665 888 586 q 730 788 804 743 q 557 832 656 832 q 386 788 461 832 q 269 665 311 743 q 226 486 226 586 z "},"Ō":{"ha":1114,"x_min":53,"x_max":1063,"o":"m 308 1072 l 308 1208 l 806 1208 l 806 1072 l 308 1072 m 53 486 q 90 687 53 594 q 197 847 128 779 q 357 951 265 914 q 557 989 449 989 q 758 951 665 989 q 919 847 850 914 q 1025 687 988 779 q 1063 486 1063 594 q 1025 285 1063 378 q 919 124 988 193 q 759 17 851 56 q 557 -21 667 -21 q 356 17 447 -21 q 196 124 264 56 q 90 285 128 193 q 53 486 53 378 m 226 486 q 269 308 226 386 q 386 185 311 229 q 557 140 461 140 q 728 185 654 140 q 845 308 803 229 q 888 486 888 386 q 846 665 888 586 q 730 788 804 743 q 557 832 656 832 q 386 788 461 832 q 269 665 311 743 q 226 486 226 586 z "},"Ŏ":{"ha":1114,"x_min":53,"x_max":1063,"o":"m 335 1271 l 449 1271 q 473 1208 449 1240 q 557 1175 497 1175 q 642 1208 618 1175 q 667 1271 667 1240 l 781 1271 q 755 1174 781 1219 q 680 1101 729 1129 q 557 1072 631 1072 q 435 1101 485 1072 q 360 1174 385 1129 q 335 1271 335 1219 m 53 486 q 90 687 53 594 q 197 847 128 779 q 357 951 265 914 q 557 989 449 989 q 758 951 665 989 q 919 847 850 914 q 1025 687 988 779 q 1063 486 1063 594 q 1025 285 1063 378 q 919 124 988 193 q 759 17 851 56 q 557 -21 667 -21 q 356 17 447 -21 q 196 124 264 56 q 90 285 128 193 q 53 486 53 378 m 226 486 q 269 308 226 386 q 386 185 311 229 q 557 140 461 140 q 728 185 654 140 q 845 308 803 229 q 888 486 888 386 q 846 665 888 586 q 730 788 804 743 q 557 832 656 832 q 386 788 461 832 q 269 665 311 743 q 226 486 226 586 z "},"Ő":{"ha":1114,"x_min":53,"x_max":1063,"o":"m 438 1074 l 343 1101 l 493 1368 l 629 1335 l 438 1074 m 678 1074 l 585 1101 l 733 1368 l 872 1335 l 678 1074 m 53 486 q 90 687 53 594 q 197 847 128 779 q 357 951 265 914 q 557 989 449 989 q 758 951 665 989 q 919 847 850 914 q 1025 687 988 779 q 1063 486 1063 594 q 1025 285 1063 378 q 919 124 988 193 q 759 17 851 56 q 557 -21 667 -21 q 356 17 447 -21 q 196 124 264 56 q 90 285 128 193 q 53 486 53 378 m 226 486 q 269 308 226 386 q 386 185 311 229 q 557 140 461 140 q 728 185 654 140 q 845 308 803 229 q 888 486 888 386 q 846 665 888 586 q 730 788 804 743 q 557 832 656 832 q 386 788 461 832 q 269 665 311 743 q 226 486 226 586 z "},"P":{"ha":803,"x_min":108,"x_max":750,"o":"m 108 972 l 401 972 q 586 935 508 972 q 707 831 664 899 q 750 669 750 763 q 656 449 750 531 q 401 368 561 368 l 272 368 l 272 0 l 108 0 l 108 972 m 401 828 l 272 828 l 272 513 l 401 513 q 538 552 486 513 q 589 669 589 592 q 538 788 589 747 q 401 828 486 828 z "},"Q":{"ha":1138,"x_min":53,"x_max":1140,"o":"m 53 486 q 91 687 53 594 q 198 847 129 779 q 359 951 267 914 q 560 989 451 989 q 760 951 668 989 q 920 847 853 914 q 1025 687 988 779 q 1063 486 1063 594 q 1035 313 1063 394 q 960 168 1008 232 l 1140 -7 l 949 -7 l 864 75 q 725 4 803 29 q 560 -21 647 -21 q 358 17 450 -21 q 197 124 265 56 q 90 285 128 193 q 53 486 53 378 m 226 486 q 271 303 226 383 q 392 178 315 224 q 565 133 469 133 q 751 186 669 133 l 514 417 l 703 417 l 844 279 q 885 369 871 319 q 899 475 899 419 q 856 656 899 575 q 737 785 813 738 q 560 832 661 832 q 388 788 464 832 q 269 665 313 743 q 226 486 226 586 z "},"R":{"ha":825,"x_min":108,"x_max":817,"o":"m 108 972 l 408 972 q 594 935 515 972 q 715 829 672 897 q 758 669 758 761 q 701 490 758 564 q 542 386 643 415 l 817 0 l 618 0 l 374 368 l 272 368 l 272 0 l 108 0 l 108 972 m 401 829 l 272 829 l 272 504 l 401 504 q 538 547 486 504 q 589 667 589 589 q 538 787 589 744 q 401 829 486 829 z "},"Ŕ":{"ha":825,"x_min":108,"x_max":817,"o":"m 599 1281 l 349 1072 l 264 1122 l 472 1344 l 599 1281 m 108 972 l 408 972 q 594 935 515 972 q 715 829 672 897 q 758 669 758 761 q 701 490 758 564 q 542 386 643 415 l 817 0 l 618 0 l 374 368 l 272 368 l 272 0 l 108 0 l 108 972 m 401 829 l 272 829 l 272 504 l 401 504 q 538 547 486 504 q 589 667 589 589 q 538 787 589 744 q 401 829 486 829 z "},"Ŗ":{"ha":825,"x_min":108,"x_max":817,"o":"m 108 972 l 408 972 q 594 935 515 972 q 715 829 672 897 q 758 669 758 761 q 701 490 758 564 q 542 386 643 415 l 817 0 l 618 0 l 374 368 l 272 368 l 272 0 l 108 0 l 108 972 m 401 829 l 272 829 l 272 504 l 401 504 q 538 547 486 504 q 589 667 589 589 q 538 787 589 744 q 401 829 486 829 m 447 -83 l 599 -126 l 438 -474 l 325 -443 l 447 -83 z "},"Ř":{"ha":825,"x_min":108,"x_max":817,"o":"m 386 1214 l 529 1340 l 629 1267 l 386 1072 l 143 1267 l 244 1340 l 386 1214 m 108 972 l 408 972 q 594 935 515 972 q 715 829 672 897 q 758 669 758 761 q 701 490 758 564 q 542 386 643 415 l 817 0 l 618 0 l 374 368 l 272 368 l 272 0 l 108 0 l 108 972 m 401 829 l 272 829 l 272 504 l 401 504 q 538 547 486 504 q 589 667 589 589 q 538 787 589 744 q 401 829 486 829 z "},"Ȓ":{"ha":825,"x_min":108,"x_max":817,"o":"m 188 1072 q 213 1169 188 1124 q 289 1242 239 1214 q 411 1271 339 1271 q 534 1242 485 1271 q 608 1169 583 1214 q 633 1072 633 1124 l 519 1072 q 496 1136 519 1104 q 411 1168 472 1168 q 327 1136 351 1168 q 303 1072 303 1104 l 188 1072 m 108 972 l 408 972 q 594 935 515 972 q 715 829 672 897 q 758 669 758 761 q 701 490 758 564 q 542 386 643 415 l 817 0 l 618 0 l 374 368 l 272 368 l 272 0 l 108 0 l 108 972 m 401 829 l 272 829 l 272 504 l 401 504 q 538 547 486 504 q 589 667 589 589 q 538 787 589 744 q 401 829 486 829 z "},"S":{"ha":803,"x_min":50,"x_max":746,"o":"m 172 314 q 280 178 219 229 q 422 126 340 126 q 531 162 490 126 q 572 256 572 197 q 546 342 572 310 q 473 398 519 375 q 365 443 426 421 q 285 476 329 456 q 200 530 240 497 q 133 611 160 563 q 107 728 107 660 q 147 865 107 806 q 256 956 188 924 q 413 989 325 989 q 563 958 499 989 q 670 881 626 928 q 739 782 714 833 l 606 707 q 529 801 575 760 q 410 843 483 843 q 310 811 342 843 q 278 739 278 779 q 329 642 278 682 q 499 561 381 601 q 614 506 557 542 q 708 412 671 469 q 746 269 746 354 q 699 114 746 179 q 579 14 653 49 q 422 -21 506 -21 q 265 13 338 -21 q 137 103 192 47 q 50 228 82 160 l 172 314 z "},"Ś":{"ha":803,"x_min":53,"x_max":746,"o":"m 660 1281 l 410 1072 l 325 1122 l 533 1344 l 660 1281 m 178 328 q 282 181 224 233 q 425 128 340 128 q 535 163 499 128 q 572 260 572 197 q 541 349 572 314 q 460 406 510 383 q 356 450 411 429 q 276 485 319 464 q 193 540 232 507 q 129 622 154 574 q 104 735 104 669 q 144 869 104 813 q 253 958 185 926 q 410 989 322 989 q 564 957 499 989 q 671 877 629 925 q 732 779 713 829 l 604 700 q 530 801 574 758 q 415 843 486 843 q 313 811 351 843 q 275 726 275 779 q 306 656 275 685 q 389 604 338 626 q 499 560 440 582 q 614 503 557 539 q 708 411 671 468 q 746 267 746 354 q 660 56 746 132 q 419 -21 575 -21 q 197 53 294 -21 q 53 246 99 126 l 178 328 z "},"Ŝ":{"ha":803,"x_min":53,"x_max":746,"o":"m 410 1200 l 268 1072 l 167 1146 l 410 1340 l 653 1146 l 553 1072 l 410 1200 m 178 328 q 282 181 224 233 q 425 128 340 128 q 535 163 499 128 q 572 260 572 197 q 541 349 572 314 q 460 406 510 383 q 356 450 411 429 q 276 485 319 464 q 193 540 232 507 q 129 622 154 574 q 104 735 104 669 q 144 869 104 813 q 253 958 185 926 q 410 989 322 989 q 564 957 499 989 q 671 877 629 925 q 732 779 713 829 l 604 700 q 530 801 574 758 q 415 843 486 843 q 313 811 351 843 q 275 726 275 779 q 306 656 275 685 q 389 604 338 626 q 499 560 440 582 q 614 503 557 539 q 708 411 671 468 q 746 267 746 354 q 660 56 746 132 q 419 -21 575 -21 q 197 53 294 -21 q 53 246 99 126 l 178 328 z "},"Ş":{"ha":803,"x_min":53,"x_max":746,"o":"m 178 328 q 282 181 224 233 q 425 128 340 128 q 535 163 499 128 q 572 260 572 197 q 541 349 572 314 q 460 406 510 383 q 356 450 411 429 q 276 483 319 464 q 193 534 232 503 q 129 613 154 565 q 104 729 104 660 q 142 865 104 807 q 248 956 179 924 q 410 989 317 989 q 562 959 499 989 q 667 882 625 929 q 732 779 708 835 l 604 700 q 524 801 574 758 q 404 843 475 843 q 308 811 340 843 q 275 726 275 779 q 306 656 275 685 q 389 604 338 626 q 499 560 440 582 q 614 503 557 539 q 708 411 671 468 q 746 267 746 354 q 668 67 746 142 q 460 -19 590 -8 l 422 -81 q 436 -78 429 -79 q 450 -78 443 -78 q 524 -107 488 -78 q 561 -194 561 -136 q 538 -270 561 -239 q 477 -317 514 -301 q 400 -333 440 -333 q 317 -322 353 -333 q 244 -279 282 -310 l 299 -208 q 389 -242 340 -242 q 461 -189 461 -242 q 441 -152 461 -162 q 386 -142 421 -142 q 348 -146 376 -142 q 292 -165 319 -150 l 363 -17 q 175 69 257 -1 q 53 246 93 140 l 178 328 z "},"Š":{"ha":803,"x_min":53,"x_max":746,"o":"m 410 1214 l 553 1340 l 653 1267 l 410 1072 l 167 1267 l 268 1340 l 410 1214 m 178 328 q 282 181 224 233 q 425 128 340 128 q 535 163 499 128 q 572 260 572 197 q 541 349 572 314 q 460 406 510 383 q 356 450 411 429 q 276 485 319 464 q 193 540 232 507 q 129 622 154 574 q 104 735 104 669 q 144 869 104 813 q 253 958 185 926 q 410 989 322 989 q 564 957 499 989 q 671 877 629 925 q 732 779 713 829 l 604 700 q 530 801 574 758 q 415 843 486 843 q 313 811 351 843 q 275 726 275 779 q 306 656 275 685 q 389 604 338 626 q 499 560 440 582 q 614 503 557 539 q 708 411 671 468 q 746 267 746 354 q 660 56 746 132 q 419 -21 575 -21 q 197 53 294 -21 q 53 246 99 126 l 178 328 z "},"Ș":{"ha":803,"x_min":53,"x_max":746,"o":"m 178 328 q 282 181 224 233 q 425 128 340 128 q 535 163 499 128 q 572 260 572 197 q 541 349 572 314 q 460 406 510 383 q 356 450 411 429 q 276 485 319 464 q 193 540 232 507 q 129 622 154 574 q 104 735 104 669 q 144 869 104 813 q 253 958 185 926 q 410 989 322 989 q 564 957 499 989 q 671 877 629 925 q 732 779 713 829 l 604 700 q 530 801 574 758 q 415 843 486 843 q 313 811 351 843 q 275 726 275 779 q 306 656 275 685 q 389 604 338 626 q 499 560 440 582 q 614 503 557 539 q 708 411 671 468 q 746 267 746 354 q 660 56 746 132 q 419 -21 575 -21 q 197 53 294 -21 q 53 246 99 126 l 178 328 m 390 -97 l 542 -140 l 381 -487 l 268 -457 l 390 -97 z "},"T":{"ha":699,"x_min":11,"x_max":689,"o":"m 11 821 l 11 972 l 689 972 l 689 821 l 432 821 l 432 0 l 267 0 l 267 821 l 11 821 z "},"Ţ":{"ha":699,"x_min":11,"x_max":689,"o":"m 293 14 l 406 13 l 304 -149 q 318 -147 311 -147 q 332 -147 325 -147 q 406 -176 369 -147 q 443 -262 443 -204 q 419 -338 443 -307 q 358 -385 396 -369 q 281 -401 321 -401 q 199 -390 233 -401 q 126 -347 164 -378 l 181 -276 q 269 -311 224 -311 q 342 -258 342 -311 q 322 -221 342 -232 q 267 -210 301 -210 q 229 -214 257 -210 q 174 -233 201 -218 l 293 14 m 11 821 l 11 972 l 689 972 l 689 821 l 432 821 l 432 0 l 267 0 l 267 821 l 11 821 z "},"Ť":{"ha":699,"x_min":11,"x_max":689,"o":"m 350 1214 l 492 1340 l 593 1267 l 350 1072 l 107 1267 l 208 1340 l 350 1214 m 11 821 l 11 972 l 689 972 l 689 821 l 432 821 l 432 0 l 267 0 l 267 821 l 11 821 z "},"Ț":{"ha":699,"x_min":11,"x_max":689,"o":"m 11 821 l 11 972 l 689 972 l 689 821 l 432 821 l 432 0 l 267 0 l 267 821 l 11 821 m 336 -83 l 486 -126 l 325 -474 l 214 -443 l 336 -83 z "},"U":{"ha":911,"x_min":101,"x_max":810,"o":"m 101 972 l 265 972 l 265 326 q 314 182 265 238 q 456 126 363 126 q 598 182 550 126 q 646 326 646 238 l 646 972 l 810 972 l 810 319 q 765 135 810 213 q 640 17 719 58 q 456 -25 560 -25 q 272 17 351 -25 q 147 135 192 58 q 101 319 101 213 l 101 972 z "},"Ù":{"ha":911,"x_min":101,"x_max":810,"o":"m 257 1281 l 385 1344 l 593 1122 l 507 1072 l 257 1281 m 101 972 l 265 972 l 265 326 q 314 182 265 238 q 456 126 363 126 q 598 182 550 126 q 646 326 646 238 l 646 972 l 810 972 l 810 319 q 765 135 810 213 q 640 17 719 58 q 456 -25 560 -25 q 272 17 351 -25 q 147 135 192 58 q 101 319 101 213 l 101 972 z "},"Ú":{"ha":911,"x_min":101,"x_max":810,"o":"m 654 1281 l 404 1072 l 318 1122 l 526 1344 l 654 1281 m 101 972 l 265 972 l 265 326 q 314 182 265 238 q 456 126 363 126 q 598 182 550 126 q 646 326 646 238 l 646 972 l 810 972 l 810 319 q 765 135 810 213 q 640 17 719 58 q 456 -25 560 -25 q 272 17 351 -25 q 147 135 192 58 q 101 319 101 213 l 101 972 z "},"Û":{"ha":911,"x_min":101,"x_max":810,"o":"m 456 1200 l 313 1072 l 213 1146 l 456 1340 l 699 1146 l 599 1072 l 456 1200 m 101 972 l 265 972 l 265 326 q 314 182 265 238 q 456 126 363 126 q 598 182 550 126 q 646 326 646 238 l 646 972 l 810 972 l 810 319 q 765 135 810 213 q 640 17 719 58 q 456 -25 560 -25 q 272 17 351 -25 q 147 135 192 58 q 101 319 101 213 l 101 972 z "},"Ü":{"ha":911,"x_min":101,"x_max":810,"o":"m 522 1164 q 550 1229 522 1203 q 617 1256 578 1256 q 684 1229 657 1256 q 711 1164 711 1203 q 684 1099 711 1125 q 617 1072 657 1072 q 550 1099 578 1072 q 522 1164 522 1125 m 200 1164 q 228 1229 200 1203 q 294 1256 256 1256 q 362 1229 335 1256 q 389 1164 389 1203 q 362 1099 389 1125 q 294 1072 335 1072 q 228 1099 256 1072 q 200 1164 200 1125 m 101 972 l 265 972 l 265 326 q 314 182 265 238 q 456 126 363 126 q 598 182 550 126 q 646 326 646 238 l 646 972 l 810 972 l 810 319 q 765 135 810 213 q 640 17 719 58 q 456 -25 560 -25 q 272 17 351 -25 q 147 135 192 58 q 101 319 101 213 l 101 972 z "},"Ũ":{"ha":911,"x_min":101,"x_max":810,"o":"m 208 1140 q 263 1226 219 1192 q 363 1261 307 1261 q 418 1251 396 1261 q 458 1227 440 1240 q 494 1203 475 1214 q 542 1193 513 1193 q 584 1211 564 1193 q 625 1263 604 1229 l 703 1185 q 641 1112 686 1146 q 539 1078 596 1078 q 474 1095 501 1078 q 420 1129 446 1113 q 361 1146 394 1146 q 319 1133 333 1146 q 299 1103 304 1119 q 293 1075 293 1086 l 208 1140 m 101 972 l 265 972 l 265 326 q 314 182 265 238 q 456 126 363 126 q 598 182 550 126 q 646 326 646 238 l 646 972 l 810 972 l 810 319 q 765 135 810 213 q 640 17 719 58 q 456 -25 560 -25 q 272 17 351 -25 q 147 135 192 58 q 101 319 101 213 l 101 972 z "},"Ū":{"ha":911,"x_min":101,"x_max":810,"o":"m 207 1072 l 207 1208 l 706 1208 l 706 1072 l 207 1072 m 101 972 l 265 972 l 265 326 q 314 182 265 238 q 456 126 363 126 q 598 182 550 126 q 646 326 646 238 l 646 972 l 810 972 l 810 319 q 765 135 810 213 q 640 17 719 58 q 456 -25 560 -25 q 272 17 351 -25 q 147 135 192 58 q 101 319 101 213 l 101 972 z "},"Ŭ":{"ha":911,"x_min":101,"x_max":810,"o":"m 232 1271 l 347 1271 q 372 1208 347 1240 q 456 1175 396 1175 q 540 1208 517 1175 q 564 1271 564 1240 l 679 1271 q 653 1174 679 1219 q 578 1101 628 1129 q 456 1072 529 1072 q 333 1101 383 1072 q 258 1174 283 1129 q 232 1271 232 1219 m 101 972 l 265 972 l 265 326 q 314 182 265 238 q 456 126 363 126 q 598 182 550 126 q 646 326 646 238 l 646 972 l 810 972 l 810 319 q 765 135 810 213 q 640 17 719 58 q 456 -25 560 -25 q 272 17 351 -25 q 147 135 192 58 q 101 319 101 213 l 101 972 z "},"Ů":{"ha":911,"x_min":101,"x_max":810,"o":"m 301 1221 q 348 1328 301 1288 q 456 1368 394 1368 q 563 1328 517 1368 q 610 1221 610 1288 q 563 1113 610 1154 q 456 1072 517 1072 q 348 1113 394 1072 q 301 1221 301 1154 m 388 1221 q 408 1169 388 1188 q 456 1150 429 1150 q 503 1169 482 1150 q 524 1221 524 1188 q 503 1273 524 1254 q 456 1292 482 1292 q 408 1273 429 1292 q 388 1221 388 1254 m 101 972 l 265 972 l 265 326 q 314 182 265 238 q 456 126 363 126 q 598 182 550 126 q 646 326 646 238 l 646 972 l 810 972 l 810 319 q 765 135 810 213 q 640 17 719 58 q 456 -25 560 -25 q 272 17 351 -25 q 147 135 192 58 q 101 319 101 213 l 101 972 z "},"Ű":{"ha":911,"x_min":101,"x_max":810,"o":"m 335 1074 l 240 1101 l 390 1368 l 526 1335 l 335 1074 m 575 1074 l 482 1101 l 631 1368 l 769 1335 l 575 1074 m 101 972 l 265 972 l 265 326 q 314 182 265 238 q 456 126 363 126 q 598 182 550 126 q 646 326 646 238 l 646 972 l 810 972 l 810 319 q 765 135 810 213 q 640 17 719 58 q 456 -25 560 -25 q 272 17 351 -25 q 147 135 192 58 q 101 319 101 213 l 101 972 z "},"Ų":{"ha":911,"x_min":101,"x_max":810,"o":"m 519 -206 l 565 -286 q 518 -324 550 -307 q 436 -342 486 -342 q 313 -304 357 -342 q 269 -203 269 -267 q 296 -124 269 -160 q 365 -57 322 -87 q 456 -1 407 -26 l 513 -36 q 424 -99 458 -61 q 390 -172 390 -136 q 406 -219 390 -206 q 450 -233 421 -233 q 490 -226 475 -233 q 519 -206 506 -219 m 101 972 l 265 972 l 265 326 q 314 182 265 238 q 456 126 363 126 q 598 182 550 126 q 646 326 646 238 l 646 972 l 810 972 l 810 319 q 765 135 810 213 q 640 17 719 58 q 456 -25 560 -25 q 272 17 351 -25 q 147 135 192 58 q 101 319 101 213 l 101 972 z "},"V":{"ha":958,"x_min":4,"x_max":954,"o":"m 479 289 l 765 972 l 954 972 l 479 -54 l 4 972 l 193 972 l 479 289 z "},"W":{"ha":1417,"x_min":11,"x_max":1406,"o":"m 988 321 l 1215 972 l 1406 972 l 1008 -51 l 708 635 l 408 -51 l 11 972 l 201 972 l 432 321 l 708 1021 l 988 321 z "},"Ŵ":{"ha":1417,"x_min":11,"x_max":1406,"o":"m 708 1231 l 565 1104 l 465 1176 l 708 1371 l 951 1176 l 851 1104 l 708 1231 m 989 304 l 1215 972 l 1406 972 l 1008 -51 l 708 635 l 408 -51 l 11 972 l 201 972 l 428 304 l 708 1021 l 989 304 z "},"Ẁ":{"ha":1417,"x_min":11,"x_max":1406,"o":"m 708 1104 l 458 1313 l 585 1375 l 793 1153 l 708 1104 m 988 321 l 1215 972 l 1406 972 l 1008 -51 l 708 635 l 408 -51 l 11 972 l 201 972 l 432 321 l 708 1021 l 988 321 z "},"Ẃ":{"ha":1417,"x_min":11,"x_max":1406,"o":"m 708 1104 l 624 1151 l 832 1374 l 958 1313 l 708 1104 m 988 321 l 1215 972 l 1406 972 l 1008 -51 l 708 635 l 408 -51 l 11 972 l 201 972 l 432 321 l 708 1021 l 988 321 z "},"Ẅ":{"ha":1417,"x_min":11,"x_max":1406,"o":"m 765 1196 q 793 1261 765 1235 q 860 1288 821 1288 q 927 1261 900 1288 q 954 1196 954 1235 q 927 1131 954 1157 q 860 1104 900 1104 q 793 1131 821 1104 q 765 1196 765 1157 m 463 1196 q 491 1261 463 1235 q 558 1288 519 1288 q 626 1261 599 1288 q 653 1196 653 1235 q 626 1131 653 1157 q 558 1104 599 1104 q 491 1131 519 1104 q 463 1196 463 1157 m 988 321 l 1215 972 l 1406 972 l 1008 -51 l 708 635 l 408 -51 l 11 972 l 201 972 l 432 321 l 708 1021 l 988 321 z "},"Ẇ":{"ha":1417,"x_min":11,"x_max":1406,"o":"m 614 1196 q 642 1261 614 1235 q 708 1288 669 1288 q 776 1261 749 1288 q 803 1196 803 1235 q 776 1131 803 1157 q 708 1104 749 1104 q 642 1131 669 1104 q 614 1196 614 1157 m 988 321 l 1215 972 l 1406 972 l 1008 -51 l 708 635 l 408 -51 l 11 972 l 201 972 l 432 321 l 708 1021 l 988 321 z "},"Ẉ":{"ha":1417,"x_min":11,"x_max":1406,"o":"m 614 -226 q 642 -161 614 -187 q 708 -135 669 -135 q 776 -161 749 -135 q 803 -226 803 -187 q 776 -292 803 -265 q 708 -318 749 -318 q 642 -292 669 -318 q 614 -226 614 -265 m 988 321 l 1215 972 l 1406 972 l 1008 -51 l 708 635 l 408 -51 l 11 972 l 201 972 l 432 321 l 708 1021 l 988 321 z "},"X":{"ha":843,"x_min":11,"x_max":833,"o":"m 613 972 l 813 972 l 518 506 l 833 0 l 633 0 l 425 374 l 210 0 l 11 0 l 333 506 l 46 972 l 244 972 l 426 643 l 613 972 z "},"Y":{"ha":833,"x_min":4,"x_max":831,"o":"m 643 972 l 831 972 l 501 410 l 501 0 l 333 0 l 333 408 l 4 972 l 192 972 l 417 556 l 643 972 z "},"Ý":{"ha":833,"x_min":4,"x_max":831,"o":"m 614 1281 l 364 1072 l 281 1122 l 489 1344 l 614 1281 m 643 972 l 831 972 l 501 410 l 501 0 l 333 0 l 333 408 l 4 972 l 192 972 l 417 556 l 643 972 z "},"Ŷ":{"ha":833,"x_min":4,"x_max":831,"o":"m 417 1200 l 275 1072 l 175 1146 l 417 1340 l 661 1146 l 560 1072 l 417 1200 m 643 972 l 831 972 l 501 410 l 501 0 l 333 0 l 333 408 l 4 972 l 192 972 l 417 556 l 643 972 z "},"Ÿ":{"ha":833,"x_min":4,"x_max":831,"o":"m 161 1171 q 189 1235 161 1210 q 256 1261 217 1261 q 324 1235 296 1261 q 351 1171 351 1210 q 324 1106 351 1132 q 256 1079 296 1079 q 189 1106 217 1079 q 161 1171 161 1132 m 485 1171 q 512 1235 485 1210 q 578 1261 539 1261 q 646 1235 618 1261 q 674 1171 674 1210 q 646 1106 674 1132 q 578 1079 618 1079 q 512 1106 539 1079 q 485 1171 485 1132 m 643 972 l 831 972 l 501 410 l 501 0 l 333 0 l 333 408 l 4 972 l 192 972 l 417 556 l 643 972 z "},"Ỳ":{"ha":833,"x_min":4,"x_max":831,"o":"m 417 1072 l 167 1281 l 293 1343 l 501 1121 l 417 1072 m 643 972 l 831 972 l 501 410 l 501 0 l 333 0 l 333 408 l 4 972 l 192 972 l 417 556 l 643 972 z "},"Z":{"ha":799,"x_min":18,"x_max":774,"o":"m 61 821 l 61 972 l 774 972 l 285 147 l 738 147 l 738 0 l 18 0 l 506 821 l 61 821 z "},"Ź":{"ha":799,"x_min":18,"x_max":774,"o":"m 647 1281 l 397 1072 l 311 1122 l 519 1344 l 647 1281 m 61 821 l 61 972 l 774 972 l 285 147 l 738 147 l 738 0 l 18 0 l 506 821 l 61 821 z "},"Ż":{"ha":799,"x_min":18,"x_max":774,"o":"m 322 1164 q 350 1229 322 1203 q 417 1256 378 1256 q 485 1229 457 1256 q 513 1164 513 1203 q 485 1099 513 1125 q 417 1072 457 1072 q 350 1099 378 1072 q 322 1164 322 1125 m 61 821 l 61 972 l 774 972 l 285 147 l 738 147 l 738 0 l 18 0 l 506 821 l 61 821 z "},"Ž":{"ha":799,"x_min":18,"x_max":774,"o":"m 417 1214 l 560 1340 l 661 1267 l 417 1072 l 175 1267 l 275 1340 l 417 1214 m 61 821 l 61 972 l 774 972 l 285 147 l 738 147 l 738 0 l 18 0 l 506 821 l 61 821 z "},"Æ":{"ha":1403,"x_min":13,"x_max":1306,"o":"m 1306 144 l 1306 0 l 714 0 l 714 258 l 363 258 l 210 0 l 13 0 l 606 972 l 1306 972 l 1306 828 l 885 828 l 885 592 l 1278 592 l 1278 450 l 885 450 l 885 144 l 1306 144 m 454 411 l 714 411 l 714 849 l 454 411 z "},"Ð":{"ha":974,"x_min":7,"x_max":922,"o":"m 422 0 l 108 0 l 108 426 l 7 426 l 7 544 l 108 544 l 108 972 l 422 972 q 683 912 571 972 q 859 742 796 851 q 922 486 922 633 q 859 231 922 340 q 683 60 796 121 q 422 0 571 0 m 451 426 l 276 426 l 276 154 l 418 154 q 590 192 514 154 q 710 303 667 229 q 754 486 754 376 q 710 669 754 596 q 590 781 667 743 q 418 818 514 818 l 276 818 l 276 544 l 451 544 l 451 426 z "},"Ø":{"ha":1097,"x_min":53,"x_max":1063,"o":"m 53 486 q 90 687 53 594 q 196 847 128 779 q 356 951 264 914 q 557 989 449 989 q 711 967 639 989 q 844 907 783 946 l 961 1044 l 1050 983 l 926 839 q 1026 682 990 772 q 1063 486 1063 592 q 1025 285 1063 378 q 919 124 988 193 q 758 17 850 56 q 557 -21 665 -21 q 400 1 474 -21 q 267 65 326 24 l 149 -72 l 61 -11 l 186 135 q 88 292 124 201 q 53 486 53 382 m 226 486 q 244 365 226 421 q 296 264 263 308 l 738 782 q 557 832 658 832 q 386 788 461 832 q 269 665 311 743 q 226 486 226 588 m 888 486 q 869 609 888 553 q 817 710 850 665 l 374 192 q 557 140 454 140 q 728 185 654 140 q 845 307 803 229 q 888 486 888 385 z "},"Þ":{"ha":797,"x_min":111,"x_max":747,"o":"m 111 972 l 264 972 l 264 789 l 397 789 q 583 752 504 789 q 704 648 661 715 q 747 488 747 581 q 704 327 747 394 q 583 224 661 260 q 397 188 504 188 l 264 188 l 264 0 l 111 0 l 111 972 m 397 647 l 264 647 l 264 328 l 397 328 q 540 367 486 328 q 593 488 593 407 q 540 608 593 569 q 397 647 486 647 z "},"Đ":{"ha":974,"x_min":7,"x_max":922,"o":"m 422 0 l 108 0 l 108 424 l 7 424 l 7 542 l 108 542 l 108 972 l 422 972 q 683 912 571 972 q 859 742 796 851 q 922 486 922 633 q 859 231 922 340 q 683 60 796 121 q 422 0 571 0 m 449 424 l 276 424 l 276 154 l 418 154 q 590 192 514 154 q 710 303 667 229 q 754 486 754 376 q 710 669 754 596 q 590 781 667 743 q 418 818 514 818 l 276 818 l 276 542 l 449 542 l 449 424 z "},"Ħ":{"ha":1032,"x_min":7,"x_max":1026,"o":"m 7 749 l 7 869 l 108 869 l 108 972 l 272 972 l 272 869 l 761 869 l 761 972 l 925 972 l 925 869 l 1026 869 l 1026 749 l 925 749 l 925 0 l 761 0 l 761 446 l 272 446 l 272 0 l 108 0 l 108 749 l 7 749 m 272 597 l 761 597 l 761 749 l 272 749 l 272 597 z "},"Ĳ":{"ha":754,"x_min":108,"x_max":647,"o":"m 276 -122 q 386 -169 313 -169 q 449 -143 418 -169 q 479 -50 479 -117 l 479 972 l 647 972 l 647 -81 q 575 -260 647 -204 q 392 -317 503 -317 q 270 -291 326 -317 q 188 -243 214 -265 l 276 -122 m 108 972 l 274 972 l 274 0 l 108 0 l 108 972 z "},"Ŀ":{"ha":668,"x_min":108,"x_max":658,"o":"m 108 972 l 272 972 l 272 147 l 658 147 l 658 0 l 108 0 l 108 972 m 392 585 q 420 653 392 625 q 490 682 449 682 q 560 653 532 682 q 589 585 589 625 q 560 517 589 546 q 490 488 532 488 q 420 517 449 488 q 392 585 392 546 z "},"Ł":{"ha":671,"x_min":-32,"x_max":658,"o":"m 7 456 l -32 542 l 108 633 l 108 972 l 272 972 l 272 739 l 396 819 l 435 733 l 272 628 l 272 147 l 658 147 l 658 0 l 108 0 l 108 521 l 7 456 z "},"Ŋ":{"ha":1086,"x_min":108,"x_max":979,"o":"m 772 -303 q 628 -242 683 -303 l 699 -125 q 765 -161 726 -161 q 832 -47 832 -161 l 832 89 l 269 653 l 269 0 l 108 0 l 108 1021 l 818 319 l 818 972 l 979 972 l 979 -78 q 925 -243 979 -183 q 772 -303 871 -303 z "},"Œ":{"ha":1368,"x_min":53,"x_max":1292,"o":"m 1292 144 l 1292 0 l 542 0 q 290 61 401 0 q 116 231 179 122 q 53 486 53 340 q 116 741 53 632 q 290 911 179 850 q 542 972 400 972 l 1290 972 l 1290 828 l 860 828 l 860 592 l 1263 592 l 1263 450 l 860 450 l 860 144 l 1292 144 m 558 150 l 699 150 l 699 822 l 558 822 q 312 733 403 822 q 221 486 221 643 q 312 240 221 329 q 558 150 403 150 z "},"Ŧ":{"ha":699,"x_min":11,"x_max":689,"o":"m 116 485 l 116 619 l 585 619 l 585 485 l 116 485 m 11 821 l 11 972 l 689 972 l 689 821 l 432 821 l 432 0 l 267 0 l 267 821 l 11 821 z "},"ẞ":{"ha":1049,"x_min":111,"x_max":994,"o":"m 653 -17 q 492 6 564 -17 q 361 64 419 28 l 417 200 q 520 151 469 169 q 633 133 571 133 q 724 145 682 133 q 793 183 767 157 q 819 253 819 210 q 795 320 819 296 q 735 360 771 344 q 665 390 700 375 q 605 430 629 406 q 581 499 581 454 q 597 558 581 535 q 636 599 613 582 q 683 633 660 617 q 723 669 707 649 q 739 719 739 689 q 699 797 739 761 q 565 832 658 832 q 417 798 482 832 q 315 693 353 764 q 278 513 278 622 l 281 -3 l 111 -3 l 111 528 q 170 783 111 681 q 334 937 229 885 q 578 989 439 989 q 828 925 739 989 q 917 758 917 861 q 894 659 917 699 q 842 594 871 619 q 790 548 813 568 q 767 506 767 528 q 790 470 767 483 q 847 442 813 457 q 915 406 881 428 q 972 347 949 383 q 994 249 994 310 q 952 110 994 169 q 833 17 910 50 q 653 -17 756 -17 z "},"Δ":{"ha":833,"x_min":25,"x_max":807,"o":"m 25 0 l 417 1111 l 807 0 l 25 0 m 219 128 l 614 128 l 417 754 l 219 128 z "},"Ω":{"ha":833,"x_min":92,"x_max":740,"o":"m 92 0 l 92 129 l 213 122 q 126 276 157 193 q 96 440 96 360 q 138 612 96 536 q 253 732 181 688 q 417 776 325 776 q 581 732 508 776 q 694 612 653 688 q 736 440 736 536 q 706 276 736 360 q 619 122 676 193 l 740 129 l 740 0 l 464 0 l 464 122 q 530 199 501 153 q 575 301 558 246 q 592 410 592 356 q 546 556 592 504 q 417 608 500 608 q 287 556 333 608 q 240 410 240 504 q 257 301 240 357 q 303 199 274 246 q 368 122 332 153 l 368 0 l 92 0 z "},"А":{"ha":958,"x_min":4,"x_max":954,"o":"m 769 0 l 658 250 l 300 250 l 189 0 l 4 0 l 479 1026 l 954 0 l 769 0 m 479 697 l 347 389 l 611 389 l 479 697 z "},"Б":{"ha":831,"x_min":111,"x_max":775,"o":"m 111 972 l 701 972 l 701 828 l 278 828 l 278 592 l 444 592 q 613 556 539 592 q 731 453 688 519 q 775 297 775 388 q 731 141 775 208 q 613 37 688 74 q 444 0 539 0 l 111 0 l 111 972 m 424 450 l 278 450 l 278 144 l 424 144 q 558 183 507 144 q 608 297 608 221 q 558 413 608 375 q 424 450 507 450 z "},"В":{"ha":833,"x_min":108,"x_max":768,"o":"m 768 281 q 723 122 768 185 q 599 30 678 60 q 418 0 521 0 l 108 0 l 108 972 l 401 972 q 626 912 540 972 q 713 728 713 851 q 672 603 713 654 q 561 526 632 553 q 710 442 651 503 q 768 281 768 382 m 390 838 l 272 838 l 272 582 l 390 582 q 501 616 458 582 q 544 710 544 650 q 501 804 544 771 q 390 838 458 838 m 272 135 l 408 135 q 546 176 492 135 q 600 297 600 217 q 546 415 600 376 q 408 454 492 454 l 272 454 l 272 135 z "},"Г":{"ha":643,"x_min":111,"x_max":631,"o":"m 111 972 l 631 972 l 631 821 l 276 821 l 276 0 l 111 0 l 111 972 z "},"Ѓ":{"ha":643,"x_min":111,"x_max":631,"o":"m 621 1281 l 371 1072 l 286 1122 l 494 1344 l 621 1281 m 111 972 l 631 972 l 631 821 l 276 821 l 276 0 l 111 0 l 111 972 z "},"Д":{"ha":1151,"x_min":56,"x_max":1090,"o":"m 935 0 l 213 0 l 213 -153 l 56 -153 l 56 147 l 192 147 l 574 1021 l 954 147 l 1090 147 l 1090 -153 l 935 -153 l 935 0 m 574 690 l 369 147 l 778 147 l 574 690 z "},"Е":{"ha":793,"x_min":108,"x_max":700,"o":"m 108 972 l 700 972 l 700 828 l 269 828 l 269 592 l 672 592 l 672 450 l 269 450 l 269 144 l 700 144 l 700 0 l 108 0 l 108 972 z "},"Ѐ":{"ha":793,"x_min":108,"x_max":700,"o":"m 154 1281 l 281 1344 l 489 1122 l 404 1072 l 154 1281 m 108 972 l 700 972 l 700 828 l 269 828 l 269 592 l 672 592 l 672 450 l 269 450 l 269 144 l 700 144 l 700 0 l 108 0 l 108 972 z "},"Ё":{"ha":793,"x_min":108,"x_max":700,"o":"m 460 1164 q 488 1229 460 1203 q 554 1256 515 1256 q 622 1229 594 1256 q 650 1164 650 1203 q 622 1099 650 1125 q 554 1072 594 1072 q 488 1099 515 1072 q 460 1164 460 1125 m 158 1164 q 186 1229 158 1203 q 253 1256 214 1256 q 320 1229 293 1256 q 347 1164 347 1203 q 320 1099 347 1125 q 253 1072 293 1072 q 186 1099 214 1072 q 158 1164 158 1125 m 108 972 l 700 972 l 700 828 l 269 828 l 269 592 l 672 592 l 672 450 l 269 450 l 269 144 l 700 144 l 700 0 l 108 0 l 108 972 z "},"Ж":{"ha":1349,"x_min":4,"x_max":1346,"o":"m 222 972 l 596 556 l 596 972 l 764 972 l 764 557 l 1124 972 l 1325 972 l 911 517 l 1346 0 l 1144 0 l 764 468 l 764 0 l 596 0 l 596 469 l 201 0 l 4 0 l 438 517 l 25 972 l 222 972 z "},"З":{"ha":875,"x_min":76,"x_max":822,"o":"m 457 -17 q 244 24 329 -17 q 118 131 160 64 q 76 278 76 199 l 242 278 q 301 167 247 208 q 454 125 354 125 q 606 165 554 125 q 657 278 657 206 q 590 398 657 356 q 406 440 522 440 l 406 564 q 572 607 515 564 q 629 713 629 650 q 586 810 629 772 q 458 849 543 849 q 324 810 375 849 q 272 714 272 772 l 118 714 q 160 856 118 794 q 278 952 201 917 q 458 988 354 988 q 642 951 567 988 q 756 856 717 915 q 794 725 794 797 q 745 595 794 651 q 611 508 696 539 q 765 419 707 481 q 822 260 822 358 q 728 59 822 135 q 457 -17 633 -17 z "},"И":{"ha":1086,"x_min":108,"x_max":979,"o":"m 269 972 l 269 328 l 979 1021 l 979 0 l 818 0 l 818 644 l 108 -49 l 108 972 l 269 972 z "},"Ѝ":{"ha":1086,"x_min":108,"x_max":979,"o":"m 351 1250 l 478 1313 l 686 1090 l 601 1042 l 351 1250 m 269 972 l 269 328 l 979 1021 l 979 0 l 818 0 l 818 644 l 108 -49 l 108 972 l 269 972 z "},"Й":{"ha":1086,"x_min":108,"x_max":979,"o":"m 357 1264 l 471 1264 q 495 1201 471 1233 q 579 1168 519 1168 q 665 1201 640 1168 q 689 1264 689 1233 l 803 1264 q 777 1167 803 1213 q 702 1094 751 1122 q 579 1065 653 1065 q 457 1094 507 1065 q 382 1167 407 1122 q 357 1264 357 1213 m 269 972 l 269 328 l 979 1021 l 979 0 l 818 0 l 818 644 l 108 -49 l 108 972 l 269 972 z "},"К":{"ha":860,"x_min":108,"x_max":856,"o":"m 108 972 l 276 972 l 276 568 l 638 972 l 835 972 l 425 517 l 856 0 l 654 0 l 276 453 l 276 0 l 108 0 l 108 972 z "},"Ќ":{"ha":860,"x_min":108,"x_max":856,"o":"m 722 1281 l 472 1072 l 386 1122 l 594 1344 l 722 1281 m 108 972 l 276 972 l 276 568 l 638 972 l 835 972 l 425 517 l 856 0 l 654 0 l 276 453 l 276 0 l 108 0 l 108 972 z "},"Л":{"ha":975,"x_min":14,"x_max":865,"o":"m 865 972 l 865 0 l 699 0 l 699 821 l 311 821 l 311 364 q 239 100 311 200 q 14 0 167 0 l 14 140 q 115 207 79 140 q 150 375 150 274 l 150 972 l 865 972 z "},"М":{"ha":1169,"x_min":53,"x_max":1118,"o":"m 289 592 l 222 0 l 53 0 l 186 1021 l 585 361 l 985 1021 l 1118 0 l 949 0 l 882 592 l 585 90 l 289 592 z "},"Н":{"ha":1032,"x_min":108,"x_max":925,"o":"m 108 972 l 272 972 l 272 597 l 761 597 l 761 972 l 925 972 l 925 0 l 761 0 l 761 446 l 272 446 l 272 0 l 108 0 l 108 972 z "},"О":{"ha":1114,"x_min":53,"x_max":1063,"o":"m 53 486 q 90 687 53 594 q 197 847 128 779 q 357 951 265 914 q 557 989 449 989 q 758 951 665 989 q 919 847 850 914 q 1025 687 988 779 q 1063 486 1063 594 q 1025 285 1063 378 q 919 124 988 193 q 759 17 851 56 q 557 -21 667 -21 q 356 17 447 -21 q 196 124 264 56 q 90 285 128 193 q 53 486 53 378 m 226 486 q 269 308 226 386 q 386 185 311 229 q 557 140 461 140 q 728 185 654 140 q 845 308 803 229 q 888 486 888 386 q 846 665 888 586 q 730 788 804 743 q 557 832 656 832 q 386 788 461 832 q 269 665 311 743 q 226 486 226 586 z "},"П":{"ha":1024,"x_min":111,"x_max":913,"o":"m 747 821 l 278 821 l 278 0 l 111 0 l 111 972 l 913 972 l 913 0 l 747 0 l 747 821 z "},"Р":{"ha":803,"x_min":108,"x_max":750,"o":"m 108 972 l 401 972 q 586 935 508 972 q 707 831 664 899 q 750 669 750 763 q 656 449 750 531 q 401 368 561 368 l 272 368 l 272 0 l 108 0 l 108 972 m 401 828 l 272 828 l 272 513 l 401 513 q 538 552 486 513 q 589 669 589 592 q 538 788 589 747 q 401 828 486 828 z "},"С":{"ha":960,"x_min":53,"x_max":867,"o":"m 231 486 q 276 306 231 383 q 398 185 322 228 q 563 143 474 143 q 741 183 665 143 q 867 282 817 222 l 867 86 q 735 10 807 36 q 557 -17 664 -17 q 358 20 450 -17 q 198 124 267 57 q 91 283 129 190 q 53 486 53 375 q 91 690 53 597 q 198 849 129 782 q 358 952 267 915 q 557 989 450 989 q 735 963 664 989 q 867 886 807 936 l 867 690 q 741 790 817 750 q 563 829 665 829 q 398 787 474 829 q 276 667 322 744 q 231 486 231 590 z "},"Т":{"ha":699,"x_min":11,"x_max":689,"o":"m 11 821 l 11 972 l 689 972 l 689 821 l 432 821 l 432 0 l 267 0 l 267 821 l 11 821 z "},"У":{"ha":814,"x_min":-6,"x_max":819,"o":"m 819 972 l 363 0 l 188 0 l 315 290 l -6 972 l 188 972 l 406 449 l 642 972 l 819 972 z "},"Ў":{"ha":807,"x_min":-6,"x_max":813,"o":"m 183 1271 l 297 1271 q 322 1208 297 1240 q 407 1175 347 1175 q 492 1208 468 1175 q 515 1271 515 1240 l 629 1271 q 604 1174 629 1219 q 530 1101 579 1129 q 407 1072 481 1072 q 285 1101 335 1072 q 209 1174 235 1129 q 183 1271 183 1219 m 813 972 l 356 0 l 183 0 l 311 290 l -6 972 l 185 972 l 401 449 l 639 972 l 813 972 z "},"Ф":{"ha":1171,"x_min":56,"x_max":1115,"o":"m 501 972 l 669 972 l 669 861 q 898 816 797 861 q 1057 687 999 771 q 1115 486 1115 603 q 1057 285 1115 369 q 898 156 999 201 q 669 111 797 111 l 669 0 l 501 0 l 501 111 q 273 156 374 111 q 114 285 172 201 q 56 486 56 369 q 114 688 56 604 q 274 816 172 771 q 501 861 375 861 l 501 972 m 222 486 q 299 322 222 375 q 501 264 376 268 l 501 708 q 299 651 376 704 q 222 486 222 597 m 949 486 q 872 651 949 597 q 669 708 794 704 l 669 264 q 872 322 794 268 q 949 486 949 375 z "},"Х":{"ha":843,"x_min":11,"x_max":833,"o":"m 613 972 l 813 972 l 518 506 l 833 0 l 633 0 l 425 374 l 210 0 l 11 0 l 333 506 l 46 972 l 244 972 l 426 643 l 613 972 z "},"Ц":{"ha":1111,"x_min":108,"x_max":1058,"o":"m 274 151 l 761 151 l 761 972 l 926 972 l 926 151 l 1058 151 l 1058 -167 l 907 -167 l 907 0 l 108 0 l 108 972 l 274 972 l 274 151 z "},"Ч":{"ha":911,"x_min":108,"x_max":800,"o":"m 269 972 l 269 704 q 315 558 269 615 q 442 501 361 501 l 632 501 l 632 972 l 800 972 l 800 0 l 632 0 l 632 356 l 414 356 q 246 401 314 356 q 143 522 178 446 q 108 692 108 599 l 108 972 l 269 972 z "},"Ш":{"ha":1421,"x_min":111,"x_max":1311,"o":"m 1146 151 l 1146 972 l 1311 972 l 1311 0 l 111 0 l 111 972 l 276 972 l 276 151 l 631 151 l 631 972 l 792 972 l 792 151 l 1146 151 z "},"Щ":{"ha":1497,"x_min":111,"x_max":1443,"o":"m 1146 151 l 1146 972 l 1311 972 l 1311 151 l 1443 151 l 1443 -167 l 1290 -167 l 1290 0 l 111 0 l 111 972 l 276 972 l 276 151 l 631 151 l 631 972 l 792 972 l 792 151 l 1146 151 z "},"Ъ":{"ha":957,"x_min":14,"x_max":906,"o":"m 264 822 l 14 822 l 14 972 l 429 972 l 429 604 l 556 604 q 741 567 663 604 q 863 463 819 531 q 906 303 906 396 q 863 142 906 210 q 741 37 819 74 q 556 0 663 0 l 264 0 l 264 822 m 556 460 l 429 460 l 429 144 l 556 144 q 692 185 640 144 q 743 303 743 225 q 692 420 743 381 q 556 460 640 460 z "},"Ы":{"ha":1142,"x_min":108,"x_max":1035,"o":"m 868 972 l 1035 972 l 1035 0 l 868 0 l 868 972 m 108 972 l 272 972 l 272 604 l 401 604 q 656 524 561 604 q 750 303 750 443 q 707 142 750 210 q 586 37 664 74 q 401 0 508 0 l 108 0 l 108 972 m 401 460 l 272 460 l 272 144 l 401 144 q 538 185 486 144 q 589 303 589 225 q 538 420 589 381 q 401 460 486 460 z "},"Ь":{"ha":803,"x_min":108,"x_max":750,"o":"m 108 972 l 272 972 l 272 604 l 401 604 q 656 524 561 604 q 750 303 750 443 q 707 142 750 210 q 586 37 664 74 q 401 0 508 0 l 108 0 l 108 972 m 401 460 l 272 460 l 272 144 l 401 144 q 538 185 486 144 q 589 303 589 225 q 538 420 589 381 q 401 460 486 460 z "},"Э":{"ha":960,"x_min":94,"x_max":908,"o":"m 186 415 l 186 557 l 733 557 q 667 702 717 640 q 546 798 617 764 q 397 832 475 832 q 218 794 294 832 q 94 701 142 756 l 94 886 q 226 963 156 936 q 403 989 297 989 q 602 952 510 989 q 763 849 694 915 q 870 690 832 782 q 908 486 908 597 q 870 283 908 375 q 763 124 832 190 q 602 20 694 57 q 403 -17 510 -17 q 226 10 297 -17 q 94 86 156 36 l 94 271 q 218 178 142 217 q 397 140 294 140 q 546 174 475 140 q 667 270 617 208 q 733 415 717 332 l 186 415 z "},"Ю":{"ha":1492,"x_min":108,"x_max":1442,"o":"m 108 972 l 272 972 l 272 597 l 442 597 q 535 801 465 713 q 708 940 604 890 q 936 989 811 989 q 1137 951 1044 989 q 1298 847 1229 914 q 1404 687 1367 779 q 1442 486 1442 594 q 1404 285 1442 378 q 1299 124 1367 193 q 1138 17 1231 56 q 936 -21 1046 -21 q 687 40 797 -21 q 509 206 576 100 q 432 446 442 311 l 272 446 l 272 0 l 108 0 l 108 972 m 606 486 q 648 308 606 386 q 765 185 690 229 q 936 140 840 140 q 1108 185 1033 140 q 1224 308 1182 229 q 1267 486 1267 386 q 1225 665 1267 586 q 1109 788 1183 743 q 936 832 1035 832 q 765 788 840 832 q 648 665 690 743 q 606 486 606 586 z "},"Я":{"ha":825,"x_min":11,"x_max":719,"o":"m 719 972 l 719 0 l 554 0 l 554 368 l 454 368 l 208 0 l 11 0 l 285 386 q 127 490 185 415 q 69 669 69 564 q 113 829 69 761 q 234 935 156 897 q 418 972 313 972 l 719 972 m 425 504 l 554 504 l 554 829 l 425 829 q 289 787 340 829 q 238 667 238 744 q 289 547 238 589 q 425 504 340 504 z "},"µ":{"ha":757,"x_min":96,"x_max":661,"o":"m 250 639 l 250 264 q 278 158 250 194 q 368 121 307 121 q 472 160 432 121 q 511 264 511 200 l 511 639 l 661 639 l 661 0 l 511 0 l 511 81 q 440 14 483 39 q 344 -11 397 -11 q 292 -5 317 -11 q 243 15 267 1 l 243 -444 l 96 -444 l 96 639 l 250 639 z "},"a":{"ha":700,"x_min":39,"x_max":621,"o":"m 143 472 l 82 578 q 194 629 126 604 q 351 654 263 654 q 545 602 469 654 q 621 456 621 550 l 621 0 l 474 0 l 474 88 q 383 11 443 36 q 263 -14 324 -14 q 151 10 203 -14 q 69 79 100 33 q 39 190 39 125 q 105 338 39 283 q 289 393 171 393 q 397 379 351 393 q 474 349 443 365 l 474 426 q 435 508 474 485 q 338 532 397 532 q 217 510 269 532 q 143 472 164 488 m 190 199 q 224 125 190 151 q 310 99 258 99 q 425 140 376 99 q 474 253 474 181 l 474 263 q 325 294 407 294 q 222 269 254 294 q 190 199 190 243 z "},"à":{"ha":706,"x_min":39,"x_max":626,"o":"m 131 946 l 257 1008 l 465 786 l 381 738 l 131 946 m 157 469 l 97 578 q 208 629 142 604 q 360 654 274 654 q 552 602 478 654 q 626 456 626 550 l 626 0 l 479 0 l 479 92 q 392 13 450 40 q 263 -14 335 -14 q 100 36 161 -14 q 39 175 39 86 q 74 294 39 246 q 172 368 110 343 q 313 393 235 393 q 408 380 365 393 q 479 350 450 367 l 479 439 q 442 508 479 483 q 353 532 406 532 q 233 508 285 532 q 157 469 181 485 m 190 189 q 222 122 190 144 q 308 100 253 100 q 431 134 382 100 q 479 253 479 168 l 479 265 q 335 297 417 297 q 226 268 263 297 q 190 189 190 239 z "},"á":{"ha":706,"x_min":39,"x_max":626,"o":"m 589 946 l 339 738 l 254 786 l 463 1008 l 589 946 m 157 469 l 97 578 q 208 629 142 604 q 360 654 274 654 q 552 602 478 654 q 626 456 626 550 l 626 0 l 479 0 l 479 92 q 392 13 450 40 q 263 -14 335 -14 q 100 36 161 -14 q 39 175 39 86 q 74 294 39 246 q 172 368 110 343 q 313 393 235 393 q 408 380 365 393 q 479 350 450 367 l 479 439 q 442 508 479 483 q 353 532 406 532 q 233 508 285 532 q 157 469 181 485 m 190 189 q 222 122 190 144 q 308 100 253 100 q 431 134 382 100 q 479 253 479 168 l 479 265 q 335 297 417 297 q 226 268 263 297 q 190 189 190 239 z "},"â":{"ha":706,"x_min":39,"x_max":626,"o":"m 360 865 l 218 738 l 117 811 l 360 1006 l 603 811 l 503 738 l 360 865 m 157 469 l 97 578 q 208 629 142 604 q 360 654 274 654 q 552 602 478 654 q 626 456 626 550 l 626 0 l 479 0 l 479 92 q 392 13 450 40 q 263 -14 335 -14 q 100 36 161 -14 q 39 175 39 86 q 74 294 39 246 q 172 368 110 343 q 313 393 235 393 q 408 380 365 393 q 479 350 450 367 l 479 439 q 442 508 479 483 q 353 532 406 532 q 233 508 285 532 q 157 469 181 485 m 190 189 q 222 122 190 144 q 308 100 253 100 q 431 134 382 100 q 479 253 479 168 l 479 265 q 335 297 417 297 q 226 268 263 297 q 190 189 190 239 z "},"ã":{"ha":706,"x_min":39,"x_max":626,"o":"m 114 806 q 168 892 125 857 q 267 926 211 926 q 322 916 300 926 q 362 892 344 906 q 398 869 379 879 q 446 858 417 858 q 488 876 468 858 q 529 928 508 894 l 607 850 q 545 776 590 811 q 443 742 500 742 q 378 759 406 742 q 324 794 350 776 q 265 811 299 811 q 223 798 238 811 q 203 768 208 785 q 197 740 197 751 l 114 806 m 157 469 l 97 578 q 208 629 142 604 q 360 654 274 654 q 552 602 478 654 q 626 456 626 550 l 626 0 l 479 0 l 479 92 q 392 13 450 40 q 263 -14 335 -14 q 100 36 161 -14 q 39 175 39 86 q 74 294 39 246 q 172 368 110 343 q 313 393 235 393 q 408 380 365 393 q 479 350 450 367 l 479 439 q 442 508 479 483 q 353 532 406 532 q 233 508 285 532 q 157 469 181 485 m 190 189 q 222 122 190 144 q 308 100 253 100 q 431 134 382 100 q 479 253 479 168 l 479 265 q 335 297 417 297 q 226 268 263 297 q 190 189 190 239 z "},"ä":{"ha":706,"x_min":39,"x_max":626,"o":"m 417 829 q 444 894 417 868 q 511 921 472 921 q 578 894 551 921 q 606 829 606 868 q 578 764 606 790 q 511 738 551 738 q 444 764 472 738 q 417 829 417 790 m 114 829 q 142 894 114 868 q 208 921 169 921 q 276 894 249 921 q 304 829 304 868 q 276 764 304 790 q 208 738 249 738 q 142 764 169 738 q 114 829 114 790 m 157 469 l 97 578 q 208 629 142 604 q 360 654 274 654 q 552 602 478 654 q 626 456 626 550 l 626 0 l 479 0 l 479 92 q 392 13 450 40 q 263 -14 335 -14 q 100 36 161 -14 q 39 175 39 86 q 74 294 39 246 q 172 368 110 343 q 313 393 235 393 q 408 380 365 393 q 479 350 450 367 l 479 439 q 442 508 479 483 q 353 532 406 532 q 233 508 285 532 q 157 469 181 485 m 190 189 q 222 122 190 144 q 308 100 253 100 q 431 134 382 100 q 479 253 479 168 l 479 265 q 335 297 417 297 q 226 268 263 297 q 190 189 190 239 z "},"å":{"ha":706,"x_min":39,"x_max":626,"o":"m 206 886 q 252 993 206 953 q 360 1033 299 1033 q 467 993 421 1033 q 514 886 514 953 q 467 778 514 819 q 360 738 421 738 q 252 778 299 738 q 206 886 206 819 m 292 886 q 313 834 292 853 q 360 815 333 815 q 407 834 386 815 q 428 886 428 853 q 407 938 428 919 q 360 957 386 957 q 313 938 333 957 q 292 886 292 919 m 157 469 l 97 578 q 208 629 142 604 q 360 654 274 654 q 552 602 478 654 q 626 456 626 550 l 626 0 l 479 0 l 479 92 q 392 13 450 40 q 263 -14 335 -14 q 100 36 161 -14 q 39 175 39 86 q 74 294 39 246 q 172 368 110 343 q 313 393 235 393 q 408 380 365 393 q 479 350 450 367 l 479 439 q 442 508 479 483 q 353 532 406 532 q 233 508 285 532 q 157 469 181 485 m 190 189 q 222 122 190 144 q 308 100 253 100 q 431 134 382 100 q 479 253 479 168 l 479 265 q 335 297 417 297 q 226 268 263 297 q 190 189 190 239 z "},"ā":{"ha":706,"x_min":39,"x_max":626,"o":"m 111 758 l 111 894 l 610 894 l 610 758 l 111 758 m 157 469 l 97 578 q 208 629 142 604 q 360 654 274 654 q 552 602 478 654 q 626 456 626 550 l 626 0 l 479 0 l 479 92 q 392 13 450 40 q 263 -14 335 -14 q 100 36 161 -14 q 39 175 39 86 q 74 294 39 246 q 172 368 110 343 q 313 393 235 393 q 408 380 365 393 q 479 350 450 367 l 479 439 q 442 508 479 483 q 353 532 406 532 q 233 508 285 532 q 157 469 181 485 m 190 189 q 222 122 190 144 q 308 100 253 100 q 431 134 382 100 q 479 253 479 168 l 479 265 q 335 297 417 297 q 226 268 263 297 q 190 189 190 239 z "},"ă":{"ha":706,"x_min":39,"x_max":626,"o":"m 138 936 l 251 936 q 276 873 251 906 q 360 840 300 840 q 444 873 421 840 q 468 936 468 906 l 583 936 q 558 840 583 885 q 483 766 532 794 q 360 738 433 738 q 238 766 288 738 q 163 840 188 794 q 138 936 138 885 m 157 469 l 97 578 q 208 629 142 604 q 360 654 274 654 q 552 602 478 654 q 626 456 626 550 l 626 0 l 479 0 l 479 92 q 392 13 450 40 q 263 -14 335 -14 q 100 36 161 -14 q 39 175 39 86 q 74 294 39 246 q 172 368 110 343 q 313 393 235 393 q 408 380 365 393 q 479 350 450 367 l 479 439 q 442 508 479 483 q 353 532 406 532 q 233 508 285 532 q 157 469 181 485 m 190 189 q 222 122 190 144 q 308 100 253 100 q 431 134 382 100 q 479 253 479 168 l 479 265 q 335 297 417 297 q 226 268 263 297 q 190 189 190 239 z "},"ą":{"ha":706,"x_min":39,"x_max":663,"o":"m 157 469 l 97 578 q 208 629 142 604 q 360 654 274 654 q 552 602 478 654 q 626 456 626 550 l 626 0 l 610 0 q 522 -62 556 -25 q 488 -136 488 -100 q 503 -183 488 -169 q 547 -197 518 -197 q 588 -190 572 -197 q 617 -169 603 -183 l 663 -250 q 615 -288 647 -271 q 533 -306 583 -306 q 410 -268 454 -306 q 365 -167 365 -231 q 402 -75 365 -117 q 492 0 439 -33 l 479 0 l 479 92 q 392 13 450 40 q 263 -14 335 -14 q 103 36 168 -14 q 39 183 39 86 q 113 338 39 282 q 313 393 186 393 q 408 380 365 393 q 479 350 450 367 l 479 439 q 442 508 479 483 q 353 532 406 532 q 233 508 285 532 q 157 469 181 485 m 190 189 q 225 122 190 144 q 308 100 260 100 q 431 134 382 100 q 479 253 479 168 l 479 265 q 335 297 417 297 q 226 268 263 297 q 190 189 190 239 z "},"b":{"ha":817,"x_min":90,"x_max":771,"o":"m 771 319 q 728 140 771 215 q 614 26 685 65 q 460 -14 543 -14 q 242 106 317 -14 l 242 0 l 90 0 l 90 1083 l 242 1083 l 242 533 q 460 653 317 653 q 614 613 543 653 q 728 499 685 574 q 771 319 771 425 m 615 319 q 558 469 615 415 q 424 522 501 522 q 339 499 381 522 q 269 430 297 475 q 242 319 242 385 q 269 209 242 254 q 339 140 297 164 q 424 117 381 117 q 558 170 501 117 q 615 319 615 224 z "},"c":{"ha":672,"x_min":42,"x_max":603,"o":"m 196 319 q 222 213 196 260 q 294 141 249 167 q 394 115 339 115 q 522 146 464 115 q 603 224 579 176 l 603 58 q 513 5 569 24 q 388 -14 456 -14 q 210 28 289 -14 q 87 147 132 71 q 42 319 42 222 q 87 493 42 418 q 210 610 132 568 q 388 653 289 653 q 513 633 456 653 q 603 582 569 614 l 603 415 q 520 493 579 463 q 394 524 461 524 q 294 497 339 524 q 222 425 249 471 q 196 319 196 379 z "},"ç":{"ha":672,"x_min":42,"x_max":603,"o":"m 196 319 q 222 213 196 260 q 294 141 249 167 q 394 115 339 115 q 522 146 464 115 q 603 224 579 176 l 603 58 q 517 6 571 25 q 399 -14 463 -12 l 357 -81 q 372 -78 364 -79 q 386 -78 379 -78 q 460 -107 424 -78 q 496 -194 496 -136 q 472 -270 496 -239 q 412 -317 449 -301 q 335 -333 375 -333 q 253 -322 288 -333 q 181 -279 218 -310 l 233 -208 q 324 -242 275 -242 q 396 -189 396 -242 q 376 -152 396 -162 q 321 -142 356 -142 q 283 -146 311 -142 q 226 -165 254 -150 l 304 -6 q 167 56 226 11 q 75 169 108 101 q 42 319 42 236 q 87 493 42 418 q 210 610 132 568 q 388 653 289 653 q 513 633 456 653 q 603 582 569 614 l 603 415 q 520 493 579 463 q 394 524 461 524 q 294 497 339 524 q 222 425 249 471 q 196 319 196 379 z "},"ć":{"ha":672,"x_min":42,"x_max":603,"o":"m 568 944 l 318 736 l 233 785 l 442 1007 l 568 944 m 196 319 q 222 213 196 260 q 294 141 249 167 q 394 115 339 115 q 522 146 464 115 q 603 224 579 176 l 603 58 q 513 5 569 24 q 388 -14 456 -14 q 210 28 289 -14 q 87 147 132 71 q 42 319 42 222 q 87 493 42 418 q 210 610 132 568 q 388 653 289 653 q 513 633 456 653 q 603 582 569 614 l 603 415 q 520 493 579 463 q 394 524 461 524 q 294 497 339 524 q 222 425 249 471 q 196 319 196 379 z "},"ĉ":{"ha":672,"x_min":42,"x_max":614,"o":"m 371 863 l 228 736 l 128 810 l 371 1004 l 614 810 l 513 736 l 371 863 m 196 319 q 222 213 196 260 q 294 141 249 167 q 394 115 339 115 q 522 146 464 115 q 603 224 579 176 l 603 58 q 513 5 569 24 q 388 -14 456 -14 q 210 28 289 -14 q 87 147 132 71 q 42 319 42 222 q 87 493 42 418 q 210 610 132 568 q 388 653 289 653 q 513 633 456 653 q 603 582 569 614 l 603 415 q 520 493 579 463 q 394 524 461 524 q 294 497 339 524 q 222 425 249 471 q 196 319 196 379 z "},"ċ":{"ha":672,"x_min":42,"x_max":603,"o":"m 279 832 q 307 897 279 871 q 374 922 335 922 q 441 897 414 922 q 468 832 468 871 q 441 767 468 793 q 374 740 414 740 q 307 767 335 740 q 279 832 279 793 m 196 319 q 222 213 196 260 q 294 141 249 167 q 394 115 339 115 q 522 146 464 115 q 603 224 579 176 l 603 58 q 513 5 569 24 q 388 -14 456 -14 q 210 28 289 -14 q 87 147 132 71 q 42 319 42 222 q 87 493 42 418 q 210 610 132 568 q 388 653 289 653 q 513 633 456 653 q 603 582 569 614 l 603 415 q 520 493 579 463 q 394 524 461 524 q 294 497 339 524 q 222 425 249 471 q 196 319 196 379 z "},"č":{"ha":672,"x_min":42,"x_max":614,"o":"m 371 876 l 513 1004 l 614 931 l 371 736 l 128 931 l 228 1004 l 371 876 m 196 319 q 222 213 196 260 q 294 141 249 167 q 394 115 339 115 q 522 146 464 115 q 603 224 579 176 l 603 58 q 513 5 569 24 q 388 -14 456 -14 q 210 28 289 -14 q 87 147 132 71 q 42 319 42 222 q 87 493 42 418 q 210 610 132 568 q 388 653 289 653 q 513 633 456 653 q 603 582 569 614 l 603 415 q 520 493 579 463 q 394 524 461 524 q 294 497 339 524 q 222 425 249 471 q 196 319 196 379 z "},"d":{"ha":817,"x_min":47,"x_max":728,"o":"m 47 319 q 90 499 47 425 q 204 613 133 574 q 358 653 275 653 q 576 533 501 653 l 576 1083 l 728 1083 l 728 0 l 576 0 l 576 106 q 358 -14 501 -14 q 204 26 275 -14 q 90 140 133 65 q 47 319 47 215 m 203 319 q 260 170 203 224 q 394 117 317 117 q 479 140 438 117 q 549 209 521 164 q 576 319 576 254 q 549 430 576 385 q 479 499 521 475 q 394 522 438 522 q 260 469 317 522 q 203 319 203 415 z "},"ď":{"ha":817,"x_min":47,"x_max":1042,"o":"m 47 319 q 90 499 47 425 q 204 613 133 574 q 358 653 275 653 q 576 533 501 653 l 576 1083 l 728 1083 l 728 0 l 576 0 l 576 106 q 358 -14 501 -14 q 204 26 275 -14 q 90 140 133 65 q 47 319 47 215 m 892 1083 l 1042 1040 l 881 693 l 769 724 l 892 1083 m 203 319 q 260 170 203 224 q 394 117 317 117 q 479 140 438 117 q 549 209 521 164 q 576 319 576 254 q 549 430 576 385 q 479 499 521 475 q 394 522 438 522 q 260 469 317 522 q 203 319 203 415 z "},"e":{"ha":747,"x_min":47,"x_max":700,"o":"m 374 -14 q 201 28 275 -14 q 88 144 128 69 q 47 319 47 219 q 88 495 47 421 q 204 611 129 569 q 381 653 279 653 q 616 566 532 653 q 700 326 700 479 q 699 302 700 314 q 699 285 699 290 l 201 285 q 256 156 210 201 q 381 110 303 110 q 564 211 503 110 l 694 160 q 374 -14 594 -14 m 379 539 q 206 389 233 539 l 536 389 q 489 498 532 457 q 379 539 446 539 z "},"è":{"ha":747,"x_min":47,"x_max":700,"o":"m 172 956 l 300 1018 l 508 796 l 422 747 l 172 956 m 694 160 q 621 69 663 108 q 519 8 579 29 q 374 -14 460 -14 q 201 29 275 -14 q 88 148 128 72 q 47 319 47 224 q 49 354 47 338 q 53 388 50 371 q 158 579 72 506 q 381 653 244 653 q 615 565 529 653 q 700 326 700 478 q 700 307 700 318 q 699 285 700 296 l 201 285 q 258 153 210 197 q 381 110 307 110 q 491 137 446 110 q 564 211 536 164 l 694 160 m 379 539 q 263 499 311 539 q 204 389 214 460 l 538 389 q 491 498 529 457 q 379 539 453 539 z "},"é":{"ha":747,"x_min":47,"x_max":700,"o":"m 610 956 l 360 747 l 275 796 l 483 1018 l 610 956 m 694 160 q 621 69 663 108 q 519 8 579 29 q 374 -14 460 -14 q 201 29 275 -14 q 88 148 128 72 q 47 319 47 224 q 49 354 47 338 q 53 388 50 371 q 158 579 72 506 q 381 653 244 653 q 615 565 529 653 q 700 326 700 478 q 700 307 700 318 q 699 285 700 296 l 201 285 q 258 153 210 197 q 381 110 307 110 q 491 137 446 110 q 564 211 536 164 l 694 160 m 379 539 q 263 499 311 539 q 204 389 214 460 l 538 389 q 491 498 529 457 q 379 539 453 539 z "},"ê":{"ha":747,"x_min":47,"x_max":700,"o":"m 381 863 l 239 736 l 138 810 l 381 1004 l 624 810 l 524 736 l 381 863 m 694 160 q 621 69 663 108 q 519 8 579 29 q 374 -14 460 -14 q 201 29 275 -14 q 88 148 128 72 q 47 319 47 224 q 49 354 47 338 q 53 388 50 371 q 158 579 72 506 q 381 653 244 653 q 615 565 529 653 q 700 326 700 478 q 700 307 700 318 q 699 285 700 296 l 201 285 q 258 153 210 197 q 381 110 307 110 q 491 137 446 110 q 564 211 536 164 l 694 160 m 379 539 q 263 499 311 539 q 204 389 214 460 l 538 389 q 491 498 529 457 q 379 539 453 539 z "},"ë":{"ha":747,"x_min":47,"x_max":700,"o":"m 438 828 q 465 893 438 867 q 532 919 493 919 q 599 893 572 919 q 626 828 626 867 q 599 763 626 789 q 532 736 572 736 q 465 763 493 736 q 438 828 438 789 m 135 828 q 163 893 135 867 q 229 919 190 919 q 297 893 269 919 q 325 828 325 867 q 297 763 325 789 q 229 736 269 736 q 163 763 190 736 q 135 828 135 789 m 694 160 q 621 69 663 108 q 519 8 579 29 q 374 -14 460 -14 q 201 29 275 -14 q 88 148 128 72 q 47 319 47 224 q 49 354 47 338 q 53 388 50 371 q 158 579 72 506 q 381 653 244 653 q 615 565 529 653 q 700 326 700 478 q 700 307 700 318 q 699 285 700 296 l 201 285 q 258 153 210 197 q 381 110 307 110 q 491 137 446 110 q 564 211 536 164 l 694 160 m 379 539 q 263 499 311 539 q 204 389 214 460 l 538 389 q 491 498 529 457 q 379 539 453 539 z "},"ē":{"ha":747,"x_min":47,"x_max":700,"o":"m 132 736 l 132 872 l 631 872 l 631 736 l 132 736 m 694 160 q 621 69 663 108 q 519 8 579 29 q 374 -14 460 -14 q 201 29 275 -14 q 88 148 128 72 q 47 319 47 224 q 49 354 47 338 q 53 388 50 371 q 158 579 72 506 q 381 653 244 653 q 615 565 529 653 q 700 326 700 478 q 700 307 700 318 q 699 285 700 296 l 201 285 q 258 153 210 197 q 381 110 307 110 q 491 137 446 110 q 564 211 536 164 l 694 160 m 379 539 q 263 499 311 539 q 204 389 214 460 l 538 389 q 491 498 529 457 q 379 539 453 539 z "},"ĕ":{"ha":747,"x_min":47,"x_max":700,"o":"m 158 935 l 272 935 q 297 872 272 904 q 381 839 321 839 q 465 872 442 839 q 489 935 489 904 l 604 935 q 578 838 604 883 q 503 765 553 793 q 381 736 454 736 q 258 765 308 736 q 183 838 208 793 q 158 935 158 883 m 694 160 q 621 69 663 108 q 519 8 579 29 q 374 -14 460 -14 q 201 29 275 -14 q 88 148 128 72 q 47 319 47 224 q 49 354 47 338 q 53 388 50 371 q 158 579 72 506 q 381 653 244 653 q 615 565 529 653 q 700 326 700 478 q 700 307 700 318 q 699 285 700 296 l 201 285 q 258 153 210 197 q 381 110 307 110 q 491 137 446 110 q 564 211 536 164 l 694 160 m 379 539 q 263 499 311 539 q 204 389 214 460 l 538 389 q 491 498 529 457 q 379 539 453 539 z "},"ė":{"ha":747,"x_min":47,"x_max":700,"o":"m 286 828 q 314 893 286 867 q 381 919 342 919 q 448 893 421 919 q 475 828 475 867 q 448 763 475 789 q 381 736 421 736 q 314 763 342 736 q 286 828 286 789 m 694 160 q 621 69 663 108 q 519 8 579 29 q 374 -14 460 -14 q 201 29 275 -14 q 88 148 128 72 q 47 319 47 224 q 49 354 47 338 q 53 388 50 371 q 158 579 72 506 q 381 653 244 653 q 615 565 529 653 q 700 326 700 478 q 700 307 700 318 q 699 285 700 296 l 201 285 q 258 153 210 197 q 381 110 307 110 q 491 137 446 110 q 564 211 536 164 l 694 160 m 379 539 q 263 499 311 539 q 204 389 214 460 l 538 389 q 491 498 529 457 q 379 539 453 539 z "},"ę":{"ha":747,"x_min":47,"x_max":700,"o":"m 431 -167 l 476 -246 q 429 -284 461 -267 q 347 -301 397 -301 q 224 -264 268 -301 q 181 -162 181 -226 q 213 -77 181 -117 q 292 -6 244 -37 q 113 108 178 19 q 47 319 47 196 q 49 354 47 338 q 53 388 50 371 q 158 579 72 506 q 381 653 244 653 q 615 565 529 653 q 700 326 700 478 q 700 307 700 318 q 699 285 700 296 l 201 285 q 258 153 210 197 q 381 110 307 110 q 491 137 446 110 q 564 211 536 164 l 694 160 q 580 38 649 85 q 390 -14 511 -10 q 326 -70 350 -39 q 301 -132 301 -101 q 361 -194 301 -194 q 401 -187 386 -194 q 431 -167 417 -181 m 379 539 q 263 499 311 539 q 204 389 214 460 l 538 389 q 491 498 529 457 q 379 539 453 539 z "},"ě":{"ha":747,"x_min":47,"x_max":700,"o":"m 381 876 l 524 1004 l 624 931 l 381 736 l 138 931 l 239 1004 l 381 876 m 694 160 q 621 69 663 108 q 519 8 579 29 q 374 -14 460 -14 q 201 29 275 -14 q 88 148 128 72 q 47 319 47 224 q 49 354 47 338 q 53 388 50 371 q 158 579 72 506 q 381 653 244 653 q 615 565 529 653 q 700 326 700 478 q 700 307 700 318 q 699 285 700 296 l 201 285 q 258 153 210 197 q 381 110 307 110 q 491 137 446 110 q 564 211 536 164 l 694 160 m 379 539 q 263 499 311 539 q 204 389 214 460 l 538 389 q 491 498 529 457 q 379 539 453 539 z "},"f":{"ha":429,"x_min":43,"x_max":464,"o":"m 43 639 l 113 639 l 113 875 q 166 1043 113 986 q 319 1100 219 1100 q 410 1080 375 1100 q 464 1039 446 1060 l 394 922 q 363 951 381 944 q 326 958 344 958 q 278 933 296 958 q 260 846 260 907 l 260 639 l 410 639 l 410 507 l 260 507 l 260 0 l 113 0 l 113 507 l 43 507 l 43 639 z "},"g":{"ha":814,"x_min":47,"x_max":724,"o":"m 60 -43 l 210 -43 q 260 -151 213 -107 q 389 -194 308 -194 q 479 -172 436 -194 q 549 -104 522 -150 q 576 14 576 -58 l 576 110 q 358 -7 501 -7 q 204 32 275 -7 q 90 144 133 71 q 47 322 47 218 q 90 501 47 428 q 204 614 133 575 q 358 653 275 653 q 576 535 501 653 l 576 639 l 724 639 l 724 14 q 677 -177 724 -101 q 556 -289 631 -253 q 393 -325 481 -325 q 151 -247 238 -325 q 60 -43 64 -168 m 203 322 q 260 175 203 226 q 394 124 317 124 q 479 146 438 124 q 549 213 521 168 q 576 322 576 257 q 549 432 576 388 q 479 499 521 476 q 394 522 438 522 q 260 470 317 522 q 203 322 203 418 z "},"ĝ":{"ha":814,"x_min":47,"x_max":724,"o":"m 396 863 l 254 736 l 154 810 l 396 1004 l 640 810 l 539 736 l 396 863 m 60 -43 l 210 -43 q 260 -151 213 -107 q 389 -194 308 -194 q 479 -172 436 -194 q 549 -104 522 -150 q 576 14 576 -58 l 576 110 q 358 -7 501 -7 q 204 32 275 -7 q 90 144 133 71 q 47 322 47 218 q 90 501 47 428 q 204 614 133 575 q 358 653 275 653 q 576 535 501 653 l 576 639 l 724 639 l 724 14 q 677 -177 724 -101 q 556 -289 631 -253 q 393 -325 481 -325 q 151 -247 238 -325 q 60 -43 64 -168 m 203 322 q 260 175 203 226 q 394 124 317 124 q 479 146 438 124 q 549 213 521 168 q 576 322 576 257 q 549 432 576 388 q 479 499 521 476 q 394 522 438 522 q 260 470 317 522 q 203 322 203 418 z "},"ğ":{"ha":814,"x_min":47,"x_max":724,"o":"m 174 935 l 288 935 q 312 872 288 904 q 396 839 336 839 q 481 872 457 839 q 506 935 506 904 l 619 935 q 594 838 619 883 q 519 765 568 793 q 396 736 469 736 q 274 765 324 736 q 199 838 224 793 q 174 935 174 883 m 60 -43 l 210 -43 q 260 -151 213 -107 q 389 -194 308 -194 q 479 -172 436 -194 q 549 -104 522 -150 q 576 14 576 -58 l 576 110 q 358 -7 501 -7 q 204 32 275 -7 q 90 144 133 71 q 47 322 47 218 q 90 501 47 428 q 204 614 133 575 q 358 653 275 653 q 576 535 501 653 l 576 639 l 724 639 l 724 14 q 677 -177 724 -101 q 556 -289 631 -253 q 393 -325 481 -325 q 151 -247 238 -325 q 60 -43 64 -168 m 203 322 q 260 175 203 226 q 394 124 317 124 q 479 146 438 124 q 549 213 521 168 q 576 322 576 257 q 549 432 576 388 q 479 499 521 476 q 394 522 438 522 q 260 470 317 522 q 203 322 203 418 z "},"ġ":{"ha":814,"x_min":47,"x_max":724,"o":"m 313 869 q 340 935 313 908 q 407 961 368 961 q 474 935 447 961 q 501 869 501 908 q 474 804 501 831 q 407 778 447 778 q 340 804 368 778 q 313 869 313 831 m 60 -43 l 210 -43 q 260 -151 213 -107 q 389 -194 308 -194 q 479 -172 436 -194 q 549 -104 522 -150 q 576 14 576 -58 l 576 110 q 358 -7 501 -7 q 204 32 275 -7 q 90 144 133 71 q 47 322 47 218 q 90 501 47 428 q 204 614 133 575 q 358 653 275 653 q 576 535 501 653 l 576 639 l 724 639 l 724 14 q 677 -177 724 -101 q 556 -289 631 -253 q 393 -325 481 -325 q 151 -247 238 -325 q 60 -43 64 -168 m 203 322 q 260 175 203 226 q 394 124 317 124 q 479 146 438 124 q 549 213 521 168 q 576 322 576 257 q 549 432 576 388 q 479 499 521 476 q 394 522 438 522 q 260 470 317 522 q 203 322 203 418 z "},"ģ":{"ha":792,"x_min":47,"x_max":724,"o":"m 407 756 l 265 822 l 478 1140 l 583 1093 l 407 756 m 60 -43 l 210 -43 q 260 -151 213 -107 q 389 -194 308 -194 q 479 -172 436 -194 q 549 -104 522 -150 q 576 14 576 -58 l 576 110 q 358 -7 501 -7 q 204 32 275 -7 q 90 144 133 71 q 47 322 47 218 q 90 501 47 428 q 204 614 133 575 q 358 653 275 653 q 576 535 501 653 l 576 639 l 724 639 l 724 14 q 677 -177 724 -101 q 556 -289 631 -253 q 393 -325 481 -325 q 151 -247 238 -325 q 60 -43 64 -168 m 203 322 q 260 175 203 226 q 394 124 317 124 q 479 146 438 124 q 549 213 521 168 q 576 322 576 257 q 549 432 576 388 q 479 499 521 476 q 394 522 438 522 q 260 470 317 522 q 203 322 203 418 z "},"h":{"ha":753,"x_min":96,"x_max":658,"o":"m 507 389 q 478 495 507 458 q 389 532 450 532 q 285 492 325 532 q 246 389 246 453 l 246 0 l 96 0 l 96 1083 l 246 1083 l 246 543 q 324 626 275 594 q 439 657 372 657 q 602 594 546 657 q 658 410 658 532 l 658 0 l 507 0 l 507 389 z "},"ĥ":{"ha":753,"x_min":-65,"x_max":658,"o":"m 178 1293 l 36 1167 l -65 1239 l 178 1433 l 421 1239 l 321 1167 l 178 1293 m 507 389 q 478 495 507 458 q 389 532 450 532 q 285 492 325 532 q 246 389 246 453 l 246 0 l 96 0 l 96 1083 l 246 1083 l 246 553 q 326 629 276 601 q 439 657 376 657 q 602 594 546 657 q 658 410 658 532 l 658 0 l 507 0 l 507 389 z "},"i":{"ha":369,"x_min":90,"x_max":279,"o":"m 90 893 q 118 958 90 932 q 185 985 146 985 q 252 958 225 985 q 279 893 279 932 q 252 828 279 854 q 185 801 225 801 q 118 828 146 801 q 90 893 90 854 m 111 639 l 258 639 l 258 0 l 111 0 l 111 639 z "},"ì":{"ha":369,"x_min":-49,"x_max":286,"o":"m -49 965 l 78 1028 l 286 806 l 201 757 l -49 965 m 111 639 l 258 639 l 258 0 l 111 0 l 111 639 z "},"í":{"ha":369,"x_min":79,"x_max":414,"o":"m 414 965 l 164 757 l 79 806 l 288 1028 l 414 965 m 111 639 l 258 639 l 258 0 l 111 0 l 111 639 z "},"î":{"ha":369,"x_min":-58,"x_max":428,"o":"m 185 874 l 42 747 l -58 819 l 185 1014 l 428 819 l 328 747 l 185 874 m 111 639 l 258 639 l 258 0 l 111 0 l 111 639 z "},"ï":{"ha":369,"x_min":-61,"x_max":431,"o":"m 242 860 q 269 924 242 899 q 336 950 297 950 q 403 924 376 950 q 431 860 431 899 q 403 794 431 821 q 336 768 376 768 q 269 794 297 768 q 242 860 242 821 m -61 860 q -33 924 -61 899 q 33 950 -6 950 q 101 924 74 950 q 129 860 129 899 q 101 794 129 821 q 33 768 74 768 q -33 794 -6 768 q -61 860 -61 821 m 111 639 l 258 639 l 258 0 l 111 0 l 111 639 z "},"ĩ":{"ha":369,"x_min":-61,"x_max":432,"o":"m -61 804 q -7 890 -50 856 q 92 925 36 925 q 147 915 125 925 q 187 891 169 904 q 223 867 204 878 q 271 857 242 857 q 313 875 293 857 q 354 926 333 893 l 432 849 q 370 775 415 810 q 268 740 325 740 q 203 758 231 740 q 149 792 175 775 q 90 810 124 810 q 48 797 63 810 q 28 767 33 783 q 22 739 22 750 l -61 804 m 111 639 l 258 639 l 258 0 l 111 0 l 111 639 z "},"ī":{"ha":369,"x_min":-64,"x_max":435,"o":"m -64 736 l -64 872 l 435 872 l 435 736 l -64 736 m 111 639 l 258 639 l 258 0 l 111 0 l 111 639 z "},"ĭ":{"ha":369,"x_min":-39,"x_max":408,"o":"m -39 935 l 76 935 q 101 872 76 904 q 185 839 125 839 q 269 872 246 839 q 293 935 293 904 l 408 935 q 383 838 408 883 q 308 765 357 793 q 185 736 258 736 q 63 765 113 736 q -13 838 13 793 q -39 935 -39 883 m 111 639 l 258 639 l 258 0 l 111 0 l 111 639 z "},"į":{"ha":369,"x_min":1,"x_max":297,"o":"m 90 893 q 118 958 90 932 q 185 985 146 985 q 252 958 225 985 q 279 893 279 932 q 252 828 279 854 q 185 801 225 801 q 118 828 146 801 q 90 893 90 854 m 251 -169 l 297 -250 q 251 -288 282 -271 q 169 -306 219 -306 q 46 -268 90 -306 q 1 -167 1 -231 q 38 -75 1 -117 q 126 0 74 -33 l 111 0 l 111 639 l 258 639 l 258 0 l 244 0 q 157 -62 190 -25 q 124 -136 124 -100 q 138 -183 124 -169 q 182 -197 153 -197 q 222 -190 207 -197 q 251 -169 238 -183 z "},"j":{"ha":358,"x_min":-103,"x_max":264,"o":"m 76 893 q 104 958 76 932 q 171 983 132 983 q 238 958 211 983 q 264 893 264 932 q 238 828 264 854 q 171 803 211 803 q 104 828 132 803 q 76 893 76 854 m -32 -137 q -5 -164 -21 -154 q 33 -174 11 -174 q 84 -147 68 -174 q 100 -61 100 -121 l 100 639 l 249 639 l 249 -90 q 194 -256 249 -196 q 40 -317 140 -317 q -47 -299 -12 -317 q -103 -254 -81 -281 l -32 -137 z "},"ĵ":{"ha":358,"x_min":-103,"x_max":417,"o":"m 175 863 l 32 736 l -69 810 l 175 1004 l 417 810 l 317 736 l 175 863 m -32 -137 q -1 -167 -17 -160 q 33 -174 15 -174 q 83 -147 65 -174 q 100 -61 100 -121 l 100 639 l 249 639 l 249 -90 q 194 -259 249 -201 q 40 -317 140 -317 q -50 -296 -15 -317 q -103 -254 -85 -275 l -32 -137 z "},"k":{"ha":686,"x_min":90,"x_max":683,"o":"m 472 639 l 656 639 l 381 375 l 683 0 l 501 0 l 238 325 l 238 0 l 90 0 l 90 1083 l 238 1083 l 238 414 l 472 639 z "},"ķ":{"ha":686,"x_min":90,"x_max":683,"o":"m 472 639 l 656 639 l 381 375 l 683 0 l 501 0 l 238 325 l 238 0 l 90 0 l 90 1083 l 238 1083 l 238 414 l 472 639 m 358 -83 l 510 -126 l 349 -474 l 236 -443 l 358 -83 z "},"l":{"ha":342,"x_min":96,"x_max":246,"o":"m 96 1083 l 246 1083 l 246 0 l 96 0 l 96 1083 z "},"ĺ":{"ha":342,"x_min":33,"x_max":369,"o":"m 369 1375 l 119 1167 l 33 1215 l 242 1438 l 369 1375 m 96 1083 l 246 1083 l 246 0 l 96 0 l 96 1083 z "},"ļ":{"ha":342,"x_min":35,"x_max":307,"o":"m 96 1083 l 246 1083 l 246 0 l 96 0 l 96 1083 m 157 -83 l 307 -126 l 146 -474 l 35 -443 l 157 -83 z "},"ľ":{"ha":342,"x_min":96,"x_max":589,"o":"m 96 1083 l 246 1083 l 246 0 l 96 0 l 96 1083 m 438 1083 l 589 1040 l 428 693 l 315 724 l 438 1083 z "},"m":{"ha":1106,"x_min":96,"x_max":1010,"o":"m 1010 406 l 1010 0 l 860 0 l 860 389 q 754 532 860 532 q 661 495 696 532 q 626 389 626 458 l 626 0 l 475 0 l 475 389 q 369 532 475 532 q 277 495 311 532 q 243 389 243 458 l 243 0 l 96 0 l 96 639 l 243 639 l 243 546 q 422 653 300 653 q 607 539 564 653 q 807 653 676 653 q 960 588 910 653 q 1010 406 1010 524 z "},"n":{"ha":757,"x_min":96,"x_max":661,"o":"m 507 389 q 389 532 507 532 q 285 493 325 532 q 246 389 246 454 l 246 0 l 96 0 l 96 639 l 246 639 l 246 540 q 439 653 307 653 q 604 587 547 653 q 661 406 661 521 l 661 0 l 507 0 l 507 389 z "},"ñ":{"ha":757,"x_min":96,"x_max":661,"o":"m 133 804 q 188 890 144 856 q 286 925 231 925 q 342 915 319 925 q 381 891 364 904 q 416 867 397 878 q 464 857 435 857 q 506 875 486 857 q 547 926 526 893 l 625 849 q 564 775 608 810 q 463 740 519 740 q 397 758 425 740 q 344 792 369 775 q 285 810 318 810 q 242 797 257 810 q 222 767 228 783 q 217 739 217 750 l 133 804 m 507 389 q 478 495 507 458 q 389 532 450 532 q 285 492 325 532 q 246 389 246 453 l 246 0 l 96 0 l 96 639 l 246 639 l 246 550 q 326 625 276 597 q 439 653 376 653 q 603 590 546 653 q 661 406 661 528 l 661 0 l 507 0 l 507 389 z "},"ń":{"ha":757,"x_min":96,"x_max":661,"o":"m 586 944 l 336 736 l 253 785 l 461 1007 l 586 944 m 507 389 q 478 495 507 458 q 389 532 450 532 q 285 492 325 532 q 246 389 246 453 l 246 0 l 96 0 l 96 639 l 246 639 l 246 539 q 324 622 275 592 q 439 653 372 653 q 603 590 546 653 q 661 406 661 528 l 661 0 l 507 0 l 507 389 z "},"ņ":{"ha":757,"x_min":96,"x_max":661,"o":"m 507 389 q 478 495 507 458 q 389 532 450 532 q 285 492 325 532 q 246 389 246 453 l 246 0 l 96 0 l 96 639 l 246 639 l 246 550 q 326 625 276 597 q 439 653 376 653 q 603 590 546 653 q 661 406 661 528 l 661 0 l 507 0 l 507 389 m 364 -83 l 514 -126 l 353 -474 l 242 -443 l 364 -83 z "},"ň":{"ha":757,"x_min":96,"x_max":661,"o":"m 378 876 l 519 1004 l 621 931 l 378 736 l 135 931 l 236 1004 l 378 876 m 507 389 q 478 495 507 458 q 389 532 450 532 q 285 492 325 532 q 246 389 246 453 l 246 0 l 96 0 l 96 639 l 246 639 l 246 550 q 326 625 276 597 q 439 653 376 653 q 603 590 546 653 q 661 406 661 528 l 661 0 l 507 0 l 507 389 z "},"o":{"ha":782,"x_min":47,"x_max":736,"o":"m 47 319 q 92 493 47 418 q 216 610 138 568 q 392 653 294 653 q 568 610 490 653 q 691 493 646 568 q 736 319 736 418 q 691 147 736 222 q 568 28 646 71 q 392 -14 490 -14 q 216 28 294 -14 q 92 147 138 71 q 47 319 47 222 m 201 319 q 256 174 201 231 q 392 118 311 118 q 528 174 474 118 q 582 319 582 231 q 528 465 582 410 q 392 521 474 521 q 256 465 311 521 q 201 319 201 410 z "},"ò":{"ha":782,"x_min":47,"x_max":736,"o":"m 169 965 l 296 1028 l 504 806 l 419 757 l 169 965 m 47 319 q 92 493 47 418 q 216 610 138 568 q 392 653 294 653 q 568 610 490 653 q 691 493 646 568 q 736 319 736 418 q 691 147 736 222 q 568 28 646 71 q 392 -14 490 -14 q 216 28 294 -14 q 92 147 138 71 q 47 319 47 222 m 201 319 q 256 174 201 231 q 392 118 311 118 q 528 174 474 118 q 582 319 582 231 q 528 465 582 410 q 392 521 474 521 q 256 465 311 521 q 201 319 201 410 z "},"ó":{"ha":782,"x_min":47,"x_max":736,"o":"m 614 965 l 364 757 l 278 806 l 486 1028 l 614 965 m 47 319 q 92 493 47 418 q 216 610 138 568 q 392 653 294 653 q 568 610 490 653 q 691 493 646 568 q 736 319 736 418 q 691 147 736 222 q 568 28 646 71 q 392 -14 490 -14 q 216 28 294 -14 q 92 147 138 71 q 47 319 47 222 m 201 319 q 256 174 201 231 q 392 118 311 118 q 528 174 474 118 q 582 319 582 231 q 528 465 582 410 q 392 521 474 521 q 256 465 311 521 q 201 319 201 410 z "},"ô":{"ha":782,"x_min":47,"x_max":736,"o":"m 392 885 l 249 757 l 149 831 l 392 1025 l 635 831 l 533 757 l 392 885 m 47 319 q 92 493 47 418 q 216 610 138 568 q 392 653 294 653 q 568 610 490 653 q 691 493 646 568 q 736 319 736 418 q 691 147 736 222 q 568 28 646 71 q 392 -14 490 -14 q 216 28 294 -14 q 92 147 138 71 q 47 319 47 222 m 201 319 q 256 174 201 231 q 392 118 311 118 q 528 174 474 118 q 582 319 582 231 q 528 465 582 410 q 392 521 474 521 q 256 465 311 521 q 201 319 201 410 z "},"õ":{"ha":782,"x_min":47,"x_max":736,"o":"m 144 804 q 199 890 156 856 q 297 925 242 925 q 353 915 331 925 q 392 891 375 904 q 429 867 410 878 q 478 857 449 857 q 519 875 500 857 q 560 926 539 893 l 638 849 q 576 775 621 810 q 475 740 532 740 q 409 758 438 740 q 355 792 381 775 q 296 810 329 810 q 253 797 268 810 q 234 767 239 783 q 229 739 229 750 l 144 804 m 47 319 q 92 493 47 418 q 216 610 138 568 q 392 653 294 653 q 568 610 490 653 q 691 493 646 568 q 736 319 736 418 q 691 147 736 222 q 568 28 646 71 q 392 -14 490 -14 q 216 28 294 -14 q 92 147 138 71 q 47 319 47 222 m 201 319 q 256 174 201 231 q 392 118 311 118 q 528 174 474 118 q 582 319 582 231 q 528 465 582 410 q 392 521 474 521 q 256 465 311 521 q 201 319 201 410 z "},"ö":{"ha":782,"x_min":47,"x_max":736,"o":"m 447 860 q 476 924 447 899 q 543 950 504 950 q 610 924 583 950 q 638 860 638 899 q 610 794 638 821 q 543 768 583 768 q 476 794 504 768 q 447 860 447 821 m 146 860 q 174 924 146 899 q 240 950 201 950 q 308 924 281 950 q 335 860 335 899 q 308 794 335 821 q 240 768 281 768 q 174 794 201 768 q 146 860 146 821 m 47 319 q 92 493 47 418 q 216 610 138 568 q 392 653 294 653 q 568 610 490 653 q 691 493 646 568 q 736 319 736 418 q 691 147 736 222 q 568 28 646 71 q 392 -14 490 -14 q 216 28 294 -14 q 92 147 138 71 q 47 319 47 222 m 201 319 q 256 174 201 231 q 392 118 311 118 q 528 174 474 118 q 582 319 582 231 q 528 465 582 410 q 392 521 474 521 q 256 465 311 521 q 201 319 201 410 z "},"ō":{"ha":782,"x_min":47,"x_max":736,"o":"m 142 736 l 142 872 l 640 872 l 640 736 l 142 736 m 47 319 q 92 493 47 418 q 216 610 138 568 q 392 653 294 653 q 568 610 490 653 q 691 493 646 568 q 736 319 736 418 q 691 147 736 222 q 568 28 646 71 q 392 -14 490 -14 q 216 28 294 -14 q 92 147 138 71 q 47 319 47 222 m 201 319 q 256 174 201 231 q 392 118 311 118 q 528 174 474 118 q 582 319 582 231 q 528 465 582 410 q 392 521 474 521 q 256 465 311 521 q 201 319 201 410 z "},"ŏ":{"ha":782,"x_min":47,"x_max":736,"o":"m 168 935 l 283 935 q 308 872 283 904 q 392 839 332 839 q 476 872 453 839 q 500 935 500 904 l 614 935 q 589 838 614 883 q 515 765 564 793 q 392 736 465 736 q 269 765 319 736 q 194 838 219 793 q 168 935 168 883 m 47 319 q 92 493 47 418 q 216 610 138 568 q 392 653 294 653 q 568 610 490 653 q 691 493 646 568 q 736 319 736 418 q 691 147 736 222 q 568 28 646 71 q 392 -14 490 -14 q 216 28 294 -14 q 92 147 138 71 q 47 319 47 222 m 201 319 q 256 174 201 231 q 392 118 311 118 q 528 174 474 118 q 582 319 582 231 q 528 465 582 410 q 392 521 474 521 q 256 465 311 521 q 201 319 201 410 z "},"ő":{"ha":782,"x_min":47,"x_max":736,"o":"m 271 738 l 176 765 l 326 1032 l 463 999 l 271 738 m 511 738 l 418 765 l 567 1032 l 706 999 l 511 738 m 47 319 q 92 493 47 418 q 216 610 138 568 q 392 653 294 653 q 568 610 490 653 q 691 493 646 568 q 736 319 736 418 q 691 147 736 222 q 568 28 646 71 q 392 -14 490 -14 q 216 28 294 -14 q 92 147 138 71 q 47 319 47 222 m 201 319 q 256 174 201 231 q 392 118 311 118 q 528 174 474 118 q 582 319 582 231 q 528 465 582 410 q 392 521 474 521 q 256 465 311 521 q 201 319 201 410 z "},"p":{"ha":817,"x_min":90,"x_max":771,"o":"m 242 -306 l 90 -306 l 90 639 l 242 639 l 242 532 q 332 623 276 590 q 460 656 388 656 q 614 616 543 656 q 728 501 685 576 q 771 319 771 426 q 728 138 771 213 q 614 23 685 63 q 460 -17 543 -17 q 332 16 388 -17 q 242 107 276 49 l 242 -306 m 615 319 q 558 467 615 415 q 424 519 501 519 q 339 497 381 519 q 269 429 297 474 q 242 319 242 385 q 269 210 242 254 q 339 142 297 165 q 424 119 381 119 q 558 172 501 119 q 615 319 615 224 z "},"q":{"ha":817,"x_min":47,"x_max":728,"o":"m 47 319 q 90 501 47 426 q 204 616 133 576 q 358 656 275 656 q 486 623 431 656 q 576 532 542 590 l 576 639 l 728 639 l 728 -306 l 576 -306 l 576 107 q 486 16 542 49 q 358 -17 431 -17 q 204 23 275 -17 q 90 138 133 63 q 47 319 47 213 m 203 319 q 260 172 203 224 q 394 119 317 119 q 479 142 438 119 q 549 210 521 165 q 576 319 576 254 q 549 429 576 385 q 479 497 521 474 q 394 519 438 519 q 260 467 317 519 q 203 319 203 415 z "},"r":{"ha":514,"x_min":96,"x_max":508,"o":"m 435 478 q 396 503 414 494 q 350 513 378 513 q 269 471 294 513 q 244 360 244 429 l 244 0 l 96 0 l 96 639 l 244 639 l 244 561 q 311 628 272 604 q 390 653 350 653 q 456 642 425 653 q 508 606 486 631 l 435 478 z "},"ŕ":{"ha":514,"x_min":96,"x_max":508,"o":"m 499 944 l 249 736 l 165 786 l 374 1008 l 499 944 m 435 478 q 396 503 414 494 q 350 513 378 513 q 269 471 294 513 q 244 360 244 429 l 244 0 l 96 0 l 96 639 l 244 639 l 244 561 q 311 628 272 604 q 390 653 350 653 q 456 642 425 653 q 508 606 486 631 l 435 478 z "},"ŗ":{"ha":514,"x_min":33,"x_max":508,"o":"m 435 478 q 396 503 414 494 q 350 513 378 513 q 269 471 294 513 q 244 360 244 429 l 244 0 l 96 0 l 96 639 l 244 639 l 244 561 q 311 628 272 604 q 390 653 350 653 q 456 642 425 653 q 508 606 486 631 l 435 478 m 156 -83 l 307 -126 l 146 -474 l 33 -443 l 156 -83 z "},"ř":{"ha":514,"x_min":58,"x_max":544,"o":"m 301 878 l 443 1004 l 544 931 l 301 736 l 58 931 l 158 1004 l 301 878 m 435 478 q 396 503 414 494 q 350 513 378 513 q 269 471 294 513 q 244 360 244 429 l 244 0 l 96 0 l 96 639 l 244 639 l 244 561 q 311 628 272 604 q 390 653 350 653 q 456 642 425 653 q 508 606 486 631 l 435 478 z "},"ȓ":{"ha":514,"x_min":79,"x_max":525,"o":"m 79 736 q 104 833 79 788 q 179 906 129 878 q 301 935 229 935 q 424 906 375 935 q 499 833 474 878 q 525 736 525 788 l 411 736 q 387 800 411 768 q 301 832 363 832 q 217 800 242 832 q 193 736 193 768 l 79 736 m 435 478 q 396 503 414 494 q 350 513 378 513 q 269 471 294 513 q 244 360 244 429 l 244 0 l 96 0 l 96 639 l 244 639 l 244 561 q 311 628 272 604 q 390 653 350 653 q 456 642 425 653 q 508 606 486 631 l 435 478 z "},"s":{"ha":589,"x_min":38,"x_max":551,"o":"m 125 210 q 219 131 172 158 q 314 104 265 104 q 377 123 354 104 q 400 172 400 142 q 360 238 400 214 q 257 285 321 263 q 172 324 214 301 q 102 384 129 347 q 75 479 75 421 q 106 576 75 538 q 186 633 136 614 q 294 653 236 653 q 438 621 372 653 q 542 540 503 589 l 458 451 q 383 512 428 488 q 290 536 338 536 q 238 522 258 536 q 217 482 217 508 q 256 425 217 446 q 356 381 296 404 q 453 335 408 360 q 524 275 497 311 q 551 181 551 239 q 490 35 551 90 q 324 -19 428 -19 q 152 24 225 -19 q 38 122 79 67 l 125 210 z "},"ś":{"ha":589,"x_min":32,"x_max":551,"o":"m 544 944 l 294 736 l 208 785 l 417 1007 l 544 944 m 122 232 q 208 140 158 172 q 306 108 257 108 q 373 124 349 108 q 397 174 397 139 q 374 224 397 204 q 316 258 351 243 q 243 289 281 274 q 160 330 200 307 q 94 388 119 353 q 68 478 68 424 q 100 574 68 535 q 184 633 132 613 q 294 653 236 653 q 442 621 372 653 q 542 540 511 589 l 458 451 q 384 507 429 486 q 300 528 339 528 q 238 515 261 528 q 215 471 215 503 q 240 431 215 449 q 301 400 264 414 q 375 371 338 386 q 461 328 421 353 q 526 267 501 303 q 551 181 551 231 q 486 28 551 75 q 313 -19 421 -19 q 142 28 219 -19 q 32 144 65 75 l 122 232 z "},"ŝ":{"ha":589,"x_min":32,"x_max":551,"o":"m 301 863 l 158 736 l 58 810 l 301 1004 l 544 810 l 443 736 l 301 863 m 122 232 q 208 140 158 172 q 306 108 257 108 q 373 124 349 108 q 397 174 397 139 q 374 224 397 204 q 316 258 351 243 q 243 289 281 274 q 160 330 200 307 q 94 388 119 353 q 68 478 68 424 q 100 574 68 535 q 184 633 132 613 q 294 653 236 653 q 442 621 372 653 q 542 540 511 589 l 458 451 q 384 507 429 486 q 300 528 339 528 q 238 515 261 528 q 215 471 215 503 q 240 431 215 449 q 301 400 264 414 q 375 371 338 386 q 461 328 421 353 q 526 267 501 303 q 551 181 551 231 q 486 28 551 75 q 313 -19 421 -19 q 142 28 219 -19 q 32 144 65 75 l 122 232 z "},"ş":{"ha":589,"x_min":32,"x_max":551,"o":"m 119 233 q 222 139 172 171 q 311 107 272 107 q 373 123 349 107 q 397 174 397 139 q 355 242 397 218 q 257 286 313 265 q 171 325 213 304 q 102 381 129 346 q 75 478 75 417 q 106 576 75 538 q 186 635 136 615 q 294 654 236 654 q 438 622 372 654 q 542 540 503 589 l 458 453 q 386 511 429 488 q 304 535 343 535 q 241 522 265 535 q 217 478 217 508 q 240 433 217 450 q 301 404 264 417 q 375 376 338 392 q 461 334 421 358 q 526 274 501 310 q 551 182 551 238 q 499 40 551 88 q 363 -17 447 -8 l 324 -78 q 337 -76 331 -76 q 350 -75 343 -75 q 425 -104 388 -75 q 463 -192 463 -133 q 439 -267 463 -236 q 378 -315 415 -299 q 300 -331 340 -331 q 219 -319 253 -331 q 147 -276 185 -307 l 199 -206 q 289 -239 240 -239 q 361 -186 361 -239 q 340 -149 361 -160 q 285 -139 319 -139 q 248 -143 275 -139 q 193 -162 221 -147 l 264 -12 q 131 44 190 1 q 32 144 72 86 l 119 233 z "},"š":{"ha":589,"x_min":32,"x_max":551,"o":"m 294 871 l 436 997 l 538 924 l 294 729 l 51 924 l 151 997 l 294 871 m 122 232 q 208 140 158 172 q 306 108 257 108 q 373 124 349 108 q 397 174 397 139 q 374 224 397 204 q 316 258 351 243 q 243 289 281 274 q 160 330 200 307 q 94 388 119 353 q 68 478 68 424 q 100 574 68 535 q 184 633 132 613 q 294 653 236 653 q 442 621 372 653 q 542 540 511 589 l 458 451 q 384 507 429 486 q 300 528 339 528 q 238 515 261 528 q 215 471 215 503 q 240 431 215 449 q 301 400 264 414 q 375 371 338 386 q 461 328 421 353 q 526 267 501 303 q 551 181 551 231 q 486 28 551 75 q 313 -19 421 -19 q 142 28 219 -19 q 32 144 65 75 l 122 232 z "},"ș":{"ha":589,"x_min":32,"x_max":551,"o":"m 122 232 q 208 140 158 172 q 306 108 257 108 q 373 124 349 108 q 397 174 397 139 q 374 224 397 204 q 316 258 351 243 q 243 289 281 274 q 160 330 200 307 q 94 388 119 353 q 68 478 68 424 q 100 574 68 535 q 184 633 132 613 q 294 653 236 653 q 442 621 372 653 q 542 540 511 589 l 458 451 q 384 507 429 486 q 300 528 339 528 q 238 515 261 528 q 215 471 215 503 q 240 431 215 449 q 301 400 264 414 q 375 371 338 386 q 461 328 421 353 q 526 267 501 303 q 551 181 551 231 q 486 28 551 75 q 313 -19 421 -19 q 142 28 219 -19 q 32 144 65 75 l 122 232 m 285 -96 l 435 -139 l 274 -486 l 163 -456 l 285 -96 z "},"t":{"ha":376,"x_min":7,"x_max":369,"o":"m 7 639 l 114 639 l 114 861 l 263 861 l 263 639 l 369 639 l 369 507 l 263 507 l 263 0 l 114 0 l 114 507 l 7 507 l 7 639 z "},"ţ":{"ha":376,"x_min":-35,"x_max":369,"o":"m 132 14 l 244 13 l 143 -149 q 157 -147 150 -147 q 171 -147 164 -147 q 245 -176 208 -147 q 282 -262 282 -204 q 258 -338 282 -307 q 197 -385 235 -369 q 119 -401 160 -401 q 38 -390 72 -401 q -35 -347 3 -378 l 19 -276 q 108 -311 63 -311 q 181 -258 181 -311 q 160 -221 181 -232 q 106 -210 140 -210 q 68 -214 96 -210 q 13 -233 40 -218 l 132 14 m 7 639 l 114 639 l 114 861 l 263 861 l 263 639 l 369 639 l 369 507 l 263 507 l 263 0 l 114 0 l 114 507 l 7 507 l 7 639 z "},"ť":{"ha":560,"x_min":7,"x_max":608,"o":"m 457 1111 l 608 1069 l 447 722 l 335 751 l 457 1111 m 7 639 l 114 639 l 114 861 l 263 861 l 263 639 l 369 639 l 369 507 l 263 507 l 263 0 l 114 0 l 114 507 l 7 507 l 7 639 z "},"ț":{"ha":376,"x_min":7,"x_max":369,"o":"m 7 639 l 114 639 l 114 861 l 263 861 l 263 639 l 369 639 l 369 507 l 263 507 l 263 0 l 114 0 l 114 507 l 7 507 l 7 639 m 174 -83 l 325 -126 l 164 -474 l 51 -443 l 174 -83 z "},"u":{"ha":757,"x_min":96,"x_max":661,"o":"m 250 250 q 279 144 250 182 q 368 107 308 107 q 472 147 432 107 q 511 250 511 186 l 511 639 l 661 639 l 661 0 l 511 0 l 511 99 q 318 -14 450 -14 q 153 53 211 -14 q 96 233 96 119 l 96 639 l 250 639 l 250 250 z "},"ù":{"ha":757,"x_min":96,"x_max":661,"o":"m 197 965 l 325 1028 l 533 806 l 447 757 l 197 965 m 250 250 q 278 144 250 181 q 368 107 307 107 q 472 147 432 107 q 511 250 511 186 l 511 639 l 661 639 l 661 0 l 511 0 l 511 89 q 431 14 481 42 q 318 -14 381 -14 q 153 49 211 -14 q 96 233 96 111 l 96 639 l 250 639 l 250 250 z "},"ú":{"ha":757,"x_min":96,"x_max":661,"o":"m 558 965 l 308 757 l 225 806 l 433 1028 l 558 965 m 250 250 q 278 144 250 181 q 368 107 307 107 q 472 147 432 107 q 511 250 511 186 l 511 639 l 661 639 l 661 0 l 511 0 l 511 89 q 431 14 481 42 q 318 -14 381 -14 q 153 49 211 -14 q 96 233 96 111 l 96 639 l 250 639 l 250 250 z "},"û":{"ha":757,"x_min":96,"x_max":661,"o":"m 378 885 l 236 757 l 135 831 l 378 1025 l 621 831 l 519 757 l 378 885 m 250 250 q 278 144 250 181 q 368 107 307 107 q 472 147 432 107 q 511 250 511 186 l 511 639 l 661 639 l 661 0 l 511 0 l 511 89 q 431 14 481 42 q 318 -14 381 -14 q 153 49 211 -14 q 96 233 96 111 l 96 639 l 250 639 l 250 250 z "},"ü":{"ha":757,"x_min":96,"x_max":661,"o":"m 436 849 q 463 914 436 888 q 529 940 490 940 q 597 914 569 940 q 625 849 625 888 q 597 783 625 810 q 529 757 569 757 q 463 783 490 757 q 436 849 436 810 m 133 849 q 161 914 133 888 q 228 940 189 940 q 295 914 268 940 q 322 849 322 888 q 295 783 322 810 q 228 757 268 757 q 161 783 189 757 q 133 849 133 810 m 250 250 q 278 144 250 181 q 368 107 307 107 q 472 147 432 107 q 511 250 511 186 l 511 639 l 661 639 l 661 0 l 511 0 l 511 89 q 431 14 481 42 q 318 -14 381 -14 q 153 49 211 -14 q 96 233 96 111 l 96 639 l 250 639 l 250 250 z "},"ũ":{"ha":757,"x_min":96,"x_max":661,"o":"m 132 804 q 186 890 143 856 q 285 925 229 925 q 340 915 318 925 q 380 891 363 904 q 416 867 397 878 q 464 857 435 857 q 506 875 486 857 q 547 926 526 893 l 625 849 q 564 775 608 810 q 463 740 519 740 q 397 758 425 740 q 342 792 368 775 q 283 810 317 810 q 241 797 256 810 q 222 767 226 783 q 217 739 217 750 l 132 804 m 250 250 q 278 144 250 181 q 368 107 307 107 q 472 147 432 107 q 511 250 511 186 l 511 639 l 661 639 l 661 0 l 511 0 l 511 100 q 433 17 482 47 q 318 -14 385 -14 q 153 49 211 -14 q 96 233 96 111 l 96 639 l 250 639 l 250 250 z "},"ū":{"ha":757,"x_min":96,"x_max":661,"o":"m 129 736 l 129 872 l 628 872 l 628 736 l 129 736 m 250 250 q 278 144 250 181 q 368 107 307 107 q 472 147 432 107 q 511 250 511 186 l 511 639 l 661 639 l 661 0 l 511 0 l 511 100 q 433 17 482 47 q 318 -14 385 -14 q 153 49 211 -14 q 96 233 96 111 l 96 639 l 250 639 l 250 250 z "},"ŭ":{"ha":757,"x_min":96,"x_max":661,"o":"m 156 935 l 269 935 q 294 872 269 904 q 379 839 319 839 q 464 872 440 839 q 488 935 488 904 l 601 935 q 576 838 601 883 q 502 765 551 793 q 379 736 453 736 q 257 765 307 736 q 181 838 207 793 q 156 935 156 883 m 250 250 q 278 144 250 181 q 368 107 307 107 q 472 147 432 107 q 511 250 511 186 l 511 639 l 661 639 l 661 0 l 511 0 l 511 100 q 433 17 482 47 q 318 -14 385 -14 q 153 49 211 -14 q 96 233 96 111 l 96 639 l 250 639 l 250 250 z "},"ů":{"ha":757,"x_min":96,"x_max":661,"o":"m 224 883 q 270 991 224 950 q 378 1032 317 1032 q 486 991 439 1032 q 533 883 533 950 q 486 776 533 817 q 378 736 439 736 q 270 776 317 736 q 224 883 224 817 m 310 883 q 331 832 310 850 q 378 814 351 814 q 426 832 404 814 q 447 883 447 850 q 426 935 447 917 q 378 954 404 954 q 331 935 351 954 q 310 883 310 917 m 250 250 q 278 144 250 181 q 368 107 307 107 q 472 147 432 107 q 511 250 511 186 l 511 639 l 661 639 l 661 0 l 511 0 l 511 100 q 433 17 482 47 q 318 -14 385 -14 q 153 49 211 -14 q 96 233 96 111 l 96 639 l 250 639 l 250 250 z "},"ű":{"ha":757,"x_min":96,"x_max":693,"o":"m 258 738 l 164 765 l 314 1032 l 450 999 l 258 738 m 499 738 l 406 765 l 554 1032 l 693 999 l 499 738 m 250 250 q 279 144 250 182 q 368 107 308 107 q 472 147 432 107 q 511 250 511 186 l 511 639 l 661 639 l 661 0 l 511 0 l 511 99 q 318 -14 450 -14 q 153 53 211 -14 q 96 233 96 119 l 96 639 l 250 639 l 250 250 z "},"ų":{"ha":757,"x_min":96,"x_max":661,"o":"m 386 -194 l 432 -275 q 385 -313 417 -296 q 303 -331 353 -331 q 180 -293 224 -331 q 136 -192 136 -256 q 163 -112 136 -149 q 231 -46 189 -76 q 322 10 274 -15 l 379 -25 q 291 -87 325 -50 q 257 -161 257 -125 q 272 -208 257 -194 q 317 -222 288 -222 q 357 -215 342 -222 q 386 -194 372 -208 m 250 250 q 279 144 250 182 q 368 107 308 107 q 472 147 432 107 q 511 250 511 186 l 511 639 l 661 639 l 661 0 l 511 0 l 511 99 q 318 -14 450 -14 q 153 53 211 -14 q 96 233 96 119 l 96 639 l 250 639 l 250 250 z "},"v":{"ha":658,"x_min":-1,"x_max":661,"o":"m -1 639 l 164 639 l 331 226 l 497 639 l 661 639 l 331 -60 l -1 639 z "},"w":{"ha":989,"x_min":0,"x_max":990,"o":"m 0 639 l 163 639 l 313 260 l 490 688 l 676 257 l 826 639 l 990 639 l 690 -46 l 490 386 l 299 -46 l 0 639 z "},"ŵ":{"ha":989,"x_min":0,"x_max":990,"o":"m 490 897 l 347 771 l 246 843 l 490 1038 l 732 843 l 632 771 l 490 897 m 0 639 l 163 639 l 313 260 l 490 688 l 676 257 l 826 639 l 990 639 l 690 -46 l 490 386 l 299 -46 l 0 639 z "},"ẁ":{"ha":989,"x_min":0,"x_max":990,"o":"m 490 771 l 240 979 l 367 1042 l 575 819 l 490 771 m 0 639 l 163 639 l 313 260 l 490 688 l 676 257 l 826 639 l 990 639 l 690 -46 l 490 386 l 299 -46 l 0 639 z "},"ẃ":{"ha":989,"x_min":0,"x_max":990,"o":"m 489 771 l 404 818 l 613 1040 l 739 979 l 489 771 m 0 639 l 163 639 l 313 260 l 490 688 l 676 257 l 826 639 l 990 639 l 690 -46 l 490 386 l 299 -46 l 0 639 z "},"ẅ":{"ha":989,"x_min":0,"x_max":990,"o":"m 546 863 q 574 928 546 901 q 640 954 601 954 q 708 928 681 954 q 735 863 735 901 q 708 797 735 824 q 640 771 681 771 q 574 797 601 771 q 546 863 546 824 m 243 863 q 272 928 243 901 q 339 954 300 954 q 406 928 379 954 q 433 863 433 901 q 406 797 433 824 q 339 771 379 771 q 272 797 300 771 q 243 863 243 824 m 0 639 l 163 639 l 313 260 l 490 688 l 676 257 l 826 639 l 990 639 l 690 -46 l 490 386 l 299 -46 l 0 639 z "},"ẇ":{"ha":989,"x_min":0,"x_max":990,"o":"m 396 863 q 424 928 396 901 q 490 954 451 954 q 558 928 531 954 q 585 863 585 901 q 558 797 585 824 q 490 771 531 771 q 424 797 451 771 q 396 863 396 824 m 0 639 l 163 639 l 313 260 l 490 688 l 676 257 l 826 639 l 990 639 l 690 -46 l 490 386 l 299 -46 l 0 639 z "},"ẉ":{"ha":989,"x_min":0,"x_max":990,"o":"m 400 -221 q 428 -156 400 -182 q 494 -129 456 -129 q 562 -156 535 -129 q 589 -221 589 -182 q 562 -286 589 -260 q 494 -312 535 -312 q 428 -286 456 -312 q 400 -221 400 -260 m 0 639 l 163 639 l 313 260 l 490 688 l 676 257 l 826 639 l 990 639 l 690 -46 l 490 386 l 299 -46 l 0 639 z "},"x":{"ha":644,"x_min":0,"x_max":646,"o":"m 464 639 l 632 639 l 403 329 l 646 0 l 478 0 l 325 219 l 172 0 l 0 0 l 244 329 l 14 639 l 186 639 l 325 439 l 464 639 z "},"y":{"ha":656,"x_min":-6,"x_max":661,"o":"m 661 639 l 244 -306 l 85 -306 l 253 75 l -6 639 l 167 639 l 335 224 l 500 639 l 661 639 z "},"ý":{"ha":656,"x_min":-6,"x_max":661,"o":"m 526 965 l 276 757 l 190 806 l 399 1028 l 526 965 m 661 639 l 244 -306 l 85 -306 l 253 75 l -6 639 l 167 639 l 335 224 l 500 639 l 661 639 z "},"ÿ":{"ha":656,"x_min":-6,"x_max":661,"o":"m 385 828 q 413 893 385 867 q 479 919 440 919 q 547 893 519 919 q 574 828 574 867 q 547 763 574 789 q 479 736 519 736 q 413 763 440 736 q 385 828 385 789 m 82 828 q 110 893 82 867 q 178 919 139 919 q 245 893 218 919 q 272 828 272 867 q 245 763 272 789 q 178 736 218 736 q 110 763 139 736 q 82 828 82 789 m 661 639 l 244 -306 l 85 -306 l 253 75 l -6 639 l 167 639 l 335 224 l 500 639 l 661 639 z "},"ŷ":{"ha":656,"x_min":-6,"x_max":661,"o":"m 328 863 l 186 736 l 85 810 l 328 1004 l 571 810 l 471 736 l 328 863 m 661 639 l 244 -306 l 85 -306 l 253 75 l -6 639 l 167 639 l 335 224 l 500 639 l 661 639 z "},"ỳ":{"ha":656,"x_min":-6,"x_max":661,"o":"m 328 736 l 78 944 l 204 1007 l 413 785 l 328 736 m 661 639 l 244 -306 l 85 -306 l 253 75 l -6 639 l 167 639 l 335 224 l 500 639 l 661 639 z "},"z":{"ha":672,"x_min":21,"x_max":653,"o":"m 392 500 l 69 500 l 69 639 l 653 639 l 288 139 l 618 139 l 618 0 l 21 0 l 392 500 z "},"ź":{"ha":672,"x_min":21,"x_max":653,"o":"m 590 965 l 340 757 l 256 806 l 464 1028 l 590 965 m 392 500 l 69 500 l 69 639 l 653 639 l 288 139 l 618 139 l 618 0 l 21 0 l 392 500 z "},"ż":{"ha":672,"x_min":21,"x_max":653,"o":"m 267 860 q 294 924 267 899 q 361 950 322 950 q 428 924 401 950 q 456 860 456 899 q 428 794 456 821 q 361 768 401 768 q 294 794 322 768 q 267 860 267 821 m 392 500 l 69 500 l 69 639 l 653 639 l 288 139 l 618 139 l 618 0 l 21 0 l 392 500 z "},"ž":{"ha":669,"x_min":21,"x_max":653,"o":"m 361 876 l 504 1003 l 604 931 l 361 736 l 118 931 l 218 1003 l 361 876 m 393 500 l 69 500 l 69 639 l 653 639 l 288 139 l 618 139 l 618 0 l 21 0 l 393 500 z "},"ß":{"ha":806,"x_min":86,"x_max":782,"o":"m 492 -17 q 380 6 432 -17 q 292 63 328 28 l 350 176 q 417 131 381 149 q 490 114 453 114 q 587 153 549 114 q 625 249 625 193 q 602 323 625 293 q 546 376 579 353 q 478 422 513 399 q 422 476 444 446 q 399 550 399 506 q 420 628 399 594 q 471 695 442 663 q 522 765 500 728 q 543 853 543 801 q 501 942 543 917 q 400 968 458 968 q 282 927 328 968 q 236 796 236 886 l 238 -3 l 86 -3 l 86 814 q 174 1025 86 946 q 414 1104 263 1104 q 560 1079 496 1104 q 663 1003 625 1054 q 700 875 700 953 q 679 763 700 807 q 631 687 658 718 q 582 626 603 656 q 561 558 561 597 q 583 510 561 531 q 638 469 606 489 q 704 424 671 450 q 760 358 738 397 q 782 258 782 318 q 742 119 782 182 q 637 20 703 57 q 492 -17 571 -17 z "},"æ":{"ha":1185,"x_min":39,"x_max":1138,"o":"m 294 -14 q 108 37 176 -14 q 39 175 39 88 q 115 333 39 274 q 313 393 190 393 q 394 385 356 393 q 479 356 432 376 l 479 407 q 447 500 479 468 q 353 532 414 532 q 251 515 306 532 q 157 469 197 497 l 97 578 q 360 654 221 654 q 576 518 546 654 q 685 617 617 582 q 839 653 754 653 q 997 613 929 653 q 1101 499 1064 572 q 1138 326 1138 425 q 1135 285 1138 299 l 639 285 q 693 155 647 200 q 818 110 739 110 q 924 135 878 110 q 1001 211 971 160 l 1131 160 q 811 -14 1026 -14 q 655 20 717 -14 q 556 129 593 54 q 465 24 533 61 q 294 -14 396 -14 m 815 539 q 701 499 746 539 q 642 389 656 460 l 975 389 q 928 499 971 460 q 815 539 886 539 m 308 100 q 483 228 453 100 l 481 265 q 335 297 415 297 q 190 189 190 297 q 308 100 190 100 z "},"ð":{"ha":828,"x_min":69,"x_max":758,"o":"m 413 -17 q 235 28 313 -17 q 114 150 158 72 q 69 328 69 228 q 107 492 69 421 q 210 603 144 563 q 360 643 275 643 q 538 593 450 643 q 408 761 485 678 l 240 701 l 217 771 l 353 819 q 221 938 294 876 l 324 1026 q 481 865 413 942 l 643 922 l 667 853 l 533 806 q 703 551 649 668 q 758 328 758 433 q 714 150 758 228 q 592 28 669 72 q 413 -17 514 -17 m 414 121 q 551 177 497 121 q 604 319 604 233 q 550 464 604 407 q 414 521 496 521 q 278 464 332 521 q 224 319 224 407 q 277 177 224 233 q 414 121 331 121 z "},"ø":{"ha":758,"x_min":47,"x_max":736,"o":"m 47 319 q 93 494 47 419 q 217 611 139 569 q 392 653 294 653 q 558 615 483 653 l 619 697 l 689 664 l 622 574 q 706 465 675 531 q 736 319 736 400 q 690 144 736 219 q 567 28 644 69 q 392 -14 489 -14 q 215 28 294 -14 l 147 -64 l 78 -31 l 154 71 q 76 178 104 115 q 47 319 47 242 m 194 319 q 206 245 194 279 q 239 186 218 211 l 476 506 q 392 524 438 524 q 292 497 336 524 q 221 425 247 471 q 194 319 194 379 m 589 319 q 575 398 589 363 q 538 460 561 433 l 297 138 q 392 115 340 115 q 532 172 475 115 q 589 319 589 228 z "},"þ":{"ha":817,"x_min":90,"x_max":771,"o":"m 242 -306 l 90 -306 l 90 1083 l 242 1083 l 242 533 q 460 653 317 653 q 614 613 543 653 q 728 499 685 574 q 771 319 771 425 q 728 140 771 215 q 614 26 685 65 q 460 -14 543 -14 q 242 106 317 -14 l 242 -306 m 615 319 q 558 469 615 415 q 424 522 501 522 q 339 499 381 522 q 269 430 297 475 q 242 319 242 385 q 269 209 242 254 q 339 140 297 164 q 424 117 381 117 q 558 170 501 117 q 615 319 615 224 z "},"đ":{"ha":817,"x_min":47,"x_max":857,"o":"m 47 319 q 90 499 47 425 q 204 613 133 574 q 358 653 275 653 q 576 533 501 653 l 576 806 l 410 806 l 410 924 l 576 924 l 576 1083 l 728 1083 l 728 924 l 857 924 l 857 806 l 728 806 l 728 0 l 576 0 l 576 106 q 358 -14 501 -14 q 204 26 275 -14 q 90 140 133 65 q 47 319 47 215 m 203 319 q 260 170 203 224 q 394 117 317 117 q 479 140 438 117 q 549 209 521 164 q 576 319 576 254 q 549 430 576 385 q 479 499 521 475 q 394 522 438 522 q 260 469 317 522 q 203 319 203 415 z "},"ħ":{"ha":753,"x_min":7,"x_max":658,"o":"m 507 389 q 478 495 507 458 q 389 532 450 532 q 285 492 325 532 q 246 389 246 453 l 246 0 l 96 0 l 96 853 l 7 853 l 7 988 l 96 988 l 96 1083 l 246 1083 l 246 988 l 451 988 l 451 853 l 246 853 l 246 543 q 324 626 275 594 q 439 657 372 657 q 602 594 546 657 q 658 410 658 532 l 658 0 l 507 0 l 507 389 z "},"ı":{"ha":369,"x_min":111,"x_max":258,"o":"m 111 639 l 258 639 l 258 0 l 111 0 l 111 639 z "},"ĳ":{"ha":728,"x_min":90,"x_max":638,"o":"m 449 893 q 476 958 449 932 q 543 985 504 985 q 610 958 583 985 q 638 893 638 932 q 610 828 638 854 q 543 801 583 801 q 476 828 504 801 q 449 893 449 854 m 90 893 q 118 958 90 932 q 185 985 146 985 q 252 958 225 985 q 279 893 279 932 q 252 828 279 854 q 185 801 225 801 q 118 828 146 801 q 90 893 90 854 m 335 -137 q 367 -167 350 -160 q 403 -174 385 -174 q 452 -147 435 -174 q 469 -61 469 -121 l 469 639 l 617 639 l 617 -90 q 563 -259 617 -201 q 410 -317 510 -317 q 319 -296 354 -317 q 265 -254 283 -275 l 335 -137 m 111 639 l 258 639 l 258 0 l 111 0 l 111 639 z "},"ĸ":{"ha":686,"x_min":90,"x_max":683,"o":"m 90 639 l 238 639 l 238 414 l 472 639 l 656 639 l 381 375 l 683 0 l 501 0 l 238 325 l 238 0 l 90 0 l 90 639 z "},"ŀ":{"ha":572,"x_min":96,"x_max":515,"o":"m 96 1083 l 246 1083 l 246 0 l 96 0 l 96 1083 m 319 574 q 348 642 319 614 q 418 669 376 669 q 488 642 460 669 q 515 574 515 614 q 488 505 515 535 q 418 475 460 475 q 348 505 376 475 q 319 574 319 535 z "},"ł":{"ha":342,"x_min":-37,"x_max":393,"o":"m 0 456 l -37 542 l 96 625 l 96 1083 l 246 1083 l 246 719 l 354 788 l 393 701 l 246 610 l 246 0 l 96 0 l 96 515 l 0 456 z "},"ŉ":{"ha":943,"x_min":90,"x_max":849,"o":"m 169 972 l 338 972 l 196 639 l 90 639 l 169 972 m 435 639 l 435 551 q 515 626 467 599 q 626 653 564 653 q 791 590 733 653 q 849 406 849 528 l 849 0 l 694 0 l 694 389 q 575 532 694 532 q 473 492 511 532 q 435 389 435 453 l 435 0 l 283 0 l 283 639 l 435 639 z "},"ŋ":{"ha":757,"x_min":96,"x_max":661,"o":"m 447 -317 q 303 -254 358 -317 l 374 -137 q 440 -174 397 -174 q 507 -61 507 -174 l 507 389 q 389 532 507 532 q 286 492 326 532 q 246 388 246 453 l 246 0 l 96 0 l 96 639 l 246 639 l 246 542 q 439 653 310 653 q 604 589 547 653 q 661 406 661 525 l 661 -90 q 606 -258 661 -200 q 447 -317 551 -317 z "},"œ":{"ha":1250,"x_min":49,"x_max":1201,"o":"m 49 319 q 92 498 49 424 q 207 613 135 572 q 365 653 279 653 q 528 603 461 653 q 625 465 596 554 q 737 602 661 551 q 914 653 813 653 q 1056 613 990 653 q 1161 499 1121 572 q 1201 325 1201 426 q 1201 305 1201 317 q 1200 285 1201 293 l 704 285 q 760 153 713 199 q 883 107 807 107 q 992 135 949 107 q 1067 211 1036 164 l 1196 160 q 1075 35 1150 85 q 897 -14 1000 -14 q 731 37 803 -14 q 625 172 660 88 q 528 35 594 83 q 365 -14 461 -14 q 207 26 279 -14 q 92 142 135 67 q 49 319 49 217 m 883 539 q 766 499 817 539 q 707 388 715 460 l 1039 388 q 992 497 1031 456 q 883 539 954 539 m 200 319 q 256 170 200 222 q 390 118 313 118 q 508 170 458 118 q 558 319 558 222 q 508 469 558 418 q 390 521 458 521 q 256 469 313 521 q 200 319 200 418 z "},"ŧ":{"ha":376,"x_min":7,"x_max":369,"o":"m 29 244 l 29 379 l 346 379 l 346 244 l 29 244 m 7 639 l 114 639 l 114 861 l 263 861 l 263 639 l 369 639 l 369 507 l 263 507 l 263 0 l 114 0 l 114 507 l 7 507 l 7 639 z "},"ƒ":{"ha":833,"x_min":132,"x_max":729,"o":"m 278 -278 q 208 -262 242 -276 q 132 -214 174 -249 l 200 -103 q 235 -131 221 -124 q 261 -139 249 -139 q 310 -109 292 -139 q 332 -25 328 -79 l 363 507 l 272 507 l 283 639 l 369 639 l 382 871 q 444 1040 389 978 q 585 1099 499 1101 q 654 1083 621 1097 q 729 1035 688 1069 l 661 924 q 626 952 640 944 q 600 960 613 960 q 552 929 569 960 q 531 844 535 899 l 517 639 l 633 639 l 625 507 l 510 507 l 479 -50 q 419 -217 474 -156 q 278 -278 364 -279 z "},"ȷ":{"ha":358,"x_min":-103,"x_max":249,"o":"m -32 -137 q -1 -167 -17 -160 q 33 -174 15 -174 q 83 -147 65 -174 q 100 -61 100 -121 l 100 639 l 249 639 l 249 -90 q 194 -259 249 -201 q 40 -317 140 -317 q -50 -296 -15 -317 q -103 -254 -85 -275 l -32 -137 z "},"μ":{"ha":754,"x_min":96,"x_max":661,"o":"m 250 639 l 250 264 q 278 158 250 194 q 368 121 307 121 q 472 160 432 121 q 511 264 511 200 l 511 639 l 661 639 l 661 0 l 511 0 l 511 81 q 440 14 483 39 q 344 -11 397 -11 q 292 -5 317 -11 q 243 15 267 1 l 243 -444 l 96 -444 l 96 639 l 250 639 z "},"π":{"ha":783,"x_min":42,"x_max":729,"o":"m 42 639 l 729 639 l 729 507 l 618 507 l 618 217 q 628 151 618 171 q 654 125 638 131 q 692 119 671 119 l 692 -12 q 572 -1 621 -12 q 498 50 524 11 q 472 168 472 89 l 472 507 l 271 507 l 271 0 l 125 0 l 125 507 l 42 507 l 42 639 z "},"а":{"ha":706,"x_min":39,"x_max":626,"o":"m 157 469 l 97 578 q 208 629 142 604 q 360 654 274 654 q 552 602 478 654 q 626 456 626 550 l 626 0 l 479 0 l 479 92 q 392 13 450 40 q 263 -14 335 -14 q 103 36 168 -14 q 39 183 39 86 q 113 338 39 282 q 313 393 186 393 q 408 380 365 393 q 479 350 450 367 l 479 439 q 442 508 479 483 q 353 532 406 532 q 233 508 285 532 q 157 469 181 485 m 190 189 q 225 122 190 144 q 308 100 260 100 q 431 134 382 100 q 479 253 479 168 l 479 265 q 335 297 417 297 q 226 268 263 297 q 190 189 190 239 z "},"б":{"ha":792,"x_min":49,"x_max":744,"o":"m 49 403 q 73 633 49 533 q 159 803 97 732 q 331 914 221 874 q 473 991 425 949 q 531 1083 521 1033 l 678 1083 q 590 920 668 990 q 399 810 513 850 q 275 738 321 783 q 208 634 229 692 q 182 515 186 576 q 274 617 217 581 q 407 653 332 653 q 581 610 504 653 q 701 492 657 567 q 744 319 744 417 q 700 148 744 224 q 578 29 656 72 q 400 -14 501 -14 q 220 33 300 -14 q 94 172 140 79 q 49 403 49 265 m 208 319 q 264 174 208 231 q 400 118 319 118 q 536 174 482 118 q 590 319 590 231 q 536 465 590 410 q 400 521 482 521 q 311 498 356 521 q 238 430 267 475 q 208 319 208 385 z "},"в":{"ha":668,"x_min":104,"x_max":628,"o":"m 104 639 l 381 639 q 490 622 440 639 q 569 566 539 604 q 600 465 600 528 q 571 376 600 411 q 494 324 542 342 q 591 276 554 311 q 628 174 628 242 q 580 51 628 101 q 422 0 532 0 l 104 0 l 104 639 m 363 528 l 251 528 l 251 378 l 363 378 q 429 400 404 378 q 454 454 454 422 q 429 507 454 486 q 363 528 404 528 m 376 268 l 251 268 l 251 111 l 376 111 q 456 135 431 111 q 482 190 482 158 q 456 245 482 222 q 376 268 431 268 z "},"г":{"ha":474,"x_min":100,"x_max":468,"o":"m 100 639 l 468 639 l 468 507 l 250 507 l 250 0 l 100 0 l 100 639 z "},"ѓ":{"ha":474,"x_min":100,"x_max":535,"o":"m 535 944 l 285 736 l 200 785 l 408 1007 l 535 944 m 100 639 l 468 639 l 468 507 l 250 507 l 250 0 l 100 0 l 100 639 z "},"д":{"ha":938,"x_min":56,"x_max":875,"o":"m 729 0 l 208 0 l 208 -125 l 56 -125 l 56 129 l 174 129 l 465 688 l 757 129 l 875 129 l 875 -125 l 729 -125 l 729 0 m 465 422 l 332 129 l 599 129 l 465 422 z "},"е":{"ha":749,"x_min":47,"x_max":700,"o":"m 694 160 q 621 69 663 108 q 519 8 579 29 q 374 -14 460 -14 q 201 29 275 -14 q 88 148 128 72 q 47 319 47 224 q 49 354 47 338 q 53 388 50 371 q 158 579 72 506 q 381 653 244 653 q 615 565 529 653 q 700 326 700 478 q 700 307 700 318 q 699 285 700 296 l 201 285 q 258 153 210 197 q 381 110 307 110 q 491 137 446 110 q 564 211 536 164 l 694 160 m 379 539 q 263 499 311 539 q 204 389 214 460 l 538 389 q 491 498 529 457 q 379 539 453 539 z "},"ѐ":{"ha":749,"x_min":47,"x_max":700,"o":"m 163 944 l 289 1007 l 497 785 l 413 736 l 163 944 m 694 160 q 621 69 663 108 q 519 8 579 29 q 374 -14 460 -14 q 201 29 275 -14 q 88 148 128 72 q 47 319 47 224 q 49 354 47 338 q 53 388 50 371 q 158 579 72 506 q 381 653 244 653 q 615 565 529 653 q 700 326 700 478 q 700 307 700 318 q 699 285 700 296 l 201 285 q 258 153 210 197 q 381 110 307 110 q 491 137 446 110 q 564 211 536 164 l 694 160 m 379 539 q 263 499 311 539 q 204 389 214 460 l 538 389 q 491 498 529 457 q 379 539 453 539 z "},"ё":{"ha":749,"x_min":47,"x_max":700,"o":"m 438 828 q 465 893 438 867 q 532 919 493 919 q 599 893 572 919 q 626 828 626 867 q 599 763 626 789 q 532 736 572 736 q 465 763 493 736 q 438 828 438 789 m 135 828 q 163 893 135 867 q 229 919 190 919 q 297 893 269 919 q 325 828 325 867 q 297 763 325 789 q 229 736 269 736 q 163 763 190 736 q 135 828 135 789 m 694 160 q 621 69 663 108 q 519 8 579 29 q 374 -14 460 -14 q 201 29 275 -14 q 88 148 128 72 q 47 319 47 224 q 49 354 47 338 q 53 388 50 371 q 158 579 72 506 q 381 653 244 653 q 615 565 529 653 q 700 326 700 478 q 700 307 700 318 q 699 285 700 296 l 201 285 q 258 153 210 197 q 381 110 307 110 q 491 137 446 110 q 564 211 536 164 l 694 160 m 379 539 q 263 499 311 539 q 204 389 214 460 l 538 389 q 491 498 529 457 q 379 539 453 539 z "},"ж":{"ha":1051,"x_min":0,"x_max":1051,"o":"m 208 639 l 456 404 l 456 639 l 597 639 l 597 406 l 843 639 l 1024 639 l 740 364 l 1051 0 l 871 0 l 597 336 l 597 0 l 456 0 l 456 338 l 181 0 l 0 0 l 313 364 l 28 639 l 208 639 z "},"з":{"ha":690,"x_min":83,"x_max":628,"o":"m 360 -14 q 166 49 238 -14 q 83 208 94 111 l 231 208 q 270 135 240 165 q 360 104 300 104 q 450 128 417 104 q 483 194 483 153 q 449 263 483 239 q 350 288 415 288 l 350 386 q 431 408 406 386 q 456 461 456 431 q 431 513 456 494 q 364 532 407 532 q 285 503 311 532 q 258 442 258 474 l 114 442 q 146 549 114 501 q 234 625 178 597 q 363 653 290 653 q 484 629 431 653 q 569 566 538 606 q 600 476 600 526 q 500 343 600 383 q 594 285 561 324 q 628 188 628 246 q 592 81 628 126 q 496 10 557 35 q 360 -14 435 -14 z "},"и":{"ha":782,"x_min":100,"x_max":682,"o":"m 249 639 l 249 274 l 682 688 l 682 0 l 535 0 l 535 367 l 100 -49 l 100 639 l 249 639 z "},"й":{"ha":782,"x_min":100,"x_max":682,"o":"m 175 965 l 289 965 q 313 902 289 935 q 397 869 338 869 q 482 902 458 869 q 506 965 506 935 l 621 965 q 595 869 621 914 q 520 796 569 824 q 397 768 471 768 q 275 796 325 768 q 200 869 225 824 q 175 965 175 914 m 249 639 l 249 274 l 682 688 l 682 0 l 535 0 l 535 367 l 100 -49 l 100 639 l 249 639 z "},"ѝ":{"ha":782,"x_min":100,"x_max":682,"o":"m 168 979 l 294 1042 l 503 819 l 418 771 l 168 979 m 249 639 l 249 274 l 682 688 l 682 0 l 535 0 l 535 367 l 100 -49 l 100 639 l 249 639 z "},"к":{"ha":686,"x_min":90,"x_max":683,"o":"m 90 639 l 238 639 l 238 414 l 472 639 l 656 639 l 381 375 l 683 0 l 501 0 l 238 325 l 238 0 l 90 0 l 90 639 z "},"ќ":{"ha":611,"x_min":90,"x_max":683,"o":"m 624 944 l 374 736 l 289 785 l 497 1007 l 624 944 m 90 639 l 238 639 l 238 414 l 472 639 l 656 639 l 381 375 l 683 0 l 501 0 l 238 325 l 238 0 l 90 0 l 90 639 z "},"л":{"ha":811,"x_min":14,"x_max":700,"o":"m 700 639 l 700 0 l 553 0 l 553 500 l 263 500 l 263 222 q 206 54 263 108 q 14 0 149 0 l 14 136 q 85 158 56 136 q 115 243 115 179 l 115 639 l 700 639 z "},"м":{"ha":871,"x_min":7,"x_max":864,"o":"m 7 0 l 185 688 l 433 210 l 686 688 l 864 0 l 704 0 l 638 328 l 433 -43 l 233 326 l 167 0 l 7 0 z "},"н":{"ha":813,"x_min":96,"x_max":717,"o":"m 96 639 l 243 639 l 243 400 l 569 400 l 569 639 l 717 639 l 717 0 l 569 0 l 569 274 l 243 274 l 243 0 l 96 0 l 96 639 z "},"о":{"ha":782,"x_min":47,"x_max":736,"o":"m 47 319 q 92 493 47 418 q 216 610 138 568 q 392 653 294 653 q 568 610 490 653 q 691 493 646 568 q 736 319 736 418 q 691 147 736 222 q 568 28 646 71 q 392 -14 490 -14 q 216 28 294 -14 q 92 147 138 71 q 47 319 47 222 m 201 319 q 256 174 201 231 q 392 118 311 118 q 528 174 474 118 q 582 319 582 231 q 528 465 582 410 q 392 521 474 521 q 256 465 311 521 q 201 319 201 410 z "},"п":{"ha":757,"x_min":96,"x_max":661,"o":"m 661 639 l 661 0 l 514 0 l 514 504 l 243 504 l 243 0 l 96 0 l 96 639 l 661 639 z "},"р":{"ha":817,"x_min":90,"x_max":771,"o":"m 242 -306 l 90 -306 l 90 639 l 242 639 l 242 532 q 332 623 276 590 q 460 656 388 656 q 614 616 543 656 q 728 501 685 576 q 771 319 771 426 q 728 138 771 213 q 614 23 685 63 q 460 -17 543 -17 q 332 16 388 -17 q 242 107 276 49 l 242 -306 m 615 319 q 558 467 615 415 q 424 519 501 519 q 339 497 381 519 q 269 429 297 474 q 242 319 242 385 q 269 210 242 254 q 339 142 297 165 q 424 119 381 119 q 558 172 501 119 q 615 319 615 224 z "},"с":{"ha":672,"x_min":42,"x_max":603,"o":"m 196 319 q 222 213 196 260 q 294 141 249 167 q 394 115 339 115 q 522 146 464 115 q 603 224 579 176 l 603 58 q 513 5 569 24 q 388 -14 456 -14 q 210 28 289 -14 q 87 147 132 71 q 42 319 42 222 q 87 493 42 418 q 210 610 132 568 q 388 653 289 653 q 513 633 456 653 q 603 582 569 614 l 603 415 q 520 493 579 463 q 394 524 461 524 q 294 497 339 524 q 222 425 249 471 q 196 319 196 379 z "},"т":{"ha":418,"x_min":7,"x_max":411,"o":"m 7 639 l 411 639 l 411 507 l 283 507 l 283 0 l 136 0 l 136 507 l 7 507 l 7 639 z "},"у":{"ha":656,"x_min":-6,"x_max":661,"o":"m 661 639 l 244 -306 l 85 -306 l 253 75 l -6 639 l 167 639 l 335 224 l 500 639 l 661 639 z "},"ў":{"ha":611,"x_min":-6,"x_max":661,"o":"m 106 935 l 219 935 q 244 872 219 904 q 328 839 268 839 q 413 872 389 839 q 438 935 438 904 l 551 935 q 526 838 551 883 q 451 765 500 793 q 328 736 401 736 q 206 765 256 736 q 131 838 156 793 q 106 935 106 883 m 661 639 l 244 -306 l 85 -306 l 253 75 l -6 639 l 167 639 l 335 224 l 500 639 l 661 639 z "},"ф":{"ha":858,"x_min":47,"x_max":813,"o":"m 47 319 q 130 540 47 450 q 357 649 213 629 l 357 778 l 503 778 l 503 649 q 730 540 647 629 q 813 319 813 450 q 730 99 813 189 q 503 -10 647 10 l 503 -139 l 357 -139 l 357 -10 q 130 99 213 10 q 47 319 47 189 m 190 319 q 233 193 190 244 q 357 125 275 142 l 357 514 q 233 446 275 497 q 190 319 190 394 m 668 319 q 626 445 668 393 q 503 514 583 497 l 503 125 q 626 194 583 142 q 668 319 668 246 z "},"х":{"ha":644,"x_min":0,"x_max":646,"o":"m 464 639 l 632 639 l 403 329 l 646 0 l 478 0 l 325 219 l 172 0 l 0 0 l 244 329 l 14 639 l 186 639 l 325 439 l 464 639 z "},"ц":{"ha":815,"x_min":96,"x_max":776,"o":"m 665 132 l 776 132 l 776 -132 l 639 -132 l 639 0 l 96 0 l 96 639 l 246 639 l 246 132 l 514 132 l 514 639 l 665 639 l 665 132 z "},"ч":{"ha":707,"x_min":69,"x_max":610,"o":"m 221 639 l 221 449 q 249 344 221 376 q 344 313 276 313 l 458 313 l 458 639 l 610 639 l 610 0 l 458 0 l 458 181 l 319 181 q 169 210 224 181 q 92 301 114 240 q 69 456 69 363 l 69 639 l 221 639 z "},"ш":{"ha":1114,"x_min":96,"x_max":1019,"o":"m 631 132 l 872 132 l 872 639 l 1019 639 l 1019 0 l 96 0 l 96 639 l 243 639 l 243 132 l 483 132 l 483 639 l 631 639 l 631 132 z "},"щ":{"ha":1169,"x_min":96,"x_max":1131,"o":"m 631 132 l 871 132 l 871 639 l 1019 639 l 1019 132 l 1131 132 l 1131 -132 l 993 -132 l 993 0 l 96 0 l 96 639 l 243 639 l 243 132 l 483 132 l 483 639 l 631 639 l 631 132 z "},"ъ":{"ha":821,"x_min":7,"x_max":754,"o":"m 222 507 l 7 507 l 7 639 l 367 639 l 367 408 l 521 408 q 687 360 619 408 q 754 210 754 313 q 687 53 754 107 q 521 0 619 0 l 222 0 l 222 507 m 506 294 l 367 294 l 367 124 l 506 124 q 582 147 556 124 q 608 210 608 171 q 582 272 608 250 q 506 294 556 294 z "},"ы":{"ha":961,"x_min":96,"x_max":867,"o":"m 715 639 l 867 639 l 867 0 l 715 0 l 715 639 m 96 639 l 246 639 l 246 408 l 399 408 q 565 360 497 408 q 632 210 632 313 q 565 53 632 107 q 399 0 497 0 l 96 0 l 96 639 m 385 294 l 246 294 l 246 124 l 385 124 q 461 147 435 124 q 488 210 488 171 q 461 272 488 250 q 385 294 435 294 z "},"ь":{"ha":704,"x_min":99,"x_max":636,"o":"m 99 639 l 250 639 l 250 408 l 403 408 q 569 360 501 408 q 636 210 636 313 q 569 53 636 107 q 403 0 501 0 l 99 0 l 99 639 m 388 294 l 250 294 l 250 124 l 388 124 q 464 147 438 124 q 490 210 490 171 q 464 272 490 250 q 388 294 438 294 z "},"э":{"ha":672,"x_min":69,"x_max":631,"o":"m 176 378 l 469 378 q 401 491 453 449 q 278 533 349 533 q 152 503 211 533 q 69 426 93 474 l 69 582 q 160 633 103 614 q 285 653 217 653 q 463 610 385 653 q 585 493 540 568 q 631 319 631 418 q 585 147 631 222 q 463 28 540 71 q 285 -14 385 -14 q 160 5 217 -14 q 69 58 103 24 l 69 213 q 151 135 93 165 q 278 106 210 106 q 401 147 349 106 q 471 261 454 188 l 176 261 l 176 378 z "},"ю":{"ha":1078,"x_min":96,"x_max":1031,"o":"m 96 639 l 243 639 l 243 400 l 350 400 q 415 533 368 476 q 533 622 463 590 q 686 653 603 653 q 863 610 785 653 q 985 493 940 568 q 1031 319 1031 418 q 985 147 1031 222 q 863 28 940 71 q 686 -14 785 -14 q 522 22 596 -14 q 402 123 449 58 q 344 274 356 188 l 243 274 l 243 0 l 96 0 l 96 639 m 496 319 q 551 174 496 231 q 686 118 606 118 q 822 174 768 118 q 876 319 876 231 q 822 465 876 410 q 686 521 768 521 q 551 465 606 521 q 496 319 496 410 z "},"я":{"ha":704,"x_min":67,"x_max":642,"o":"m 226 0 l 67 0 l 244 258 q 144 323 183 278 q 104 444 104 368 q 138 558 104 515 q 227 619 171 600 q 349 639 283 639 l 642 639 l 642 0 l 490 0 l 490 244 l 390 244 l 226 0 m 360 360 l 490 360 l 490 514 l 360 514 q 254 436 254 514 q 360 360 254 360 z "},"ˆ":{"ha":667,"x_min":90,"x_max":576,"o":"m 333 888 l 192 761 l 90 833 l 333 1028 l 576 833 l 475 761 l 333 888 z "},"ˇ":{"ha":667,"x_min":90,"x_max":576,"o":"m 333 921 l 475 1049 l 576 975 l 333 781 l 90 975 l 192 1049 l 333 921 z "},"ª":{"ha":347,"x_min":26,"x_max":321,"o":"m 86 886 l 56 942 q 112 967 78 954 q 189 979 146 979 q 284 953 247 979 q 321 879 321 928 l 321 639 l 247 639 l 247 685 q 204 646 233 660 q 139 632 175 632 q 60 659 93 632 q 26 736 26 686 q 68 815 26 785 q 164 846 110 846 q 212 839 190 846 q 247 824 233 832 l 247 868 q 229 904 247 892 q 185 917 211 917 q 124 906 150 917 q 86 886 97 894 m 103 738 q 117 703 103 717 q 163 690 131 690 q 221 706 194 690 q 247 765 247 722 l 247 782 q 175 799 217 799 q 123 781 143 799 q 103 738 103 763 z "},"º":{"ha":386,"x_min":28,"x_max":372,"o":"m 28 806 q 76 926 28 879 q 199 972 125 972 q 322 926 272 972 q 372 806 372 879 q 322 685 372 732 q 199 639 272 639 q 76 685 125 639 q 28 806 28 732 m 103 806 q 131 733 103 761 q 199 706 158 706 q 267 733 239 706 q 294 806 294 761 q 267 878 294 850 q 199 906 239 906 q 131 878 158 906 q 103 806 103 850 z "},"̀":{"ha":0,"x_min":0,"x_max":335,"o":"m 250 751 l 0 960 l 126 1022 l 335 800 l 250 751 z "},"́":{"ha":0,"x_min":21,"x_max":356,"o":"m 106 754 l 21 801 l 229 1024 l 356 963 l 106 754 z "},"̂":{"ha":0,"x_min":0,"x_max":442,"o":"m 71 761 l 0 849 l 221 1025 l 442 849 l 371 761 l 221 889 l 71 761 z "},"̃":{"ha":0,"x_min":0,"x_max":493,"o":"m 85 810 l 0 875 q 58 961 11 926 q 157 996 104 996 q 213 985 192 996 q 249 962 233 975 q 283 938 265 949 q 329 928 301 928 q 373 946 353 928 q 415 997 393 964 l 493 921 q 456 870 482 896 q 397 828 431 844 q 326 811 363 811 q 261 828 288 811 q 211 863 235 846 q 156 881 188 881 q 101 855 117 881 q 85 810 85 829 z "},"̄":{"ha":0,"x_min":0,"x_max":499,"o":"m 0 814 l 0 938 l 499 938 l 499 814 l 0 814 z "},"̆":{"ha":0,"x_min":0,"x_max":446,"o":"m 222 753 q 63 808 125 753 q 0 951 0 864 l 124 951 q 151 883 124 910 q 222 856 179 856 q 294 883 265 856 q 322 951 322 910 l 446 951 q 383 808 446 864 q 222 753 321 753 z "},"̇":{"ha":0,"x_min":0,"x_max":189,"o":"m 94 771 q 28 798 56 771 q 0 863 0 825 q 28 926 0 900 q 94 953 56 953 q 162 926 135 953 q 189 863 189 900 q 162 798 189 825 q 94 771 135 771 z "},"̈":{"ha":0,"x_min":0,"x_max":492,"o":"m 94 810 q 26 835 51 810 q 0 901 0 861 q 26 967 0 942 q 94 993 51 993 q 163 967 138 993 q 189 901 189 942 q 163 835 189 861 q 94 810 138 810 m 397 810 q 328 835 354 810 q 303 901 303 861 q 328 967 303 942 q 397 993 354 993 q 466 967 440 993 q 492 901 492 942 q 466 835 492 861 q 397 810 440 810 z "},"̊":{"ha":0,"x_min":0,"x_max":331,"o":"m 164 722 q 47 768 94 722 q 0 881 0 814 q 47 993 0 947 q 164 1039 94 1039 q 282 993 233 1039 q 331 881 331 947 q 282 768 331 814 q 164 722 233 722 m 164 804 q 217 827 196 804 q 239 881 239 850 q 217 934 239 913 q 164 956 196 956 q 113 934 133 956 q 92 881 92 913 q 113 826 92 849 q 164 804 133 804 z "},"̋":{"ha":0,"x_min":0,"x_max":529,"o":"m 94 717 l 0 744 l 150 1011 l 286 978 l 94 717 m 335 717 l 242 744 l 390 1011 l 529 978 l 335 717 z "},"̌":{"ha":0,"x_min":0,"x_max":442,"o":"m 221 761 l 0 939 l 71 1025 l 221 899 l 371 1025 l 442 939 l 221 761 z "},"̒":{"ha":0,"x_min":0,"x_max":274,"o":"m 151 693 l 0 736 l 161 1083 l 274 1053 l 151 693 z "},"̦":{"ha":0,"x_min":0,"x_max":242,"o":"m 79 -297 l 0 -262 l 133 -25 l 242 -75 l 79 -297 z "},"̧":{"ha":0,"x_min":0,"x_max":297,"o":"m 144 -303 q 67 -294 103 -303 q 0 -264 32 -285 l 35 -192 q 85 -212 63 -206 q 135 -218 108 -218 q 199 -165 199 -218 q 132 -119 199 -119 q 93 -120 115 -119 q 54 -124 71 -121 l 158 89 l 257 88 l 179 -56 q 196 -56 186 -56 q 269 -89 240 -56 q 297 -167 297 -122 q 254 -264 297 -225 q 144 -303 211 -303 z "},"̨":{"ha":0,"x_min":0,"x_max":296,"o":"m 168 -306 q 44 -268 89 -306 q 0 -167 0 -231 q 26 -87 0 -124 q 95 -21 53 -51 q 186 35 138 10 l 243 0 q 156 -62 189 -25 q 122 -136 122 -100 q 137 -183 122 -169 q 181 -197 151 -197 q 221 -190 206 -197 q 250 -169 236 -183 l 296 -250 q 249 -288 281 -271 q 168 -306 218 -306 z "},"０":{"ha":833,"x_min":38,"x_max":794,"o":"m 38 486 q 85 750 38 638 q 219 925 133 863 q 417 988 304 988 q 615 925 531 988 q 747 750 700 863 q 794 486 794 638 q 747 223 794 336 q 615 47 700 110 q 417 -15 531 -15 q 219 47 304 -15 q 85 223 133 110 q 38 486 38 336 m 199 486 q 225 302 199 382 q 301 177 251 222 q 417 132 350 132 q 532 177 483 132 q 607 302 581 222 q 633 486 633 382 q 607 671 633 592 q 532 795 581 750 q 417 840 483 840 q 301 795 350 840 q 225 671 251 750 q 199 486 199 592 z "},"１":{"ha":833,"x_min":157,"x_max":543,"o":"m 157 744 l 157 900 l 543 988 l 543 0 l 382 0 l 382 807 l 157 744 z "},"２":{"ha":833,"x_min":29,"x_max":771,"o":"m 29 0 l 478 474 q 560 580 531 529 q 589 689 589 631 q 572 763 589 728 q 519 819 554 797 q 431 842 485 842 q 295 784 347 842 q 243 628 243 726 l 81 628 q 122 813 81 732 q 243 942 164 894 q 433 989 322 989 q 579 962 518 989 q 680 890 640 935 q 739 793 719 846 q 758 688 758 740 q 722 546 758 611 q 625 424 685 481 l 347 153 l 771 153 l 771 0 l 29 0 z "},"３":{"ha":833,"x_min":90,"x_max":760,"o":"m 425 -17 q 246 24 321 -17 q 131 131 171 64 q 90 278 90 199 l 254 278 q 305 167 254 208 q 429 125 356 125 q 548 165 503 125 q 593 278 593 206 q 534 398 593 356 q 376 440 475 440 l 376 564 q 515 609 465 564 q 565 717 565 654 q 532 812 565 775 q 433 849 499 849 q 328 810 371 849 q 286 714 286 772 l 132 714 q 170 856 132 794 q 276 952 208 917 q 433 988 344 988 q 594 951 528 988 q 697 856 661 915 q 732 725 732 797 q 686 596 732 651 q 564 510 640 540 q 706 421 653 482 q 760 260 760 360 q 718 115 760 176 q 601 18 676 53 q 425 -17 525 -17 z "},"４":{"ha":833,"x_min":22,"x_max":799,"o":"m 799 186 l 653 186 l 653 0 l 483 0 l 483 186 l 22 186 l 553 972 l 653 972 l 653 328 l 799 328 l 799 186 m 494 679 l 253 315 l 494 315 l 494 679 z "},"５":{"ha":833,"x_min":47,"x_max":772,"o":"m 772 317 q 721 131 772 206 q 587 21 669 57 q 410 -15 504 -15 q 190 35 275 -15 q 47 157 104 86 l 144 275 q 254 178 188 218 q 390 138 321 138 q 542 188 489 138 q 596 326 596 238 q 568 428 596 386 q 494 492 540 469 q 390 514 447 514 q 265 499 326 514 q 131 438 204 483 l 261 972 l 761 972 l 761 828 l 386 828 l 322 604 q 398 631 358 622 q 479 640 438 640 q 626 600 560 640 q 733 488 693 560 q 772 317 772 415 z "},"６":{"ha":833,"x_min":60,"x_max":772,"o":"m 450 971 l 658 971 l 379 625 q 426 640 401 636 q 481 643 451 643 q 624 603 557 643 q 731 492 690 563 q 772 328 772 421 q 725 143 772 221 q 597 24 678 65 q 417 -17 517 -17 q 235 24 317 -17 q 107 143 154 65 q 60 328 60 221 q 83 453 60 396 q 142 557 106 510 l 450 971 m 221 328 q 276 183 221 239 q 417 126 332 126 q 557 183 501 126 q 613 328 613 239 q 557 475 613 418 q 417 532 501 532 q 276 475 332 532 q 221 328 221 418 z "},"７":{"ha":833,"x_min":69,"x_max":796,"o":"m 69 818 l 69 972 l 796 972 l 328 0 l 153 0 l 550 818 l 69 818 z "},"８":{"ha":833,"x_min":97,"x_max":750,"o":"m 97 264 q 149 424 97 361 q 274 517 200 486 q 172 601 211 546 q 132 738 132 657 q 171 869 132 813 q 276 957 210 925 q 424 989 342 989 q 572 957 506 989 q 676 869 638 925 q 715 738 715 813 q 676 601 715 657 q 574 517 636 546 q 699 424 647 486 q 750 264 750 361 q 706 119 750 183 q 588 19 663 56 q 424 -17 514 -17 q 259 19 333 -17 q 141 119 185 56 q 97 264 97 183 m 288 721 q 328 622 288 661 q 424 583 368 583 q 520 622 481 583 q 560 721 560 661 q 522 821 560 782 q 424 860 483 860 q 326 821 364 860 q 288 721 288 782 m 257 286 q 281 197 257 233 q 342 140 304 160 q 424 121 381 121 q 505 140 467 121 q 567 197 543 160 q 590 286 590 233 q 567 369 590 332 q 505 428 543 407 q 424 450 467 450 q 342 428 381 450 q 281 369 304 407 q 257 286 257 332 z "},"９":{"ha":833,"x_min":60,"x_max":772,"o":"m 382 1 l 174 1 l 451 346 q 406 333 431 336 q 353 329 382 329 q 210 369 276 329 q 101 481 143 410 q 60 644 60 551 q 107 830 60 753 q 235 948 154 907 q 417 989 317 989 q 597 948 517 989 q 725 830 678 907 q 772 644 772 753 q 750 519 772 576 q 692 415 728 463 l 382 1 m 613 644 q 557 790 613 735 q 417 846 501 846 q 276 790 332 846 q 221 644 221 735 q 276 498 221 556 q 417 440 332 440 q 557 498 501 440 q 613 644 613 556 z "},"²":{"ha":514,"x_min":35,"x_max":479,"o":"m 35 392 l 304 676 q 353 740 336 710 q 371 806 371 771 q 348 869 371 840 q 276 897 325 897 q 195 863 226 897 q 164 769 164 828 l 65 769 q 122 924 65 863 q 278 986 178 986 q 388 958 346 986 q 451 888 431 929 q 472 804 472 846 q 450 719 472 758 q 392 644 428 679 l 226 483 l 479 483 l 479 392 l 35 392 z "},"³":{"ha":463,"x_min":31,"x_max":433,"o":"m 232 378 q 125 402 171 378 q 55 467 79 426 q 31 556 31 508 l 129 556 q 160 488 129 513 q 235 464 190 464 q 306 488 279 464 q 333 556 333 513 q 298 628 333 603 q 203 654 263 654 l 203 728 q 286 755 256 728 q 317 819 317 782 q 297 877 317 856 q 238 899 278 899 q 174 876 200 899 q 149 817 149 853 l 56 817 q 106 935 56 889 q 238 982 157 982 q 369 935 322 982 q 417 824 417 888 q 390 747 417 781 q 317 694 363 713 q 401 642 369 678 q 433 546 433 606 q 378 424 433 471 q 232 378 322 378 z "},"¹":{"ha":658,"x_min":200,"x_max":433,"o":"m 200 826 l 200 921 l 433 974 l 433 381 l 336 381 l 336 865 l 200 826 z "},"¼":{"ha":1085,"x_min":39,"x_max":1039,"o":"m 39 826 l 39 921 l 271 974 l 271 381 l 174 381 l 174 865 l 39 826 m 865 972 l 974 972 l 251 0 l 143 0 l 865 972 m 1039 111 l 947 111 l 947 0 l 846 0 l 846 111 l 558 111 l 888 583 l 947 583 l 947 197 l 1039 197 l 1039 111 m 851 407 l 703 190 l 851 190 l 851 407 z "},"½":{"ha":1179,"x_min":39,"x_max":1136,"o":"m 39 826 l 39 921 l 271 974 l 271 381 l 174 381 l 174 865 l 39 826 m 865 972 l 974 972 l 251 0 l 143 0 l 865 972 m 692 3 l 961 288 q 1010 351 993 321 q 1028 417 1028 382 q 1005 480 1028 451 q 933 508 982 508 q 852 474 883 508 q 821 381 821 439 l 724 381 q 779 535 724 474 q 935 597 835 597 q 1045 569 1003 597 q 1108 499 1088 540 q 1129 415 1129 457 q 1107 330 1129 369 q 1049 256 1085 290 l 883 94 l 1136 94 l 1136 3 l 692 3 z "},"¾":{"ha":1171,"x_min":39,"x_max":1126,"o":"m 242 378 q 135 402 181 378 q 64 467 89 426 q 39 556 39 508 l 139 556 q 169 488 139 513 q 243 464 199 464 q 315 488 288 464 q 343 556 343 513 q 307 628 343 603 q 211 654 271 654 l 211 728 q 295 755 264 728 q 326 819 326 782 q 306 877 326 856 q 246 899 286 899 q 183 876 208 899 q 157 817 157 853 l 64 817 q 115 935 64 889 q 246 982 165 982 q 378 935 331 982 q 425 824 425 888 q 398 747 425 781 q 325 694 371 713 q 410 642 378 678 q 442 546 442 606 q 387 424 442 471 q 242 378 332 378 m 957 972 l 1064 972 l 342 0 l 235 0 l 957 972 m 1126 111 l 1035 111 l 1035 0 l 933 0 l 933 111 l 646 111 l 975 583 l 1035 583 l 1035 197 l 1126 197 l 1126 111 m 940 407 l 790 190 l 940 190 l 940 407 z "},"⁰":{"ha":526,"x_min":36,"x_max":490,"o":"m 36 681 q 65 838 36 771 q 146 944 94 906 q 264 982 197 982 q 383 944 332 982 q 462 838 433 906 q 490 681 490 771 q 462 524 490 592 q 383 417 433 456 q 264 379 332 379 q 146 417 197 379 q 65 524 94 456 q 36 681 36 592 m 133 681 q 169 528 133 588 q 264 468 204 468 q 358 528 324 468 q 393 681 393 588 q 358 834 393 775 q 264 893 324 893 q 169 834 204 893 q 133 681 133 775 z "},"⁴":{"ha":558,"x_min":33,"x_max":514,"o":"m 514 500 l 422 500 l 422 389 l 322 389 l 322 500 l 33 500 l 364 972 l 422 972 l 422 586 l 514 586 l 514 500 m 328 796 l 179 579 l 328 579 l 328 796 z "},"⁵":{"ha":511,"x_min":39,"x_max":472,"o":"m 472 575 q 442 464 472 508 q 362 398 411 419 q 256 376 313 376 q 124 408 175 376 q 39 481 72 439 l 96 553 q 162 493 122 518 q 243 468 201 468 q 334 499 301 468 q 367 582 367 529 q 331 665 367 635 q 243 694 294 694 q 169 685 204 694 q 89 647 133 675 l 167 969 l 467 969 l 467 883 l 240 883 l 204 749 q 249 766 225 761 q 297 771 272 771 q 422 717 371 771 q 472 575 472 664 z "},"⁶":{"ha":500,"x_min":42,"x_max":471,"o":"m 276 968 l 403 968 l 235 763 q 262 770 247 768 q 294 772 276 772 q 381 748 340 772 q 446 681 421 724 q 471 583 471 639 q 442 472 471 519 q 365 400 414 425 q 257 375 317 375 q 149 400 197 375 q 71 472 100 425 q 42 583 42 519 q 56 658 42 624 q 92 721 71 693 l 276 968 m 139 583 q 173 496 139 529 q 257 463 207 463 q 340 496 307 463 q 374 583 374 529 q 340 672 374 638 q 257 706 307 706 q 173 672 207 706 q 139 583 139 638 z "},"⁷":{"ha":506,"x_min":38,"x_max":474,"o":"m 38 879 l 38 972 l 474 972 l 193 389 l 89 389 l 328 879 l 38 879 z "},"⁸":{"ha":469,"x_min":38,"x_max":431,"o":"m 38 547 q 69 642 38 604 q 144 699 100 681 q 82 751 106 717 q 58 832 58 785 q 110 940 58 897 q 235 983 163 983 q 359 940 308 983 q 410 832 410 897 q 386 751 410 785 q 325 699 363 717 q 400 642 369 681 q 431 547 431 604 q 404 461 431 500 q 333 400 378 422 q 235 378 289 378 q 136 400 181 378 q 65 461 92 422 q 38 547 38 500 m 153 821 q 177 761 153 783 q 235 739 201 739 q 292 761 268 739 q 315 821 315 783 q 293 881 315 858 q 235 904 271 904 q 176 881 199 904 q 153 821 153 858 m 135 561 q 165 488 135 514 q 235 463 196 463 q 304 488 275 463 q 333 561 333 514 q 304 631 333 603 q 235 658 275 658 q 165 631 196 658 q 135 561 135 603 z "},"⁹":{"ha":499,"x_min":47,"x_max":476,"o":"m 242 393 l 115 393 l 283 599 q 256 591 271 593 q 224 589 242 589 q 138 613 178 589 q 72 680 97 638 q 47 778 47 722 q 76 890 47 843 q 154 961 106 936 q 263 986 203 986 q 371 961 322 986 q 448 890 419 936 q 476 778 476 843 q 462 703 476 739 q 426 640 447 668 l 242 393 m 379 778 q 346 865 379 832 q 263 899 313 899 q 178 865 213 899 q 144 778 144 832 q 178 690 144 724 q 263 656 213 656 q 346 690 313 656 q 379 778 379 724 z "},"₀":{"ha":526,"x_min":36,"x_max":490,"o":"m 36 292 q 65 449 36 382 q 146 555 94 517 q 264 593 197 593 q 383 555 332 593 q 462 449 433 517 q 490 292 490 382 q 462 135 490 203 q 383 28 433 67 q 264 -10 332 -10 q 146 28 197 -10 q 65 135 94 67 q 36 292 36 203 m 133 292 q 169 139 133 199 q 264 79 204 79 q 358 139 324 79 q 393 292 393 199 q 358 445 393 386 q 264 504 324 504 q 169 445 204 504 q 133 292 133 386 z "},"₁":{"ha":461,"x_min":125,"x_max":357,"o":"m 125 447 l 125 542 l 357 594 l 357 1 l 260 1 l 260 486 l 125 447 z "},"₂":{"ha":517,"x_min":36,"x_max":481,"o":"m 36 3 l 306 288 q 355 351 338 321 q 372 417 372 382 q 349 480 372 451 q 278 508 326 508 q 197 474 228 508 q 165 381 165 439 l 68 381 q 124 535 68 474 q 279 597 179 597 q 390 569 347 597 q 453 499 432 540 q 474 415 474 457 q 451 330 474 369 q 393 256 429 290 l 228 94 l 481 94 l 481 3 l 36 3 z "},"₃":{"ha":467,"x_min":33,"x_max":436,"o":"m 235 -11 q 128 13 174 -11 q 58 78 82 38 q 33 167 33 119 l 132 167 q 163 99 132 124 q 238 75 193 75 q 309 99 282 75 q 336 167 336 124 q 301 240 336 214 q 206 265 265 265 l 206 339 q 289 366 258 339 q 319 431 319 393 q 299 488 319 467 q 239 510 279 510 q 176 487 201 510 q 151 428 151 464 l 58 428 q 109 547 58 500 q 240 593 160 593 q 372 546 325 593 q 419 435 419 499 q 392 358 419 392 q 319 306 365 324 q 404 253 372 289 q 436 157 436 217 q 381 35 436 82 q 235 -11 325 -11 z "},"₄":{"ha":561,"x_min":33,"x_max":514,"o":"m 514 111 l 422 111 l 422 0 l 321 0 l 321 111 l 33 111 l 363 583 l 422 583 l 422 197 l 514 197 l 514 111 m 328 407 l 178 190 l 328 190 l 328 407 z "},"₅":{"ha":517,"x_min":40,"x_max":474,"o":"m 474 186 q 443 75 474 119 q 363 9 413 31 q 257 -12 314 -12 q 125 19 176 -12 q 40 92 74 50 l 97 164 q 163 104 124 129 q 244 79 203 79 q 335 110 303 79 q 368 193 368 140 q 332 276 368 246 q 244 306 296 306 q 170 296 206 306 q 90 258 135 286 l 168 581 l 468 581 l 468 494 l 242 494 l 206 360 q 250 377 226 372 q 299 382 274 382 q 423 328 372 382 q 474 186 474 275 z "},"₆":{"ha":507,"x_min":43,"x_max":472,"o":"m 278 579 l 403 579 l 236 374 q 263 381 249 379 q 296 383 278 383 q 382 359 342 383 q 447 292 422 335 q 472 194 472 250 q 444 83 472 131 q 367 11 415 36 q 258 -14 318 -14 q 150 11 199 -14 q 72 83 101 36 q 43 194 43 131 q 58 269 43 235 q 93 332 72 304 l 278 579 m 140 194 q 174 107 140 140 q 258 74 208 74 q 342 107 308 74 q 375 194 375 140 q 342 283 375 249 q 258 317 308 317 q 174 283 208 317 q 140 194 140 249 z "},"₇":{"ha":508,"x_min":40,"x_max":475,"o":"m 40 490 l 40 583 l 475 583 l 196 0 l 90 0 l 329 490 l 40 490 z "},"₈":{"ha":472,"x_min":40,"x_max":433,"o":"m 40 158 q 71 253 40 215 q 146 310 101 292 q 85 362 108 328 q 61 443 61 396 q 113 551 61 508 q 236 594 164 594 q 361 551 310 594 q 413 443 413 508 q 389 362 413 396 q 326 310 365 328 q 402 253 371 292 q 433 158 433 215 q 406 72 433 111 q 335 11 379 33 q 236 -11 290 -11 q 138 11 182 -11 q 67 72 93 33 q 40 158 40 111 m 156 432 q 179 372 156 394 q 236 350 203 350 q 294 372 269 350 q 318 432 318 394 q 295 492 318 469 q 236 515 272 515 q 178 492 200 515 q 156 432 156 469 m 138 172 q 167 99 138 125 q 236 74 197 74 q 306 99 276 74 q 336 172 336 125 q 306 242 336 214 q 236 269 276 269 q 167 242 197 269 q 138 172 138 214 z "},"₉":{"ha":508,"x_min":35,"x_max":463,"o":"m 229 4 l 103 4 l 271 210 q 243 202 258 204 q 210 200 228 200 q 124 224 164 200 q 60 291 85 249 q 35 389 35 333 q 63 501 35 454 q 140 572 92 547 q 249 597 189 597 q 357 572 308 597 q 434 501 406 547 q 463 389 463 454 q 449 315 463 350 q 414 251 435 279 l 229 4 m 367 389 q 333 476 367 443 q 249 510 299 510 q 165 476 199 510 q 131 389 131 443 q 165 301 131 335 q 249 267 199 267 q 333 301 299 267 q 367 389 367 335 z "},"⅐":{"ha":1225,"x_min":39,"x_max":1188,"o":"m 39 826 l 39 921 l 271 974 l 271 381 l 174 381 l 174 865 l 39 826 m 810 972 l 932 972 l 210 0 l 88 0 l 810 972 m 753 490 l 753 583 l 1188 583 l 907 0 l 803 0 l 1042 490 l 753 490 z "},"⅑":{"ha":1144,"x_min":39,"x_max":1117,"o":"m 39 826 l 39 921 l 271 974 l 271 381 l 174 381 l 174 865 l 39 826 m 806 972 l 928 972 l 206 0 l 83 0 l 806 972 m 883 4 l 757 4 l 926 211 q 897 202 913 204 q 864 200 882 200 q 778 224 818 200 q 714 291 739 249 q 689 389 689 333 q 717 501 689 454 q 794 572 746 547 q 903 597 843 597 q 1011 572 963 597 q 1088 501 1060 547 q 1117 389 1117 454 q 1102 315 1117 350 q 1067 251 1088 279 l 883 4 m 1021 389 q 987 476 1021 443 q 903 510 953 510 q 819 476 853 510 q 785 389 785 443 q 819 301 785 335 q 903 267 853 267 q 987 301 953 267 q 1021 389 1021 335 z "},"⅒":{"ha":1572,"x_min":39,"x_max":1529,"o":"m 39 826 l 39 921 l 271 974 l 271 381 l 174 381 l 174 865 l 39 826 m 806 972 l 928 972 l 206 0 l 83 0 l 806 972 m 713 447 l 713 542 l 944 594 l 944 1 l 849 1 l 849 486 l 713 447 m 1075 292 q 1104 449 1075 382 q 1185 555 1133 517 q 1303 593 1236 593 q 1422 555 1371 593 q 1501 449 1472 517 q 1529 292 1529 382 q 1501 135 1529 203 q 1422 28 1472 67 q 1303 -10 1371 -10 q 1185 28 1236 -10 q 1104 135 1133 67 q 1075 292 1075 203 m 1172 292 q 1208 139 1172 199 q 1303 79 1243 79 q 1397 139 1363 79 q 1432 292 1432 199 q 1397 445 1432 386 q 1303 504 1363 504 q 1208 445 1243 504 q 1172 292 1172 386 z "},"⅓":{"ha":1114,"x_min":39,"x_max":1078,"o":"m 39 826 l 39 921 l 271 974 l 271 381 l 174 381 l 174 865 l 39 826 m 806 972 l 928 972 l 206 0 l 83 0 l 806 972 m 878 -11 q 771 13 817 -11 q 701 78 725 38 q 676 167 676 119 l 775 167 q 805 99 775 124 q 879 75 835 75 q 951 99 924 75 q 979 167 979 124 q 944 240 979 214 q 849 265 908 265 l 849 339 q 932 366 901 339 q 963 431 963 393 q 943 488 963 467 q 883 510 924 510 q 820 487 846 510 q 794 428 794 464 l 701 428 q 752 547 701 500 q 883 593 803 593 q 1015 546 968 593 q 1061 435 1061 499 q 1035 358 1061 392 q 963 306 1008 324 q 1046 253 1014 289 q 1078 157 1078 217 q 1023 35 1078 82 q 878 -11 968 -11 z "},"⅔":{"ha":1294,"x_min":42,"x_max":1258,"o":"m 42 392 l 311 676 q 360 740 343 710 q 378 806 378 771 q 355 869 378 840 q 283 897 332 897 q 202 863 233 897 q 171 769 171 828 l 72 769 q 128 924 72 863 q 285 986 185 986 q 395 958 353 986 q 458 888 438 929 q 479 804 479 846 q 457 719 479 758 q 399 644 435 679 l 233 483 l 486 483 l 486 392 l 42 392 m 993 972 l 1114 972 l 392 0 l 271 0 l 993 972 m 1058 -11 q 951 13 997 -11 q 881 78 906 38 q 856 167 856 119 l 956 167 q 985 99 956 124 q 1060 75 1015 75 q 1132 99 1104 75 q 1160 167 1160 124 q 1124 240 1160 214 q 1028 265 1088 265 l 1028 339 q 1112 366 1081 339 q 1143 431 1143 393 q 1123 488 1143 467 q 1063 510 1103 510 q 999 487 1025 510 q 974 428 974 464 l 881 428 q 931 547 881 500 q 1063 593 982 593 q 1194 546 1147 593 q 1242 435 1242 499 q 1215 358 1242 392 q 1142 306 1188 324 q 1226 253 1194 289 q 1258 157 1258 217 q 1203 35 1258 82 q 1058 -11 1149 -11 z "},"⅕":{"ha":1099,"x_min":39,"x_max":1061,"o":"m 39 826 l 39 921 l 271 974 l 271 381 l 174 381 l 174 865 l 39 826 m 806 972 l 928 972 l 206 0 l 83 0 l 806 972 m 831 494 l 793 360 q 838 377 814 372 q 886 382 861 382 q 1010 328 960 382 q 1061 186 1061 275 q 1031 75 1061 119 q 951 9 1000 31 q 844 -12 901 -12 q 713 19 764 -12 q 628 92 661 50 l 685 164 q 751 104 711 129 q 832 79 790 79 q 923 110 890 79 q 956 193 956 140 q 919 276 956 246 q 832 306 883 306 q 758 296 793 306 q 678 258 722 286 l 756 581 l 1056 581 l 1056 494 l 831 494 z "},"⅖":{"ha":1283,"x_min":42,"x_max":1242,"o":"m 42 392 l 311 676 q 360 740 343 710 q 378 806 378 771 q 355 869 378 840 q 283 897 332 897 q 202 863 233 897 q 171 769 171 828 l 72 769 q 128 924 72 863 q 285 986 185 986 q 395 958 353 986 q 458 888 438 929 q 479 804 479 846 q 457 719 479 758 q 399 644 435 679 l 233 483 l 486 483 l 486 392 l 42 392 m 993 972 l 1114 972 l 392 0 l 271 0 l 993 972 m 1010 494 l 972 360 q 1018 376 994 371 q 1067 382 1042 382 q 1191 328 1140 382 q 1242 186 1242 275 q 1211 75 1242 119 q 1131 9 1181 31 q 1025 -12 1082 -12 q 892 19 944 -12 q 807 92 840 50 l 865 164 q 931 104 892 129 q 1013 79 971 79 q 1103 110 1071 79 q 1136 193 1136 140 q 1100 276 1136 246 q 1013 306 1064 306 q 938 296 974 306 q 857 258 901 286 l 936 581 l 1236 581 l 1236 494 l 1010 494 z "},"⅗":{"ha":1210,"x_min":38,"x_max":1165,"o":"m 239 378 q 132 402 178 378 q 62 467 86 426 q 38 556 38 508 l 136 556 q 167 488 136 513 q 242 464 197 464 q 313 488 286 464 q 340 556 340 513 q 305 628 340 603 q 210 654 269 654 l 210 728 q 293 755 263 728 q 324 819 324 782 q 304 877 324 856 q 244 899 285 899 q 181 876 207 899 q 156 817 156 853 l 63 817 q 113 935 63 889 q 244 982 164 982 q 376 935 329 982 q 424 824 424 888 q 397 747 424 781 q 324 694 369 713 q 408 642 376 678 q 440 546 440 606 q 385 424 440 471 q 239 378 329 378 m 921 972 l 1042 972 l 319 0 l 199 0 l 921 972 m 933 494 l 897 360 q 942 377 918 372 q 990 382 965 382 q 1115 328 1064 382 q 1165 186 1165 275 q 1135 75 1165 119 q 1055 9 1104 31 q 949 -12 1006 -12 q 816 19 868 -12 q 731 92 764 50 l 789 164 q 855 104 815 129 q 936 79 894 79 q 1027 110 994 79 q 1060 193 1060 140 q 1024 276 1060 246 q 936 306 988 306 q 862 296 897 306 q 782 258 826 286 l 860 581 l 1160 581 l 1160 494 l 933 494 z "},"⅘":{"ha":1286,"x_min":38,"x_max":1244,"o":"m 983 972 l 1104 972 l 382 0 l 261 0 l 983 972 m 518 500 l 426 500 l 426 389 l 325 389 l 325 500 l 38 500 l 367 972 l 426 972 l 426 586 l 518 586 l 518 500 m 332 796 l 182 579 l 332 579 l 332 796 m 1014 493 l 976 360 q 1021 376 997 371 q 1069 381 1044 381 q 1194 328 1143 381 q 1244 186 1244 275 q 1214 75 1244 119 q 1134 9 1183 31 q 1028 -12 1085 -12 q 896 19 947 -12 q 811 92 844 50 l 868 163 q 934 103 894 128 q 1015 79 974 79 q 1106 110 1074 79 q 1139 193 1139 140 q 1103 276 1139 246 q 1015 306 1067 306 q 941 296 976 306 q 861 258 906 286 l 939 581 l 1239 581 l 1239 493 l 1014 493 z "},"⅙":{"ha":1094,"x_min":39,"x_max":1061,"o":"m 39 826 l 39 921 l 271 974 l 271 381 l 174 381 l 174 865 l 39 826 m 817 972 l 938 972 l 215 0 l 94 0 l 817 972 m 867 579 l 992 579 l 825 374 q 852 381 838 379 q 885 383 867 383 q 971 359 931 383 q 1036 292 1011 335 q 1061 194 1061 250 q 1032 83 1061 131 q 954 11 1003 36 q 846 -14 906 -14 q 738 11 786 -14 q 660 83 689 36 q 632 194 632 131 q 647 269 632 235 q 682 332 661 304 l 867 579 m 729 194 q 763 107 729 140 q 846 74 796 74 q 930 107 896 74 q 964 194 964 140 q 930 283 964 249 q 846 317 896 317 q 763 283 796 317 q 729 194 729 249 z "},"⅚":{"ha":1231,"x_min":42,"x_max":1194,"o":"m 961 972 l 1083 972 l 361 0 l 239 0 l 961 972 m 475 575 q 444 464 475 508 q 365 398 414 419 q 260 376 317 376 q 127 408 179 376 q 42 481 75 439 l 99 553 q 165 493 125 518 q 246 468 204 468 q 338 499 304 468 q 371 582 371 529 q 334 665 371 635 q 246 694 297 694 q 172 685 207 694 q 92 647 136 675 l 171 969 l 471 969 l 471 883 l 244 883 l 207 749 q 253 766 229 761 q 301 771 276 771 q 425 717 375 771 q 475 575 475 664 m 1001 579 l 1126 579 l 960 374 q 987 381 972 379 q 1019 383 1001 383 q 1106 359 1065 383 q 1170 292 1146 335 q 1194 194 1194 250 q 1166 83 1194 131 q 1089 11 1138 36 q 981 -14 1040 -14 q 872 11 921 -14 q 795 83 824 36 q 767 194 767 131 q 781 269 767 235 q 817 332 796 304 l 1001 579 m 863 194 q 897 107 863 140 q 981 74 931 74 q 1065 107 1031 74 q 1099 194 1099 140 q 1065 283 1099 249 q 981 317 1031 317 q 897 283 931 317 q 863 194 863 249 z "},"⅛":{"ha":1128,"x_min":39,"x_max":1086,"o":"m 39 826 l 39 921 l 271 974 l 271 381 l 174 381 l 174 865 l 39 826 m 817 972 l 938 972 l 215 0 l 94 0 l 817 972 m 693 158 q 724 253 693 215 q 800 310 756 292 q 738 362 761 328 q 714 443 714 396 q 766 551 714 508 q 890 594 818 594 q 1015 551 964 594 q 1065 443 1065 508 q 1042 362 1065 396 q 981 310 1018 328 q 1056 253 1025 292 q 1086 158 1086 215 q 1060 72 1086 111 q 989 11 1033 33 q 890 -11 944 -11 q 791 11 836 -11 q 719 72 746 33 q 693 158 693 111 m 808 432 q 833 372 808 394 q 890 350 857 350 q 948 372 924 350 q 972 432 972 394 q 949 492 972 469 q 890 515 926 515 q 831 492 854 515 q 808 432 808 469 m 790 172 q 821 99 790 125 q 890 74 851 74 q 960 99 931 74 q 989 172 989 125 q 960 242 989 214 q 890 269 931 269 q 821 242 851 269 q 790 172 790 214 z "},"⅜":{"ha":1235,"x_min":38,"x_max":1193,"o":"m 239 378 q 132 402 178 378 q 62 467 86 426 q 38 556 38 508 l 136 556 q 167 488 136 513 q 242 464 197 464 q 313 488 286 464 q 340 556 340 513 q 305 628 340 603 q 210 654 269 654 l 210 728 q 293 755 263 728 q 324 819 324 782 q 304 877 324 856 q 244 899 285 899 q 181 876 207 899 q 156 817 156 853 l 63 817 q 113 935 63 889 q 244 982 164 982 q 376 935 329 982 q 424 824 424 888 q 397 747 424 781 q 324 694 369 713 q 408 642 376 678 q 440 546 440 606 q 385 424 440 471 q 239 378 329 378 m 924 972 l 1044 972 l 322 0 l 201 0 l 924 972 m 800 158 q 831 253 800 215 q 907 310 863 292 q 844 362 868 328 q 821 443 821 396 q 873 551 821 508 q 997 594 925 594 q 1122 551 1071 594 q 1172 443 1172 508 q 1149 362 1172 396 q 1088 310 1125 328 q 1163 253 1132 292 q 1193 158 1193 215 q 1167 72 1193 111 q 1096 11 1140 33 q 997 -11 1051 -11 q 898 11 943 -11 q 826 72 853 33 q 800 158 800 111 m 915 432 q 940 372 915 394 q 997 350 964 350 q 1055 372 1031 350 q 1079 432 1079 394 q 1056 492 1079 469 q 997 515 1033 515 q 938 492 961 515 q 915 432 915 469 m 897 172 q 928 99 897 125 q 997 74 958 74 q 1067 99 1038 74 q 1096 172 1096 125 q 1067 242 1096 214 q 997 269 1038 269 q 928 242 958 269 q 897 172 897 214 z "},"⅝":{"ha":1272,"x_min":39,"x_max":1232,"o":"m 961 972 l 1083 972 l 361 0 l 239 0 l 961 972 m 472 575 q 442 464 472 508 q 362 398 411 419 q 256 376 313 376 q 124 408 175 376 q 39 481 72 439 l 96 553 q 162 493 122 518 q 243 468 201 468 q 334 499 301 468 q 367 582 367 529 q 331 665 367 635 q 243 694 294 694 q 169 685 204 694 q 89 647 133 675 l 167 969 l 467 969 l 467 883 l 240 883 l 204 749 q 249 766 225 761 q 297 771 272 771 q 422 717 371 771 q 472 575 472 664 m 839 158 q 869 253 839 215 q 944 310 900 292 q 883 362 907 328 q 860 443 860 396 q 911 551 860 508 q 1035 594 963 594 q 1160 551 1108 594 q 1211 443 1211 508 q 1188 362 1211 396 q 1125 310 1164 328 q 1201 253 1169 292 q 1232 158 1232 215 q 1206 72 1232 111 q 1134 11 1179 33 q 1035 -11 1089 -11 q 936 11 981 -11 q 865 72 892 33 q 839 158 839 111 m 953 432 q 977 372 953 394 q 1035 350 1001 350 q 1092 372 1068 350 q 1117 432 1117 394 q 1094 492 1117 469 q 1035 515 1071 515 q 976 492 999 515 q 953 432 953 469 m 936 172 q 966 99 936 125 q 1035 74 996 74 q 1105 99 1075 74 q 1135 172 1135 125 q 1105 242 1135 214 q 1035 269 1075 269 q 966 242 996 269 q 936 172 936 214 z "},"⅞":{"ha":1119,"x_min":38,"x_max":1079,"o":"m 806 972 l 926 972 l 204 0 l 83 0 l 806 972 m 38 879 l 38 972 l 474 972 l 193 389 l 89 389 l 328 879 l 38 879 m 686 158 q 717 253 686 215 q 792 310 747 292 q 731 362 754 328 q 707 443 707 396 q 758 551 707 508 q 882 594 810 594 q 1007 551 956 594 q 1058 443 1058 508 q 1035 362 1058 396 q 972 310 1011 328 q 1048 253 1017 292 q 1079 158 1079 215 q 1053 72 1079 111 q 981 11 1026 33 q 882 -11 936 -11 q 783 11 828 -11 q 713 72 739 33 q 686 158 686 111 m 800 432 q 824 372 800 394 q 882 350 849 350 q 940 372 915 350 q 964 432 964 394 q 941 492 964 469 q 882 515 918 515 q 823 492 846 515 q 800 432 800 469 m 783 172 q 813 99 783 125 q 882 74 843 74 q 952 99 922 74 q 982 172 982 125 q 952 242 982 214 q 882 269 922 269 q 813 242 843 269 q 783 172 783 214 z "},"_":{"ha":711,"x_min":0,"x_max":711,"o":"m 0 -196 l 0 -97 l 711 -97 l 711 -196 l 0 -196 z "},"-":{"ha":297,"x_min":7,"x_max":292,"o":"m 7 263 l 7 397 l 292 397 l 292 263 l 7 263 z "},"‐":{"ha":297,"x_min":7,"x_max":292,"o":"m 7 263 l 7 397 l 292 397 l 292 263 l 7 263 z "},"‒":{"ha":839,"x_min":97,"x_max":738,"o":"m 97 263 l 97 397 l 738 397 l 738 263 l 97 263 z "},"–":{"ha":1051,"x_min":97,"x_max":951,"o":"m 97 263 l 97 397 l 951 397 l 951 263 l 97 263 z "},"—":{"ha":1264,"x_min":97,"x_max":1165,"o":"m 97 263 l 97 397 l 1165 397 l 1165 263 l 97 263 z "},"(":{"ha":447,"x_min":113,"x_max":415,"o":"m 276 1083 l 415 1083 q 307 754 343 928 q 271 403 271 581 q 307 53 271 226 q 415 -278 343 -121 l 276 -278 q 153 53 193 -121 q 113 403 113 226 q 153 754 113 581 q 276 1083 193 928 z "},"[":{"ha":450,"x_min":133,"x_max":424,"o":"m 283 949 l 283 -171 l 424 -171 l 424 -306 l 133 -306 l 133 1083 l 424 1083 l 424 949 l 283 949 z "},"{":{"ha":479,"x_min":63,"x_max":411,"o":"m 296 889 l 296 681 q 290 573 296 629 q 264 470 285 517 q 194 403 243 424 q 264 335 243 382 q 290 233 285 289 q 296 125 296 176 l 296 -83 q 314 -131 296 -110 q 363 -153 332 -153 l 411 -153 l 411 -278 l 310 -278 q 229 -258 269 -278 q 163 -194 189 -237 q 136 -83 136 -151 l 136 194 q 117 306 136 274 q 63 347 99 338 l 63 458 q 117 501 99 469 q 136 611 136 532 l 136 889 q 163 1001 136 958 q 229 1063 189 1043 q 310 1083 269 1083 l 411 1083 l 411 958 l 363 958 q 314 938 332 958 q 296 889 296 917 z "},"‚":{"ha":413,"x_min":83,"x_max":329,"o":"m 164 111 l 329 111 l 189 -222 l 83 -222 l 164 111 z "},"„":{"ha":707,"x_min":69,"x_max":611,"o":"m 150 111 l 315 111 l 175 -222 l 69 -222 l 150 111 m 444 111 l 611 111 l 471 -222 l 364 -222 l 444 111 z "},")":{"ha":447,"x_min":33,"x_max":335,"o":"m 172 -278 l 33 -278 q 142 53 107 -121 q 178 403 178 226 q 142 754 178 581 q 33 1083 107 928 l 172 1083 q 295 754 256 928 q 335 403 335 581 q 295 53 335 226 q 172 -278 256 -121 z "},"]":{"ha":450,"x_min":28,"x_max":318,"o":"m 168 -171 l 168 949 l 28 949 l 28 1083 l 318 1083 l 318 -306 l 28 -306 l 28 -171 l 168 -171 z "},"}":{"ha":479,"x_min":79,"x_max":428,"o":"m 194 -83 l 194 125 q 199 233 194 176 q 226 335 204 289 q 294 403 247 382 q 226 470 247 424 q 199 573 204 517 q 194 681 194 629 l 194 889 q 177 938 194 917 q 128 958 160 958 l 79 958 l 79 1083 l 179 1083 q 261 1063 221 1083 q 328 1001 301 1043 q 354 889 354 958 l 354 611 q 373 501 354 532 q 428 458 392 469 l 428 347 q 373 306 392 338 q 354 194 354 274 l 354 -83 q 328 -194 354 -151 q 261 -258 301 -237 q 179 -278 221 -278 l 79 -278 l 79 -153 l 128 -153 q 177 -131 160 -153 q 194 -83 194 -110 z "},"«":{"ha":725,"x_min":49,"x_max":646,"o":"m 438 360 l 646 90 l 553 17 l 294 354 l 553 692 l 646 618 l 438 360 m 192 360 l 400 90 l 306 17 l 49 354 l 306 692 l 400 618 l 192 360 z "},"‘":{"ha":413,"x_min":97,"x_max":343,"o":"m 264 639 l 97 639 l 238 972 l 343 972 l 264 639 z "},"“":{"ha":707,"x_min":97,"x_max":639,"o":"m 264 639 l 97 639 l 238 972 l 343 972 l 264 639 m 560 639 l 392 639 l 533 972 l 639 972 l 560 639 z "},"‹":{"ha":486,"x_min":49,"x_max":400,"o":"m 192 360 l 400 90 l 306 17 l 49 354 l 306 692 l 400 618 l 192 360 z "},"»":{"ha":725,"x_min":81,"x_max":678,"o":"m 289 349 l 81 618 l 174 692 l 431 354 l 174 17 l 81 90 l 289 349 m 535 349 l 326 618 l 419 692 l 678 354 l 419 17 l 326 90 l 535 349 z "},"’":{"ha":413,"x_min":69,"x_max":315,"o":"m 150 972 l 315 972 l 175 639 l 69 639 l 150 972 z "},"”":{"ha":707,"x_min":69,"x_max":611,"o":"m 150 972 l 315 972 l 175 639 l 69 639 l 150 972 m 444 972 l 611 972 l 471 639 l 364 639 l 444 972 z "},"›":{"ha":486,"x_min":86,"x_max":438,"o":"m 294 349 l 86 618 l 181 692 l 438 354 l 181 17 l 86 90 l 294 349 z "},"!":{"ha":440,"x_min":122,"x_max":318,"o":"m 126 972 l 314 972 l 279 294 l 161 294 l 126 972 m 122 68 q 151 135 122 108 q 221 161 179 161 q 290 135 263 161 q 318 68 318 108 q 290 1 318 29 q 221 -26 263 -26 q 151 1 179 -26 q 122 68 122 29 z "},"\"":{"ha":675,"x_min":100,"x_max":603,"o":"m 167 972 l 335 972 l 201 544 l 100 544 l 167 972 m 433 972 l 603 972 l 468 544 l 368 544 l 433 972 z "},"#":{"ha":874,"x_min":49,"x_max":826,"o":"m 49 263 l 49 383 l 190 383 l 242 596 l 104 596 l 104 717 l 271 717 l 333 972 l 469 972 l 407 717 l 579 717 l 643 972 l 778 972 l 715 717 l 826 717 l 826 596 l 686 596 l 635 383 l 771 383 l 771 263 l 606 263 l 542 0 l 407 0 l 469 263 l 297 263 l 233 0 l 97 0 l 161 263 l 49 263 m 322 381 l 501 381 l 556 599 l 375 599 l 322 381 z "},"%":{"ha":1136,"x_min":42,"x_max":1094,"o":"m 42 756 q 72 874 42 821 q 156 960 103 928 q 279 992 210 992 q 402 960 349 992 q 485 874 456 928 q 515 756 515 821 q 485 637 515 690 q 402 551 456 583 q 279 519 349 519 q 156 551 210 519 q 72 637 103 583 q 42 756 42 690 m 831 972 l 981 972 l 306 0 l 157 0 l 831 972 m 169 756 q 199 674 169 708 q 279 639 229 639 q 358 674 329 639 q 386 756 386 708 q 358 837 386 803 q 279 871 329 871 q 199 837 229 871 q 169 756 169 803 m 622 217 q 652 335 622 282 q 735 421 682 389 q 858 453 789 453 q 981 421 928 453 q 1065 335 1035 389 q 1094 217 1094 282 q 1065 98 1094 151 q 981 13 1035 44 q 858 -19 928 -19 q 735 13 789 -19 q 652 98 682 44 q 622 217 622 151 m 750 217 q 779 135 750 169 q 858 101 808 101 q 938 135 908 101 q 967 217 967 169 q 938 299 967 264 q 858 333 908 333 q 779 299 808 333 q 750 217 750 264 z "},"&":{"ha":979,"x_min":56,"x_max":954,"o":"m 778 0 l 692 96 q 548 15 625 46 q 379 -15 471 -15 q 220 18 294 -15 q 101 112 146 51 q 56 257 56 172 q 93 394 56 339 q 186 484 131 449 q 294 543 242 519 q 238 606 267 572 q 188 678 208 639 q 168 765 168 718 q 201 880 168 829 q 292 960 233 931 q 431 990 351 990 q 567 959 511 990 q 652 876 622 928 q 682 767 682 825 q 633 635 682 692 q 492 518 585 578 l 703 282 q 773 364 739 321 q 839 453 807 407 l 947 376 q 872 278 911 328 q 790 185 833 229 l 954 0 l 778 0 m 319 760 q 347 683 319 719 q 415 604 375 647 q 506 681 474 642 q 538 758 538 721 q 509 833 538 803 q 429 864 481 864 q 348 834 376 864 q 319 760 319 804 m 215 268 q 266 158 215 200 q 394 117 317 117 q 502 138 450 117 q 604 194 554 158 l 376 453 q 298 406 335 431 q 238 348 261 381 q 215 268 215 315 z "},"'":{"ha":407,"x_min":100,"x_max":335,"o":"m 167 972 l 335 972 l 201 544 l 100 544 l 167 972 z "},"*":{"ha":822,"x_min":111,"x_max":711,"o":"m 294 401 l 183 482 l 335 654 l 111 706 l 153 835 l 364 744 l 343 972 l 479 972 l 458 744 l 669 835 l 711 706 l 488 654 l 639 482 l 528 401 l 411 599 l 294 401 z "},",":{"ha":436,"x_min":68,"x_max":342,"o":"m 190 153 l 342 110 l 179 -237 l 68 -207 l 190 153 z "},".":{"ha":428,"x_min":117,"x_max":313,"o":"m 117 71 q 144 140 117 111 q 214 168 172 168 q 284 140 256 168 q 313 71 313 111 q 284 3 313 32 q 214 -26 256 -26 q 144 3 172 -26 q 117 71 117 32 z "},"/":{"ha":767,"x_min":21,"x_max":747,"o":"m 599 972 l 747 972 l 172 -208 l 21 -208 l 599 972 z "},":":{"ha":428,"x_min":117,"x_max":313,"o":"m 117 596 q 144 665 117 636 q 214 693 172 693 q 284 665 256 693 q 313 596 313 636 q 284 528 313 557 q 214 499 256 499 q 144 528 172 499 q 117 596 117 557 m 117 71 q 144 140 117 111 q 214 168 172 168 q 284 140 256 168 q 313 71 313 111 q 284 3 313 32 q 214 -26 256 -26 q 144 3 172 -26 q 117 71 117 32 z "},";":{"ha":493,"x_min":81,"x_max":367,"o":"m 171 592 q 199 660 171 632 q 268 689 226 689 q 338 660 310 689 q 367 592 367 632 q 338 524 367 553 q 268 494 310 494 q 199 524 226 494 q 171 592 171 553 m 203 153 l 353 110 l 192 -237 l 81 -207 l 203 153 z "},"?":{"ha":813,"x_min":76,"x_max":732,"o":"m 581 694 q 531 815 581 772 q 396 857 482 857 q 275 826 328 857 q 188 740 222 794 l 76 821 q 210 945 135 899 q 410 992 286 992 q 572 954 499 992 q 688 850 644 917 q 732 694 732 783 q 690 549 732 613 q 581 447 647 485 q 438 400 514 408 l 428 253 l 311 253 l 283 499 l 322 499 q 463 528 406 499 q 551 603 521 558 q 581 694 581 649 m 274 67 q 302 131 274 104 q 372 158 331 158 q 442 131 414 158 q 469 67 469 104 q 442 1 469 29 q 372 -26 414 -26 q 302 1 331 -26 q 274 67 274 29 z "},"@":{"ha":1069,"x_min":40,"x_max":1029,"o":"m 40 444 q 80 659 40 560 q 191 833 119 758 q 360 951 263 908 q 576 993 458 993 q 772 955 688 993 q 914 851 857 917 q 1000 706 971 786 q 1029 542 1029 625 q 990 345 1029 419 q 891 238 950 271 q 774 206 832 206 q 683 238 721 206 q 636 321 644 271 q 557 245 604 271 q 456 219 510 219 q 322 277 376 219 q 267 438 267 335 q 304 601 267 535 q 399 701 342 667 q 514 736 457 736 q 599 710 564 736 q 656 642 635 683 l 667 722 l 794 722 l 746 413 q 743 375 743 393 q 751 332 743 350 q 789 314 760 314 q 837 335 808 314 q 888 406 865 356 q 910 542 910 456 q 873 711 910 633 q 762 836 836 789 q 576 883 688 883 q 356 826 450 883 q 211 669 263 768 q 160 444 160 571 q 253 184 160 281 q 514 88 347 88 q 653 101 588 88 q 783 154 718 115 l 833 57 q 696 -1 771 21 q 507 -22 621 -22 q 251 37 356 -22 q 94 201 147 96 q 40 444 40 307 m 397 444 q 420 362 397 392 q 490 332 443 332 q 553 351 521 332 q 607 409 585 369 q 629 511 629 449 q 601 594 629 565 q 531 624 574 624 q 467 601 497 624 q 417 538 436 578 q 397 444 397 497 z "},"\\":{"ha":732,"x_min":21,"x_max":711,"o":"m 21 972 l 174 972 l 711 0 l 560 0 l 21 972 z "},"¡":{"ha":440,"x_min":122,"x_max":318,"o":"m 318 574 q 290 507 318 535 q 221 479 263 479 q 151 507 179 479 q 122 574 122 535 q 151 640 122 614 q 221 667 179 667 q 290 640 263 667 q 318 574 318 614 m 314 -332 l 126 -332 l 161 346 l 279 346 l 314 -332 z "},"§":{"ha":660,"x_min":56,"x_max":585,"o":"m 151 231 q 231 143 179 175 q 333 111 282 111 q 431 179 431 111 q 389 246 431 224 q 290 288 347 268 q 199 330 243 304 q 125 394 154 356 q 96 485 96 432 q 130 585 96 544 q 224 647 164 626 q 140 710 175 671 q 104 813 104 749 q 138 912 104 871 q 224 974 172 953 q 332 994 276 994 q 435 978 385 994 q 522 936 485 963 q 574 876 558 910 l 481 788 q 415 842 457 824 q 338 861 374 861 q 275 848 299 861 q 251 807 251 835 q 274 768 251 785 q 330 738 296 751 q 400 710 364 724 q 490 666 449 693 q 556 603 531 639 q 582 518 582 567 q 550 410 582 451 q 464 350 518 369 q 549 281 514 322 q 585 181 585 240 q 551 66 585 111 q 460 0 517 21 q 333 -21 403 -21 q 159 27 235 -21 q 56 144 83 75 l 151 231 m 242 513 q 260 453 242 476 q 308 417 279 431 q 369 392 338 403 q 417 434 399 406 q 436 493 436 463 q 400 564 436 539 q 317 607 364 589 q 262 568 282 590 q 242 513 242 546 z "},"¶":{"ha":854,"x_min":83,"x_max":772,"o":"m 400 375 q 242 410 314 375 q 126 511 169 444 q 83 674 83 578 q 126 837 83 771 q 242 938 169 903 q 400 972 314 972 l 772 972 l 772 -306 l 639 -306 l 639 867 l 532 867 l 532 -306 l 400 -306 l 400 375 z "},"·":{"ha":428,"x_min":117,"x_max":313,"o":"m 117 349 q 144 417 117 389 q 214 446 172 446 q 284 417 256 446 q 313 349 313 389 q 284 281 313 310 q 214 251 256 251 q 144 281 172 251 q 117 349 117 310 z "},"¿":{"ha":813,"x_min":81,"x_max":736,"o":"m 539 906 q 510 841 539 868 q 440 814 482 814 q 371 841 399 814 q 343 906 343 868 q 371 971 343 943 q 440 999 399 999 q 510 971 482 999 q 539 906 539 943 m 232 278 q 282 158 232 200 q 417 115 332 115 q 538 147 485 115 q 625 232 590 178 l 736 151 q 602 27 678 74 q 403 -19 526 -19 q 242 18 315 -19 q 124 123 168 56 q 81 278 81 190 q 123 424 81 360 q 233 526 165 488 q 375 572 300 565 l 385 719 l 501 719 l 529 474 l 490 474 q 349 444 407 474 q 262 369 292 414 q 232 278 232 324 z "},"†":{"ha":825,"x_min":125,"x_max":701,"o":"m 125 750 l 340 750 l 340 972 l 486 972 l 486 750 l 701 750 l 701 618 l 486 618 l 486 -208 l 340 -208 l 340 618 l 125 618 l 125 750 z "},"‡":{"ha":825,"x_min":125,"x_max":701,"o":"m 125 188 l 340 188 l 340 618 l 125 618 l 125 750 l 340 750 l 340 972 l 486 972 l 486 750 l 701 750 l 701 618 l 486 618 l 486 188 l 701 188 l 701 56 l 486 56 l 486 -208 l 340 -208 l 340 56 l 125 56 l 125 188 z "},"•":{"ha":417,"x_min":117,"x_max":313,"o":"m 117 592 q 144 660 117 632 q 214 689 172 689 q 284 660 256 689 q 313 592 313 632 q 284 524 313 553 q 214 494 256 494 q 144 524 172 494 q 117 592 117 553 z "},"…":{"ha":1264,"x_min":117,"x_max":1146,"o":"m 117 71 q 144 140 117 111 q 214 168 172 168 q 284 140 256 168 q 313 71 313 111 q 284 3 313 32 q 214 -26 256 -26 q 144 3 172 -26 q 117 71 117 32 m 533 71 q 561 140 533 111 q 631 168 589 168 q 701 140 672 168 q 729 71 729 111 q 701 3 729 32 q 631 -26 672 -26 q 561 3 589 -26 q 533 71 533 32 m 950 71 q 978 140 950 111 q 1047 168 1006 168 q 1117 140 1089 168 q 1146 71 1146 111 q 1117 3 1146 32 q 1047 -26 1089 -26 q 978 3 1006 -26 q 950 71 950 32 z "},"‰":{"ha":1706,"x_min":42,"x_max":1664,"o":"m 42 756 q 72 874 42 821 q 156 960 103 928 q 279 992 210 992 q 402 960 349 992 q 485 874 456 928 q 515 756 515 821 q 485 637 515 690 q 402 551 456 583 q 279 519 349 519 q 156 551 210 519 q 72 637 103 583 q 42 756 42 690 m 831 972 l 981 972 l 306 0 l 157 0 l 831 972 m 169 756 q 199 674 169 708 q 279 639 229 639 q 358 674 329 639 q 386 756 386 708 q 358 837 386 803 q 279 871 329 871 q 199 837 229 871 q 169 756 169 803 m 1192 217 q 1222 335 1192 282 q 1305 421 1251 389 q 1428 453 1358 453 q 1551 421 1497 453 q 1634 335 1604 389 q 1664 217 1664 282 q 1634 98 1664 151 q 1551 13 1604 44 q 1428 -19 1497 -19 q 1305 13 1358 -19 q 1222 98 1251 44 q 1192 217 1192 151 m 622 217 q 652 335 622 282 q 735 421 682 389 q 858 453 789 453 q 981 421 928 453 q 1065 335 1035 389 q 1094 217 1094 282 q 1065 98 1094 151 q 981 13 1035 44 q 858 -19 928 -19 q 735 13 789 -19 q 652 98 682 44 q 622 217 622 151 m 1319 217 q 1349 135 1319 169 q 1428 101 1378 101 q 1507 135 1478 101 q 1536 217 1536 169 q 1507 299 1536 264 q 1428 333 1478 333 q 1349 299 1378 333 q 1319 217 1319 264 m 750 217 q 779 135 750 169 q 858 101 808 101 q 938 135 908 101 q 967 217 967 169 q 938 299 967 264 q 858 333 908 333 q 779 299 808 333 q 750 217 750 264 z "},"‱":{"ha":2275,"x_min":42,"x_max":2233,"o":"m 42 756 q 72 874 42 821 q 156 960 103 928 q 279 992 210 992 q 402 960 349 992 q 485 874 456 928 q 515 756 515 821 q 485 637 515 690 q 402 551 456 583 q 279 519 349 519 q 156 551 210 519 q 72 637 103 583 q 42 756 42 690 m 831 972 l 981 972 l 306 0 l 157 0 l 831 972 m 169 756 q 199 674 169 708 q 279 639 229 639 q 358 674 329 639 q 386 756 386 708 q 358 837 386 803 q 279 871 329 871 q 199 837 229 871 q 169 756 169 803 m 1761 217 q 1791 335 1761 282 q 1874 421 1821 389 q 1997 453 1928 453 q 2120 421 2067 453 q 2203 335 2174 389 q 2233 217 2233 282 q 2203 98 2233 151 q 2120 13 2174 44 q 1997 -19 2067 -19 q 1874 13 1928 -19 q 1791 98 1821 44 q 1761 217 1761 151 m 1192 217 q 1222 335 1192 282 q 1305 421 1251 389 q 1428 453 1358 453 q 1551 421 1497 453 q 1634 335 1604 389 q 1664 217 1664 282 q 1634 98 1664 151 q 1551 13 1604 44 q 1428 -19 1497 -19 q 1305 13 1358 -19 q 1222 98 1251 44 q 1192 217 1192 151 m 622 217 q 652 335 622 282 q 735 421 682 389 q 858 453 789 453 q 981 421 928 453 q 1065 335 1035 389 q 1094 217 1094 282 q 1065 98 1094 151 q 981 13 1035 44 q 858 -19 928 -19 q 735 13 789 -19 q 652 98 682 44 q 622 217 622 151 m 1889 217 q 1918 135 1889 169 q 1997 101 1947 101 q 2076 135 2047 101 q 2106 217 2106 169 q 2076 299 2106 264 q 1997 333 2047 333 q 1918 299 1947 333 q 1889 217 1889 264 m 1319 217 q 1349 135 1319 169 q 1428 101 1378 101 q 1507 135 1478 101 q 1536 217 1536 169 q 1507 299 1536 264 q 1428 333 1478 333 q 1349 299 1378 333 q 1319 217 1319 264 m 750 217 q 779 135 750 169 q 858 101 808 101 q 938 135 908 101 q 967 217 967 169 q 938 299 967 264 q 858 333 908 333 q 779 299 808 333 q 750 217 750 264 z "},"‽":{"ha":813,"x_min":76,"x_max":732,"o":"m 286 706 l 450 706 l 435 496 q 546 572 504 519 q 588 683 588 624 q 534 813 588 768 q 390 857 481 857 q 188 740 253 857 l 76 821 q 203 942 125 894 q 408 990 282 990 q 570 953 497 990 q 688 849 643 915 q 732 694 732 783 q 688 547 732 610 q 573 444 643 483 q 428 397 503 406 l 418 253 l 318 253 l 286 706 m 272 68 q 301 135 272 108 q 372 161 331 161 q 442 135 414 161 q 471 68 471 108 q 442 1 471 29 q 372 -26 414 -26 q 301 1 331 -26 q 272 68 272 29 z "},"+":{"ha":886,"x_min":90,"x_max":797,"o":"m 90 288 l 90 436 l 365 436 l 365 717 l 522 717 l 522 436 l 797 436 l 797 288 l 522 288 l 522 7 l 365 7 l 365 288 l 90 288 z "},"<":{"ha":889,"x_min":90,"x_max":799,"o":"m 321 367 l 799 161 l 799 13 l 90 314 l 90 408 l 799 710 l 799 561 l 321 367 z "},"=":{"ha":860,"x_min":85,"x_max":775,"o":"m 85 403 l 85 538 l 775 538 l 775 403 l 85 403 m 85 164 l 85 299 l 775 299 l 775 164 l 85 164 z "},">":{"ha":889,"x_min":90,"x_max":799,"o":"m 568 356 l 90 561 l 90 710 l 799 408 l 799 314 l 90 13 l 90 161 l 568 356 z "},"|":{"ha":424,"x_min":139,"x_max":286,"o":"m 139 1090 l 286 1090 l 286 -299 l 139 -299 l 139 1090 z "},"~":{"ha":799,"x_min":74,"x_max":725,"o":"m 206 238 l 78 244 q 74 278 74 260 q 81 334 74 306 q 110 389 89 363 q 176 445 138 425 q 269 465 215 465 q 354 448 313 465 q 442 397 396 431 q 542 351 504 351 q 594 414 594 351 q 593 435 594 424 q 588 456 592 446 l 719 449 q 724 431 722 440 q 725 410 725 421 q 718 353 725 383 q 692 297 711 324 q 550 228 639 228 q 473 245 513 228 q 386 296 433 263 q 268 343 322 343 q 216 324 233 343 q 199 272 199 304 q 206 238 199 256 z "},"¬":{"ha":878,"x_min":90,"x_max":788,"o":"m 90 401 l 90 536 l 788 536 l 788 243 l 667 243 l 667 401 l 90 401 z "},"±":{"ha":864,"x_min":90,"x_max":775,"o":"m 90 472 l 90 615 l 354 615 l 354 861 l 511 861 l 511 615 l 775 615 l 775 472 l 511 472 l 511 225 l 354 225 l 354 472 l 90 472 m 90 3 l 90 142 l 775 142 l 775 3 l 90 3 z "},"×":{"ha":828,"x_min":79,"x_max":749,"o":"m 179 19 l 79 119 l 322 354 l 79 589 l 179 689 l 414 446 l 649 689 l 749 589 l 506 354 l 749 119 l 649 19 l 414 263 l 179 19 z "},"÷":{"ha":874,"x_min":64,"x_max":807,"o":"m 338 682 q 366 751 338 722 q 436 779 394 779 q 506 751 478 779 q 535 682 535 722 q 506 614 535 643 q 436 585 478 585 q 366 614 394 585 q 338 682 338 643 m 64 332 l 64 474 l 807 474 l 807 332 l 64 332 m 338 113 q 366 181 338 153 q 436 210 394 210 q 506 181 478 210 q 535 113 535 153 q 506 44 535 74 q 436 15 478 15 q 366 44 394 15 q 338 113 338 74 z "},"⁄":{"ha":993,"x_min":83,"x_max":926,"o":"m 806 972 l 926 972 l 204 0 l 83 0 l 806 972 z "},"∂":{"ha":796,"x_min":54,"x_max":743,"o":"m 397 -17 q 220 28 297 -17 q 99 150 143 72 q 54 328 54 228 q 91 492 54 421 q 193 603 128 563 q 343 643 258 643 q 522 593 435 643 q 389 766 467 682 q 206 938 311 850 l 308 1026 q 638 642 532 811 q 743 328 743 472 q 699 150 743 228 q 576 28 654 72 q 397 -17 499 -17 m 399 121 q 535 177 482 121 q 589 319 589 233 q 535 464 589 407 q 399 521 481 521 q 263 464 317 521 q 208 319 208 407 q 262 177 208 233 q 399 121 315 121 z "},"∅":{"ha":833,"x_min":115,"x_max":717,"o":"m 175 38 l 115 97 l 175 157 q 131 240 147 194 q 115 336 115 286 q 156 488 115 419 q 265 597 196 556 q 417 638 333 638 q 514 622 468 638 q 597 578 560 606 l 656 636 l 717 576 l 657 517 q 701 433 685 479 q 717 336 717 388 q 676 185 717 253 q 568 76 636 117 q 417 36 500 36 q 319 52 365 36 q 235 97 272 68 l 175 38 m 222 336 q 251 233 222 281 l 519 501 q 417 531 472 531 q 319 504 364 531 q 249 434 275 478 q 222 336 222 390 m 417 142 q 515 169 471 142 q 585 240 560 196 q 611 336 611 285 q 581 440 611 393 l 311 174 q 417 142 360 142 z "},"∏":{"ha":833,"x_min":90,"x_max":743,"o":"m 204 0 l 204 849 l 90 849 l 90 972 l 743 972 l 743 849 l 629 849 l 629 0 l 493 0 l 493 849 l 340 849 l 340 0 l 204 0 z "},"∑":{"ha":833,"x_min":139,"x_max":694,"o":"m 139 0 l 375 489 l 139 972 l 694 972 l 694 843 l 349 843 l 521 489 l 349 129 l 694 129 l 694 0 l 139 0 z "},"−":{"ha":821,"x_min":90,"x_max":731,"o":"m 90 263 l 90 397 l 731 397 l 731 263 l 90 263 z "},"∕":{"ha":767,"x_min":21,"x_max":747,"o":"m 599 972 l 747 972 l 172 -208 l 21 -208 l 599 972 z "},"∙":{"ha":428,"x_min":117,"x_max":313,"o":"m 117 592 q 144 660 117 632 q 214 689 172 689 q 284 660 256 689 q 313 592 313 632 q 284 524 313 553 q 214 494 256 494 q 144 524 172 494 q 117 592 117 553 z "},"√":{"ha":833,"x_min":50,"x_max":710,"o":"m 339 -275 l 169 217 l 81 193 l 50 297 l 249 354 l 317 119 l 483 972 l 710 972 l 710 846 l 582 846 l 339 -275 z "},"∞":{"ha":1072,"x_min":31,"x_max":1042,"o":"m 275 56 q 154 92 210 56 q 65 190 99 129 q 31 319 31 250 q 65 449 31 390 q 154 544 99 508 q 275 581 210 581 q 538 414 404 581 q 799 581 669 581 q 919 544 864 581 q 1008 449 975 508 q 1042 319 1042 390 q 1008 190 1042 250 q 919 92 975 129 q 799 56 864 56 q 668 97 732 56 q 538 222 604 139 q 275 56 404 56 m 296 185 q 382 220 339 185 q 465 319 425 256 q 296 453 383 453 q 235 434 264 453 q 190 385 207 415 q 172 319 172 356 q 190 254 172 285 q 235 204 207 224 q 296 185 264 185 m 779 185 q 839 204 811 185 q 884 254 867 224 q 901 319 901 285 q 884 385 901 356 q 839 434 867 415 q 779 453 811 453 q 608 319 690 453 q 692 220 649 256 q 779 185 736 185 z "},"∫":{"ha":833,"x_min":132,"x_max":729,"o":"m 278 -278 q 208 -262 242 -276 q 132 -214 174 -249 l 200 -103 q 235 -131 221 -124 q 261 -139 249 -139 q 310 -109 292 -139 q 332 -25 328 -79 l 382 871 q 444 1040 389 978 q 585 1099 499 1101 q 654 1083 621 1097 q 729 1035 688 1069 l 661 924 q 626 952 640 944 q 600 960 613 960 q 552 929 569 960 q 531 844 535 899 l 479 -50 q 419 -217 474 -156 q 278 -278 364 -279 z "},"≈":{"ha":833,"x_min":63,"x_max":733,"o":"m 554 489 q 386 557 479 489 q 265 604 319 604 q 206 575 222 604 q 206 497 189 546 l 78 504 q 85 609 63 558 q 157 692 108 660 q 267 725 206 725 q 442 658 349 725 q 544 613 506 613 q 592 642 579 613 q 588 715 604 672 l 719 708 q 715 601 733 651 q 653 519 696 550 q 554 489 611 489 m 554 142 q 386 210 479 142 q 265 257 319 257 q 206 228 222 257 q 206 150 189 199 l 78 157 q 85 262 63 211 q 157 345 108 313 q 267 378 206 378 q 442 311 349 378 q 544 265 506 265 q 592 295 579 265 q 588 368 604 325 l 719 361 q 715 253 733 304 q 653 172 696 203 q 554 142 611 142 z "},"≠":{"ha":833,"x_min":85,"x_max":775,"o":"m 85 174 l 85 310 l 321 310 l 376 414 l 85 414 l 85 549 l 449 549 l 536 714 l 657 656 l 600 549 l 775 549 l 775 414 l 529 414 l 475 310 l 775 310 l 775 174 l 403 174 l 325 26 l 203 86 l 249 174 l 85 174 z "},"≤":{"ha":833,"x_min":64,"x_max":775,"o":"m 772 186 l 64 488 l 64 582 l 772 883 l 772 735 l 294 540 l 772 335 l 772 186 m 64 3 l 64 142 l 775 142 l 775 3 l 64 3 z "},"≥":{"ha":833,"x_min":90,"x_max":800,"o":"m 90 186 l 90 335 l 568 529 l 90 735 l 90 883 l 799 582 l 799 488 l 90 186 m 90 3 l 90 142 l 800 142 l 800 3 l 90 3 z "},"$":{"ha":828,"x_min":64,"x_max":757,"o":"m 617 700 q 541 805 586 761 q 426 849 496 849 q 321 818 354 849 q 288 735 288 788 q 319 657 288 688 q 401 604 350 626 q 511 560 453 582 q 625 503 568 539 q 719 411 682 468 q 757 267 757 354 q 687 76 757 150 q 489 -11 617 3 l 492 -156 l 361 -156 l 364 -8 q 182 81 261 11 q 64 246 103 150 l 190 328 q 294 181 236 233 q 438 128 353 128 q 549 163 513 128 q 585 260 585 197 q 554 347 585 313 q 474 406 524 382 q 368 450 425 429 q 288 484 332 463 q 206 539 244 506 q 142 622 167 572 q 117 739 117 671 q 149 850 117 799 q 236 936 181 901 q 364 982 292 971 l 361 1136 l 492 1136 l 490 981 q 651 903 589 963 q 744 779 714 844 l 617 700 z "},"¢":{"ha":806,"x_min":96,"x_max":657,"o":"m 249 319 q 276 213 249 258 q 348 141 303 167 q 449 115 393 115 q 577 147 521 115 q 657 224 633 179 l 657 57 q 582 10 629 28 q 481 -12 535 -7 l 485 -156 l 360 -156 l 363 -7 q 224 55 283 10 q 130 167 164 100 q 96 319 96 235 q 130 472 96 404 q 224 585 164 540 q 363 646 285 629 l 360 803 l 485 803 l 481 651 q 582 628 535 646 q 657 582 629 610 l 657 415 q 577 492 633 460 q 449 524 521 524 q 348 497 393 524 q 276 425 303 471 q 249 319 249 379 z "},"£":{"ha":822,"x_min":82,"x_max":751,"o":"m 93 514 l 224 514 q 170 601 196 554 q 144 721 144 649 q 185 863 144 804 q 294 954 225 922 q 449 986 363 986 q 578 960 522 986 q 671 892 633 933 q 728 802 708 850 q 751 711 749 754 l 617 658 q 597 746 614 704 q 544 815 579 788 q 453 842 510 842 q 350 810 396 842 q 304 708 304 779 q 333 601 304 643 q 389 514 361 558 l 604 514 l 604 396 l 433 396 q 435 369 435 383 q 404 244 435 303 q 329 144 374 186 l 731 144 l 731 0 l 82 0 q 195 130 150 71 q 263 246 240 189 q 286 367 286 303 q 283 396 286 382 l 93 396 l 93 514 z "},"¤":{"ha":803,"x_min":43,"x_max":758,"o":"m 121 58 l 43 135 l 131 221 q 88 311 103 261 q 72 417 72 361 q 88 522 72 472 q 131 613 103 572 l 43 699 l 121 775 l 206 689 q 297 734 246 718 q 403 750 347 750 q 508 734 458 750 q 599 689 558 718 l 685 775 l 758 699 l 674 614 q 717 524 701 574 q 733 417 733 474 q 717 310 733 360 q 674 219 701 260 l 758 135 l 685 58 l 599 144 q 508 99 558 115 q 403 83 458 83 q 297 99 347 83 q 206 144 246 115 l 121 58 m 215 417 q 269 277 215 332 q 403 222 322 222 q 537 277 485 222 q 589 417 589 332 q 537 557 589 503 q 403 611 485 611 q 269 557 322 611 q 215 417 215 503 z "},"¥":{"ha":854,"x_min":14,"x_max":840,"o":"m 63 181 l 63 299 l 344 299 l 344 389 l 63 389 l 63 507 l 288 507 l 14 972 l 201 972 l 428 556 l 654 972 l 840 972 l 567 507 l 786 507 l 786 389 l 513 389 l 513 299 l 786 299 l 786 181 l 513 181 l 513 0 l 344 0 l 344 181 l 63 181 z "},"€":{"ha":847,"x_min":35,"x_max":747,"o":"m 35 378 l 35 465 l 114 465 q 114 486 114 475 q 117 551 114 519 l 43 551 l 43 638 l 131 638 q 213 823 156 743 q 353 947 269 903 q 539 992 436 992 q 648 977 596 992 q 747 935 700 963 l 747 761 q 539 847 658 847 q 383 792 449 847 q 289 638 318 736 l 733 638 l 733 551 l 271 551 q 268 486 268 519 q 268 465 268 475 l 700 465 l 700 378 l 278 378 q 370 192 301 260 q 539 125 439 125 q 747 211 658 125 l 747 38 q 648 -4 700 11 q 539 -19 596 -19 q 342 31 429 -19 q 198 172 254 82 q 122 378 142 261 l 35 378 z "},"^":{"ha":708,"x_min":76,"x_max":632,"o":"m 354 840 l 218 632 l 76 632 l 313 986 l 396 986 l 632 632 l 490 632 l 354 840 z "},"`":{"ha":521,"x_min":92,"x_max":428,"o":"m 92 914 l 219 975 l 428 753 l 342 706 l 92 914 z "},"¨":{"ha":675,"x_min":92,"x_max":583,"o":"m 394 901 q 422 967 394 940 q 489 993 450 993 q 556 967 529 993 q 583 901 583 940 q 556 836 583 863 q 489 810 529 810 q 422 836 450 810 q 394 901 394 863 m 92 901 q 120 967 92 940 q 188 993 149 993 q 255 967 228 993 q 282 901 282 940 q 255 836 282 863 q 188 810 228 810 q 120 836 149 810 q 92 901 92 863 z "},"¯":{"ha":719,"x_min":111,"x_max":610,"o":"m 111 818 l 111 953 l 610 953 l 610 818 l 111 818 z "},"´":{"ha":521,"x_min":92,"x_max":428,"o":"m 428 914 l 178 706 l 92 753 l 300 975 l 428 914 z "},"¸":{"ha":510,"x_min":99,"x_max":415,"o":"m 265 89 l 378 88 l 276 -74 q 290 -72 283 -72 q 304 -72 297 -72 q 378 -101 342 -72 q 415 -187 415 -129 q 392 -263 415 -232 q 331 -310 368 -294 q 253 -326 293 -326 q 171 -315 206 -326 q 99 -272 136 -303 l 153 -201 q 242 -236 196 -236 q 314 -183 314 -236 q 294 -146 314 -157 q 239 -135 274 -135 q 201 -139 229 -135 q 146 -158 174 -143 l 265 89 z "},"˘":{"ha":758,"x_min":157,"x_max":601,"o":"m 157 1181 l 271 1181 q 295 1117 271 1150 q 379 1085 319 1085 q 464 1117 440 1085 q 488 1181 488 1150 l 601 1181 q 576 1084 601 1129 q 502 1011 551 1039 q 379 983 453 983 q 257 1011 307 983 q 182 1084 207 1039 q 157 1181 157 1129 z "},"˙":{"ha":417,"x_min":114,"x_max":303,"o":"m 114 1110 q 142 1175 114 1149 q 208 1201 169 1201 q 276 1175 249 1201 q 303 1110 303 1149 q 276 1044 303 1071 q 208 1018 249 1018 q 142 1044 169 1018 q 114 1110 114 1071 z "},"˚":{"ha":414,"x_min":53,"x_max":361,"o":"m 53 1082 q 99 1189 53 1149 q 207 1229 146 1229 q 315 1189 268 1229 q 361 1082 361 1149 q 315 975 361 1015 q 207 935 268 935 q 99 975 146 935 q 53 1082 53 1015 m 139 1082 q 160 1030 139 1049 q 207 1011 181 1011 q 254 1030 233 1011 q 275 1082 275 1049 q 254 1134 275 1115 q 207 1153 233 1153 q 160 1134 181 1153 q 139 1082 139 1115 z "},"˛":{"ha":361,"x_min":19,"x_max":315,"o":"m 269 -169 l 315 -250 q 268 -288 300 -271 q 186 -306 236 -306 q 63 -268 107 -306 q 19 -167 19 -231 q 46 -87 19 -124 q 115 -21 72 -51 q 206 35 157 10 l 263 0 q 174 -62 208 -25 q 140 -136 140 -100 q 156 -183 140 -169 q 200 -197 171 -197 q 240 -190 225 -197 q 269 -169 256 -183 z "},"˜":{"ha":736,"x_min":125,"x_max":618,"o":"m 125 875 q 179 961 136 926 q 278 996 222 996 q 333 985 311 996 q 373 962 356 975 q 409 938 390 949 q 457 928 428 928 q 499 946 479 928 q 540 997 519 964 l 618 921 q 557 847 601 882 q 456 811 513 811 q 390 828 418 811 q 335 863 361 846 q 276 881 310 881 q 234 867 249 881 q 215 838 219 854 q 210 810 210 821 l 125 875 z "},"˝":{"ha":0,"x_min":0,"x_max":529,"o":"m 94 717 l 0 744 l 150 1011 l 286 978 l 94 717 m 335 717 l 242 744 l 390 1011 l 529 978 l 335 717 z "},"¦":{"ha":424,"x_min":139,"x_max":286,"o":"m 139 965 l 286 965 l 286 618 l 139 618 l 139 965 m 286 354 l 286 7 l 139 7 l 139 354 l 286 354 z "},"©":{"ha":1111,"x_min":56,"x_max":1056,"o":"m 56 486 q 94 686 56 594 q 199 845 132 778 q 358 949 267 913 q 556 986 450 986 q 753 949 663 986 q 912 845 844 913 q 1017 686 979 778 q 1056 486 1056 594 q 1017 286 1056 378 q 912 127 979 194 q 753 23 844 60 q 556 -14 663 -14 q 358 23 450 -14 q 199 127 267 60 q 94 286 132 194 q 56 486 56 378 m 132 486 q 188 265 132 363 q 340 112 243 168 q 556 56 436 56 q 772 112 676 56 q 924 265 868 168 q 979 486 979 363 q 924 707 979 610 q 772 860 868 804 q 556 917 676 917 q 340 860 436 917 q 188 707 243 804 q 132 486 132 610 m 360 486 q 417 337 360 393 q 560 281 475 281 q 667 304 621 281 q 742 363 713 328 l 742 246 q 663 199 706 215 q 557 183 621 183 q 402 222 471 183 q 293 330 333 261 q 253 486 253 399 q 293 643 253 575 q 402 750 333 711 q 557 789 471 789 q 663 773 621 789 q 742 726 706 757 l 742 610 q 667 669 713 646 q 560 692 621 692 q 417 636 475 692 q 360 486 360 581 z "},"®":{"ha":1111,"x_min":56,"x_max":1056,"o":"m 56 486 q 94 686 56 594 q 199 845 132 778 q 358 949 267 913 q 556 986 450 986 q 753 949 663 986 q 912 845 844 913 q 1017 686 979 778 q 1056 486 1056 594 q 1017 286 1056 378 q 912 127 979 194 q 753 23 844 60 q 556 -14 663 -14 q 358 23 450 -14 q 199 127 267 60 q 94 286 132 194 q 56 486 56 378 m 132 486 q 188 265 132 363 q 340 112 243 168 q 556 56 436 56 q 772 112 676 56 q 924 265 868 168 q 979 486 979 363 q 924 707 979 610 q 772 860 868 804 q 556 917 676 917 q 340 860 436 917 q 188 707 243 804 q 132 486 132 610 m 369 792 l 550 792 q 702 742 644 792 q 760 614 760 693 q 724 505 760 550 q 625 443 688 460 l 790 208 l 672 208 l 529 433 l 468 433 l 468 208 l 369 208 l 369 792 m 544 707 l 468 707 l 468 514 l 544 514 q 627 539 596 514 q 658 611 658 564 q 627 683 658 658 q 544 707 596 707 z "},"°":{"ha":396,"x_min":26,"x_max":371,"o":"m 26 832 q 76 953 26 906 q 199 1000 125 1000 q 322 953 272 1000 q 371 832 371 906 q 322 711 371 758 q 199 664 272 664 q 76 711 125 664 q 26 832 26 758 m 100 832 q 128 759 100 788 q 199 731 157 731 q 268 759 240 731 q 296 832 296 788 q 268 905 296 876 q 199 933 240 933 q 128 905 157 933 q 100 832 100 876 z "},"™":{"ha":968,"x_min":43,"x_max":926,"o":"m 861 996 l 926 486 l 842 486 l 810 775 l 661 531 l 513 775 l 479 486 l 394 486 l 461 996 l 661 667 l 861 996 m 43 897 l 43 972 l 383 972 l 383 897 l 254 897 l 254 486 l 172 486 l 172 897 l 43 897 z "},"◊":{"ha":833,"x_min":139,"x_max":694,"o":"m 425 21 l 139 494 l 425 967 l 694 494 l 425 21 m 421 278 l 546 494 l 421 711 l 288 494 l 421 278 z "}," ":{"ha":417,"x_min":0,"x_max":0,"o":""}," ":{"ha":417,"x_min":0,"x_max":0,"o":""},"\u0000":{"ha":417,"x_min":0,"x_max":0,"o":""},"\r":{"ha":417,"x_min":0,"x_max":0,"o":""},"­":{"ha":292,"x_min":7,"x_max":285,"o":"m 7 278 l 7 382 l 285 382 l 285 278 l 7 278 z "}}}
